<?xml version="1.0" encoding="UTF-8"?>
<svg version="1.1" xmlns="http://www.w3.org/2000/svg" width="604" height="648">
<path d="M0 0 C105.6 0 211.2 0 320 0 C320 105.6 320 211.2 320 320 C214.4 320 108.8 320 0 320 C0 214.4 0 108.8 0 0 Z " fill="#0064F0" transform="translate(67,72)"/>
<path d="M0 0 C66.05077263 0 66.05077263 0 77 10 C84.64500064 19.17729603 85.81120643 28.41017028 85.19091797 39.98974609 C84.42041274 48.1027129 80.01875769 54.70865552 74 60 C66.68856448 65 66.68856448 65 62 65 C69.1851924 78.38048815 76.44455739 91.70606079 84.03588867 104.86157227 C84.55642822 105.77092529 85.07696777 106.68027832 85.61328125 107.6171875 C86.07516846 108.41753418 86.53705566 109.21788086 87.01293945 110.04248047 C88 112 88 112 88 114 C80.41 114 72.82 114 65 114 C63.6454943 111.49341075 62.29141584 108.9865899 60.93920898 106.47875977 C59.76245802 104.30976583 58.57559732 102.14622901 57.37915039 99.98803711 C54.47841019 94.73191907 51.72680036 89.52147385 49.390625 83.98828125 C48.97401611 83.07079102 48.55740723 82.15330078 48.12817383 81.20800781 C46.9375 78.5625 46.9375 78.5625 46.01049805 75.98339844 C44.84172937 73.12065877 44.84172937 73.12065877 41 70 C34.4 69.67 27.8 69.34 21 69 C21 83.85 21 98.7 21 114 C14.07 114 7.14 114 0 114 C0 76.38 0 38.76 0 0 Z " fill="#FBFCFE" transform="translate(125,256)"/>
<path d="M0 0 C5.28 0 10.56 0 16 0 C16.029729 2.5210437 16.029729 2.5210437 16.06005859 5.09301758 C16.12782124 10.64515275 16.20459585 16.19711425 16.28752708 21.74904346 C16.33747962 25.11528716 16.38380947 28.48149963 16.421875 31.84790039 C16.46742835 35.7177998 16.52543941 39.58734025 16.5859375 43.45703125 C16.59748871 44.66647903 16.60903992 45.87592682 16.62094116 47.12202454 C16.64081085 48.24296005 16.66068054 49.36389557 16.68115234 50.51879883 C16.69447601 51.50697098 16.70779968 52.49514313 16.7215271 53.51325989 C16.83553926 56.25018811 16.83553926 56.25018811 19 59 C23.07292641 59.52026557 23.07292641 59.52026557 26.66438293 57.81913757 C28.49863194 55.32085317 28.39771169 53.60366002 28.43237305 50.51879883 C28.45216721 49.39786331 28.47196136 48.2769278 28.49235535 47.12202454 C28.49874527 45.91257675 28.50513519 44.70312897 28.51171875 43.45703125 C28.52966995 42.21829758 28.54762115 40.9795639 28.56611633 39.70329285 C28.61115077 36.4137054 28.6434265 33.12431541 28.66955566 29.83453369 C28.69935939 26.47613983 28.74589023 23.11798238 28.79101562 19.75976562 C28.87611348 13.17326454 28.94284977 6.58680049 29 0 C34.28 0 39.56 0 45 0 C45.09936531 7.7738071 45.17170448 15.54723906 45.21972656 23.3215332 C45.23975996 25.96254929 45.26699451 28.60352149 45.30175781 31.24438477 C45.350639 35.05496091 45.37305267 38.86494721 45.390625 42.67578125 C45.41127014 43.84393875 45.43191528 45.01209625 45.45318604 46.21565247 C45.45525679 53.8943921 44.12020872 59.97964093 41 67 C41.9075 66.525625 42.815 66.05125 43.75 65.5625 C50.31773743 62.40493393 57.22081395 61.82069879 64.1875 64.1875 C71.08729364 67.17193455 74.7249075 71.20453712 77.96362305 77.86401367 C80.02687314 84.10722862 79.51010829 90.6315171 79.3125 97.125 C79.28736323 98.57287777 79.26455962 100.02079801 79.24414062 101.46875 C79.19390678 104.98110054 79.09603022 108.4874278 79 112 C73.72 112 68.44 112 63 112 C63.03480469 110.20433594 63.06960938 108.40867187 63.10546875 106.55859375 C63.13361525 104.18490522 63.16091449 101.81120653 63.1875 99.4375 C63.21263672 98.25607422 63.23777344 97.07464844 63.26367188 95.85742188 C63.36129162 86.99443762 63.36129162 86.99443762 60 79 C56.07443955 77.85801878 52.87503335 77.604988 49 79 C47.91104109 82.58077593 47.79810192 86.00468023 47.68359375 89.734375 C47.64169922 91.02988281 47.59980469 92.32539063 47.55664062 93.66015625 C47.51683329 95.02343476 47.47712094 96.38671606 47.4375 97.75 C47.39427726 99.12891875 47.35066179 100.50782526 47.30664062 101.88671875 C47.20056101 105.25769306 47.09977635 108.62883323 47 112 C41.72 112 36.44 112 31 112 C30.95101562 109.80859375 30.90203125 107.6171875 30.8515625 105.359375 C30.79751398 103.23121458 30.74022184 101.10316443 30.68261719 98.97509766 C30.64439334 97.49894464 30.60952897 96.02270057 30.578125 94.54638672 C30.53233014 92.42121906 30.47436163 90.29667458 30.4140625 88.171875 C30.3826416 86.8940918 30.3512207 85.61630859 30.31884766 84.29980469 C30.02488248 81.25751274 29.70224419 79.500053 28 77 C24.90826248 75.45413124 22.40570448 75.70640479 19 76 C16.66532285 77.49191207 16.66532285 77.49191207 15 80 C14.35726046 83.47724894 14.35726046 83.47724894 14.390625 87.390625 C14.37408875 88.09523865 14.35755249 88.79985229 14.34051514 89.52581787 C14.29208861 91.76730102 14.27067813 94.00810613 14.25 96.25 C14.22183552 97.77347151 14.19190741 99.29691152 14.16015625 100.8203125 C14.08302054 104.54718508 14.04246097 108.2719271 14 112 C8.72 112 3.44 112 -2 112 C-2.01417969 109.96457031 -2.02835937 107.92914063 -2.04296875 105.83203125 C-2.07775006 103.84949637 -2.11270786 101.86696036 -2.15258789 99.88452148 C-2.17570978 98.51224569 -2.19015003 97.13979391 -2.19555664 95.76733398 C-2.20488665 93.78865529 -2.24857019 91.81023376 -2.29296875 89.83203125 C-2.3086792 88.64327393 -2.32438965 87.4545166 -2.34057617 86.22973633 C-3.18597947 82.08910685 -4.69887827 80.56560285 -8 78 C-11.64982715 77.58090318 -11.64982715 77.58090318 -15 79 C-17.64652532 83.20627043 -18.39447889 86.56811328 -18.51171875 91.4921875 C-18.54716797 92.69101562 -18.58261719 93.88984375 -18.61914062 95.125 C-18.65297852 96.98125 -18.65297852 96.98125 -18.6875 98.875 C-18.72166016 100.13570313 -18.75582031 101.39640625 -18.79101562 102.6953125 C-18.87324586 105.79656722 -18.93830576 108.89826879 -19 112 C-23.95 112 -28.9 112 -34 112 C-34.09234164 107.58812167 -34.17181085 103.17965658 -34.21972656 98.76757812 C-34.23971919 97.2700661 -34.26692299 95.77263092 -34.30175781 94.27539062 C-34.51445432 84.89172103 -34.63379033 77.61571257 -28.359375 70.01171875 C-22.19289629 64.93784428 -16.31233819 62.44367922 -8.24609375 62.6953125 C-4.55446149 63.19609044 -1.42567473 64.55761064 2 66 C2.66 66 3.32 66 4 66 C3.525625 65.2575 3.05125 64.515 2.5625 63.75 C0.15928438 59.5203405 -0.12422011 56.14749015 -0.11352539 51.31347656 C-0.11344986 50.17259583 -0.11337433 49.03171509 -0.11329651 47.85626221 C-0.10813522 46.63010193 -0.10297394 45.40394165 -0.09765625 44.140625 C-0.0962413 42.88111023 -0.09482635 41.62159546 -0.09336853 40.32391357 C-0.08872073 36.98334881 -0.07974281 33.64285279 -0.06866455 30.30230713 C-0.05841598 26.8903462 -0.05386354 23.47837815 -0.04882812 20.06640625 C-0.03779963 13.37758275 -0.02053524 6.68880079 0 0 Z " fill="#000000" transform="translate(453,401)"/>
<path d="M0 0 C8.94704454 6.47947316 17.25449416 14.46653535 22.08203125 24.5078125 C21.75203125 25.4978125 21.42203125 26.4878125 21.08203125 27.5078125 C18.09765625 28.67578125 18.09765625 28.67578125 14.33203125 29.6953125 C13.0996875 30.03949219 11.86734375 30.38367188 10.59765625 30.73828125 C5.0278836 31.9574426 5.0278836 31.9574426 2.08203125 31.5078125 C0.52734375 29.96875 0.52734375 29.96875 -0.79296875 27.8828125 C-6.8025229 19.24979816 -14.54031705 14.54490709 -24.91796875 12.5078125 C-37.39979519 11.53788713 -47.22094276 13.44176475 -56.91796875 21.59765625 C-64.38270847 28.72706586 -68.93380308 36.92403652 -69.39013672 47.35986328 C-69.55236789 59.51581637 -66.01834379 69.07441052 -57.79296875 78.0703125 C-49.5717804 86.09575827 -40.22789011 87.81325048 -29.25048828 87.82250977 C-18.53583474 87.65106719 -10.61072884 84.06428353 -2.91796875 76.5078125 C-1.00302712 73.95306561 0.61682275 71.34251235 2.08203125 68.5078125 C4.47695798 68.97779812 6.87021349 69.45424777 9.26171875 69.94140625 C11.07590655 70.30575145 12.89354849 70.65350031 14.71484375 70.98046875 C15.51664062 71.13386719 16.3184375 71.28726563 17.14453125 71.4453125 C17.87800781 71.57808594 18.61148438 71.71085937 19.3671875 71.84765625 C19.93308594 72.06550781 20.49898438 72.28335938 21.08203125 72.5078125 C22.08203125 75.5078125 22.08203125 75.5078125 21.18359375 77.63671875 C11.47522845 93.63754304 -0.78733046 102.83648695 -18.79711914 108.05200195 C-30.26386651 110.51642204 -44.40524482 109.59768336 -54.91796875 104.5078125 C-55.84480469 104.08371094 -56.77164063 103.65960938 -57.7265625 103.22265625 C-72.86861023 95.68313456 -82.50858083 83.33449826 -87.91796875 67.5078125 C-91.20425024 56.74181742 -91.29283502 44.25307636 -87.91796875 33.5078125 C-87.67304688 32.64929688 -87.428125 31.79078125 -87.17578125 30.90625 C-82.46298647 16.10056729 -71.50743996 4.60899808 -57.91796875 -2.4921875 C-39.34760289 -11.854362 -17.8657996 -10.86295272 0 0 Z " fill="#FBFCFE" transform="translate(349.91796875,262.4921875)"/>
<path d="M0 0 C6.93 0 13.86 0 21 0 C21 37.62 21 75.24 21 114 C14.07 114 7.14 114 0 114 C0 76.38 0 38.76 0 0 Z " fill="#FBFCFE" transform="translate(226,256)"/>
<path d="M0 0 C6.93 0 13.86 0 21 0 C21 37.62 21 75.24 21 114 C14.07 114 7.14 114 0 114 C0 76.38 0 38.76 0 0 Z " fill="#FBFCFE" transform="translate(86,256)"/>
<path d="M0 0 C4.62 0 9.24 0 14 0 C17.45024827 6.64313536 20.34443017 13.45310605 23.1875 20.375 C24.07626072 22.5288779 24.96555596 24.68253534 25.85546875 26.8359375 C26.24371826 27.78001465 26.63196777 28.7240918 27.03198242 29.69677734 C27.64311977 31.15086807 28.29461093 32.58922186 29 34 C29.41886475 33.00556885 29.83772949 32.0111377 30.26928711 30.98657227 C31.81923799 27.30861148 33.37238329 23.632007 34.92651367 19.95581055 C35.59959179 18.36243098 36.2717949 16.7686815 36.94311523 15.17456055 C37.90640903 12.88753756 38.87280867 10.60184934 39.83984375 8.31640625 C40.14091537 7.59973282 40.441987 6.88305939 40.75218201 6.14466858 C42.88612829 1.11387171 42.88612829 1.11387171 44 0 C46.35313555 -0.07271741 48.70833668 -0.08370868 51.0625 -0.0625 C52.35285156 -0.05347656 53.64320313 -0.04445313 54.97265625 -0.03515625 C55.97167969 -0.02355469 56.97070312 -0.01195312 58 0 C58 0.99 58 1.98 58 3 C56.35 3.33 54.7 3.66 53 4 C53 17.53 53 31.06 53 45 C54.65 45.33 56.3 45.66 58 46 C58 46.99 58 47.98 58 49 C50.74 49 43.48 49 36 49 C36 48.01 36 47.02 36 46 C38.31 45.67 40.62 45.34 43 45 C42.505 32.13 42.505 32.13 42 19 C37.71 28.9 33.42 38.8 29 49 C27.35 49 25.7 49 24 49 C20.32879492 41.93678367 17.15088441 34.76011178 14.1875 27.375 C12.805625 23.95125 11.42375 20.5275 10 17 C9.67 26.24 9.34 35.48 9 45 C11.31 45.33 13.62 45.66 16 46 C16 46.99 16 47.98 16 49 C10.72 49 5.44 49 0 49 C0 48.01 0 47.02 0 46 C1.485 45.505 1.485 45.505 3 45 C3.33 31.47 3.66 17.94 4 4 C2.68 3.67 1.36 3.34 0 3 C0 2.01 0 1.02 0 0 Z " fill="#000000" transform="translate(249,527)"/>
<path d="M0 0 C4.41375 -0.103125 8.8275 -0.20625 13.375 -0.3125 C15.43113525 -0.38078003 15.43113525 -0.38078003 17.52880859 -0.45043945 C26.82725333 -0.55486337 33.70527214 1.01203842 40.625 7.4375 C43.03459247 13.68053504 43.23352027 20.87671597 41.3046875 27.32421875 C39.15333869 31.49132715 36.08925443 33.8735877 32 36 C27.86665003 36.87800388 23.94471179 37.11853818 19.7265625 37.09765625 C18.16542725 37.09390991 18.16542725 37.09390991 16.57275391 37.09008789 C15.26999512 37.08098389 13.96723633 37.07187988 12.625 37.0625 C8.45875 37.041875 4.2925 37.02125 0 37 C0 24.79 0 12.58 0 0 Z " fill="#0265F0" transform="translate(146,272)"/>
<path d="M0 0 C4.95 0 9.9 0 15 0 C15.33 14.85 15.66 29.7 16 45 C17.32 45.33 18.64 45.66 20 46 C20 46.99 20 47.98 20 49 C13.66666667 49 7.33333333 49 1 49 C0.06285156 49.03480469 -0.87429687 49.06960938 -1.83984375 49.10546875 C-3.37318359 49.14607422 -3.37318359 49.14607422 -4.9375 49.1875 C-5.95714844 49.22230469 -6.97679687 49.25710938 -8.02734375 49.29296875 C-11.4585595 48.95480688 -13.24121613 48.02922807 -16 46 C-19.85727244 40.62737053 -20.64194644 35.55023124 -20 29 C-18.64846287 22.78063847 -16.16283074 19.62496626 -11 16 C-8.6876551 14.84382755 -7.25944273 14.83411296 -4.6875 14.8125 C-3.92824219 14.79832031 -3.16898438 14.78414062 -2.38671875 14.76953125 C0 15 0 15 5 17 C5 12.71 5 8.42 5 4 C2.525 3.505 2.525 3.505 0 3 C0 2.01 0 1.02 0 0 Z M-7.375 22.25 C-10.13234409 26.91627462 -10.28585201 30.56881177 -10 36 C-9.00658918 39.36231354 -7.98498112 42.04432271 -5 44 C-0.63293092 44.38991688 1.30513897 44.46324069 5 42 C5.46398705 39.90926724 5.46398705 39.90926724 5.3984375 37.5 C5.40230469 36.613125 5.40617187 35.72625 5.41015625 34.8125 C5.39855469 33.884375 5.38695312 32.95625 5.375 32 C5.38660156 31.071875 5.39820313 30.14375 5.41015625 29.1875 C5.40628906 28.300625 5.40242188 27.41375 5.3984375 26.5 C5.39505371 25.6853125 5.39166992 24.870625 5.38818359 24.03125 C5.26008301 23.3609375 5.13198242 22.690625 5 22 C0.56704033 19.04469355 -3.33865276 18.42609208 -7.375 22.25 Z " fill="#000000" transform="translate(175,527)"/>
<path d="M0 0 C7.59 0 15.18 0 23 0 C23 0.99 23 1.98 23 3 C20.69 3.33 18.38 3.66 16 4 C16.06891743 8.91179503 16.15690253 13.82274202 16.26245117 18.73388672 C16.2956727 20.40403833 16.32371334 22.07430146 16.34643555 23.74462891 C16.38003334 26.14794363 16.43234946 28.55023899 16.48828125 30.953125 C16.49467117 31.69806213 16.5010611 32.44299927 16.50764465 33.21051025 C16.59673044 36.36284627 16.80981565 38.65478795 18.34448242 41.44042969 C21.81220998 44.70718144 26.06889835 44.27632801 30.5546875 44.2109375 C33.82331323 43.92897937 35.59838378 43.25151521 38 41 C39.86789079 36.48503163 40.29353733 32.49399438 40.4140625 27.6328125 C40.43342865 26.95322479 40.4527948 26.27363708 40.4727478 25.57345581 C40.53205099 23.42409421 40.57872891 21.27467759 40.625 19.125 C40.66322532 17.6588321 40.70227964 16.19268557 40.7421875 14.7265625 C40.83771044 11.15123836 40.92192126 7.57575252 41 4 C38.69 3.67 36.38 3.34 34 3 C34 2.01 34 1.02 34 0 C39.61 0 45.22 0 51 0 C51 0.99 51 1.98 51 3 C49.35 3.33 47.7 3.66 46 4 C46.01571045 4.99854004 46.0314209 5.99708008 46.04760742 7.02587891 C46.10212619 10.74942887 46.13642934 14.4729439 46.16479492 18.19677734 C46.17983176 19.80491072 46.20026672 21.41300344 46.22631836 23.02099609 C46.26292822 25.33962064 46.27977722 27.65770049 46.29296875 29.9765625 C46.30845261 30.68930328 46.32393646 31.40204407 46.33988953 32.13638306 C46.34183228 37.9686941 44.86166716 41.90562445 41 46.25 C33.46585193 50.64491971 24.38710693 50.64531763 16 49 C12.42534715 47.5956721 9.21089355 46.20579565 7 43 C4.3929395 35.18861947 4.55248261 27.14756087 4.375 19 C4.33675034 17.54294718 4.29769473 16.08591529 4.2578125 14.62890625 C4.16257494 11.08613074 4.07827103 7.5431957 4 4 C2.68 3.67 1.36 3.34 0 3 C0 2.01 0 1.02 0 0 Z " fill="#000000" transform="translate(71,464)"/>
<path d="M0 0 C4.62 0 9.24 0 14 0 C14.33 0.99 14.66 1.98 15 3 C15.804375 2.505 16.60875 2.01 17.4375 1.5 C21.62973686 -0.26515236 25.52594754 -1.18270604 30 0 C32.7578125 1.73046875 32.7578125 1.73046875 35 5 C35.61512533 9.28650027 35.46977123 13.49359009 35.3125 17.8125 C35.28994141 18.98232422 35.26738281 20.15214844 35.24414062 21.35742188 C35.18532091 24.23958769 35.10317141 27.11913681 35 30 C36.65 30.33 38.3 30.66 40 31 C40 31.99 40 32.98 40 34 C34.06 34 28.12 34 22 34 C22 33.01 22 32.02 22 31 C23.32 30.67 24.64 30.34 26 30 C25.505 18.12 25.505 18.12 25 6 C17.83205029 6.4452998 17.83205029 6.4452998 15 8 C14.67 15.26 14.34 22.52 14 30 C15.32 30.33 16.64 30.66 18 31 C18 31.99 18 32.98 18 34 C11.73 34 5.46 34 -1 34 C-1 33.01 -1 32.02 -1 31 C0.65 30.67 2.3 30.34 4 30 C3.67 21.42 3.34 12.84 3 4 C2.01 3.67 1.02 3.34 0 3 C0 2.01 0 1.02 0 0 Z " fill="#000000" transform="translate(123,479)"/>
<path d="M0 0 C4.62 0 9.24 0 14 0 C14.33 0.99 14.66 1.98 15 3 C15.99 2.505 16.98 2.01 18 1.5 C22.26016687 -0.30237829 25.388105 -0.52069782 30 0 C34.57172284 2.72357956 34.57172284 2.72357956 35.60913086 5.81542969 C36.05259502 8.29395393 36.21400398 10.68695487 36.31640625 13.203125 C36.37924805 14.67265625 36.37924805 14.67265625 36.44335938 16.171875 C36.48267578 17.18765625 36.52199219 18.2034375 36.5625 19.25 C36.60568359 20.28125 36.64886719 21.3125 36.69335938 22.375 C36.79925682 24.9165387 36.90133443 27.45817196 37 30 C37.99 30.33 38.98 30.66 40 31 C40 31.99 40 32.98 40 34 C34.06 34 28.12 34 22 34 C22 33.01 22 32.02 22 31 C22.99 30.67 23.98 30.34 25 30 C25 22.08 25 14.16 25 6 C18.46304618 6.81135156 18.46304618 6.81135156 14 8 C14.33 15.26 14.66 22.52 15 30 C16.32 30.33 17.64 30.66 19 31 C19 31.99 19 32.98 19 34 C12.73 34 6.46 34 0 34 C0 33.01 0 32.02 0 31 C1.65 30.67 3.3 30.34 5 30 C5 21.42 5 12.84 5 4 C3.35 3.67 1.7 3.34 0 3 C0 2.01 0 1.02 0 0 Z " fill="#000000" transform="translate(349,542)"/>
<path d="M0 0 C3.07042974 2.2053202 5.01837706 4.86878538 6.69140625 8.21484375 C7.19870275 13.77015623 7.45401047 18.63314611 5.00390625 23.71484375 C1.01223522 28.03016378 -2.16065009 30.91339908 -8.1640625 31.48828125 C-15.56117845 31.7137502 -20.74066315 31.36768441 -26.30859375 26.21484375 C-30.01797364 22.0268342 -30.58227088 16.66350664 -30.30859375 11.21484375 C-28.46332621 4.8273792 -24.82921054 1.22662477 -19.12109375 -2.03515625 C-12.32669074 -3.84699705 -6.14932632 -3.49082969 0 0 Z M-17.30859375 3.21484375 C-20.21832033 8.89382735 -19.97218931 14.9926595 -19.30859375 21.21484375 C-18.13887868 24.12060653 -16.52826603 25.99517147 -14.30859375 28.21484375 C-9.36071156 28.02733899 -9.36071156 28.02733899 -5.43359375 25.33984375 C-2.68039477 20.13935678 -2.84796948 14.96442171 -3.30859375 9.21484375 C-4.815548 4.99537184 -6.40586461 2.48094454 -10.30859375 0.21484375 C-13.33187449 0.21484375 -14.89010354 1.46143835 -17.30859375 3.21484375 Z " fill="#000000" transform="translate(339.30859375,544.78515625)"/>
<path d="M0 0 C3.00197464 1.80118478 4.45166366 2.90332732 6 6 C6.15306901 7.81171098 6.24946661 9.6283794 6.31640625 11.4453125 C6.35830078 12.52167969 6.40019531 13.59804688 6.44335938 14.70703125 C6.48267578 15.83496094 6.52199219 16.96289062 6.5625 18.125 C6.60568359 19.26066406 6.64886719 20.39632812 6.69335938 21.56640625 C6.7996604 24.37747768 6.90169405 27.18863945 7 30 C7.99 30.33 8.98 30.66 10 31 C10 31.99 10 32.98 10 34 C5.71 34 1.42 34 -3 34 C-3 33.34 -3 32.68 -3 32 C-3.81984375 32.48339844 -3.81984375 32.48339844 -4.65625 32.9765625 C-8.92391298 34.84010867 -13.43873578 34.554561 -18 34 C-21.26805294 31.97691961 -21.78814554 30.71122568 -22.875 27.0625 C-23.0143242 23.64905716 -22.74327413 21.93187013 -21 19 C-17.09548194 16.10514936 -13.9942213 15.5552637 -9.1875 15.3125 C-7.44533203 15.21388672 -7.44533203 15.21388672 -5.66796875 15.11328125 C-4.78753906 15.07589844 -3.90710938 15.03851562 -3 15 C-3.66 12.03 -4.32 9.06 -5 6 C-7.97 5.67 -10.94 5.34 -14 5 C-14.33 7.31 -14.66 9.62 -15 12 C-16.65 12 -18.3 12 -20 12 C-20 9.03 -20 6.06 -20 3 C-13.29224299 0.36088249 -7.23195302 -1.06757402 0 0 Z M-14 23 C-13.89386164 25.45224694 -13.89386164 25.45224694 -13 28 C-10.79174051 29.60019461 -10.79174051 29.60019461 -8 30 C-5.23259665 29.22772827 -5.23259665 29.22772827 -3 28 C-3 25.03 -3 22.06 -3 19 C-8.13496308 18.52232902 -10.26280719 19.48264206 -14 23 Z " fill="#000000" transform="translate(505,542)"/>
<path d="M0 0 C4.15235536 1.7151033 6.79673658 4.08308726 9 8 C9.80199874 13.3061533 9.64544218 17.60981685 7.375 22.5 C3.75375204 26.31183995 0.77284522 27.77436515 -4.4375 28.4375 C-9.75880856 27.78400597 -13.20163846 25.91438487 -16.9375 21.9375 C-18.61665143 17.29514016 -18.77785918 12.86697213 -18 8 C-14.0258647 0.29535455 -7.92344205 -0.81266072 0 0 Z " fill="#FAFCFE" transform="translate(323,299)"/>
<path d="M0 0 C2.76562303 1.84374869 4.14231541 2.78463083 5.625 5.75 C5.955 8.72 6.285 11.69 6.625 14.75 C-0.635 14.75 -7.895 14.75 -15.375 14.75 C-13.45724573 24.01345206 -13.45724573 24.01345206 -10.1875 26.9375 C-4.66311473 28.53343352 0.49533342 27.15453121 5.625 24.75 C6.285 26.07 6.945 27.39 7.625 28.75 C0.44232155 33.44072878 -6.92879498 34.00128963 -15.375 32.75 C-20.39855002 29.93634305 -23.0761 27.29245454 -25.0625 21.875 C-25.97157279 15.693305 -25.34644513 11.28303576 -22.375 5.75 C-16.29689757 -1.44775287 -8.82170462 -3.26729801 0 0 Z M-13.25 5.0625 C-14.56806904 7.72564291 -14.56806904 7.72564291 -14.375 10.75 C-10.415 10.75 -6.455 10.75 -2.375 10.75 C-3.2354139 6.41770285 -3.2354139 6.41770285 -5.375 2.75 C-9.97694928 2.08888559 -9.97694928 2.08888559 -13.25 5.0625 Z " fill="#000000" transform="translate(221.375,543.25)"/>
<path d="M0 0 C3.30774657 2.30773016 4.88228692 4.26457385 6.6875 7.875 C6.6875 10.185 6.6875 12.495 6.6875 14.875 C-0.2425 14.875 -7.1725 14.875 -14.3125 14.875 C-13.24564074 23.47873476 -13.24564074 23.47873476 -9.3125 26.875 C-3.59649648 28.82680608 1.23133532 26.78357934 6.6875 24.875 C7.1825 26.855 7.1825 26.855 7.6875 28.875 C0.57531331 33.42679948 -5.97572949 33.86650911 -14.3125 32.875 C-19.26580233 30.65455413 -21.82086914 27.67369646 -24.3125 22.875 C-25.84532014 16.64153142 -25.42594807 11.57597586 -22.3125 5.875 C-16.15200833 -1.07008259 -8.83866351 -3.00181025 0 0 Z M-8.3125 1.875 C-12.62458438 4.86028919 -13.22060185 5.41550926 -14.3125 10.875 C-10.3525 10.875 -6.3925 10.875 -2.3125 10.875 C-2.42042821 7.9707107 -2.42042821 7.9707107 -3.3125 4.875 C-5.75559577 2.95755407 -5.75559577 2.95755407 -8.3125 1.875 Z " fill="#000000" transform="translate(470.3125,543.125)"/>
<path d="M0 0 C3.01415752 2.93880359 4.21669905 5.44500814 5.5 9.4375 C5.5 10.7575 5.5 12.0775 5.5 13.4375 C-1.76 13.4375 -9.02 13.4375 -16.5 13.4375 C-15.19144825 21.61387003 -15.19144825 21.61387003 -12.9375 25 C-9.19801566 27.20533692 -5.73415655 26.94940148 -1.5 26.4375 C1.91471924 25.55289972 1.91471924 25.55289972 4.5 24.4375 C4.83 25.7575 5.16 27.0775 5.5 28.4375 C-1.40020124 32.76703803 -7.42628613 33.43641613 -15.5 32.4375 C-19.81080868 31.17269676 -22.1343066 28.89696094 -24.9375 25.375 C-27.30398083 20.61130483 -27.25507846 15.61627043 -26.5 10.4375 C-24.8201808 5.55973622 -21.7660711 2.2815474 -17.5 -0.5625 C-11.67880038 -2.50289987 -5.60435286 -2.50194324 0 0 Z M-11.5 1.4375 C-14.6782099 4.7065159 -15.5 5.75915993 -15.5 10.4375 C-11.87 10.4375 -8.24 10.4375 -4.5 10.4375 C-4.93344634 6.22731634 -4.93344634 6.22731634 -6.875 2.5625 C-8.58169217 1.15289501 -8.58169217 1.15289501 -11.5 1.4375 Z " fill="#000000" transform="translate(382.5,480.5625)"/>
<path d="M0 0 C2.79994599 2.65994869 4.17009898 4.7547139 5.5 8.375 C5.5 10.025 5.5 11.675 5.5 13.375 C-1.76 13.375 -9.02 13.375 -16.5 13.375 C-15.19144825 21.55137003 -15.19144825 21.55137003 -12.9375 24.9375 C-8.66520323 27.45705963 -4.10040682 26.93494161 0.640625 25.9140625 C2.2765826 25.45519634 3.89155422 24.92255601 5.5 24.375 C5.995 25.86 5.995 25.86 6.5 27.375 C-0.91815261 32.48528291 -6.57250926 33.16660016 -15.5 32.375 C-20.34636992 30.07935109 -24.16022805 26.61278221 -26.25 21.5625 C-27.07398569 14.35262518 -26.66821837 9.43908543 -22.5 3.375 C-16.25352848 -2.5667656 -7.818559 -3.63004525 0 0 Z M-10.5 1.375 C-14.10239038 4.51256581 -14.4957244 5.35362202 -15.5 10.375 C-11.54 10.375 -7.58 10.375 -3.5 10.375 C-4.12032476 6.91014293 -4.12032476 6.91014293 -5.5 3.375 C-7.99641128 1.85707356 -7.99641128 1.85707356 -10.5 1.375 Z " fill="#000000" transform="translate(242.5,480.625)"/>
<path d="M0 0 C1.32 0 2.64 0 4 0 C4 4.95 4 9.9 4 15 C6.64 15 9.28 15 12 15 C12 15.99 12 16.98 12 18 C8.04 18.495 8.04 18.495 4 19 C4.33 27.25 4.66 35.5 5 44 C8.13349732 45.04449911 8.98968256 44.93423645 12 44 C12.33 44.99 12.66 45.98 13 47 C9.57375115 49.08554278 6.85089184 49.26953755 2.875 49.25 C1.82054687 49.25515625 0.76609375 49.2603125 -0.3203125 49.265625 C-3 49 -3 49 -5 47 C-6.12177204 43.78735108 -6.1156397 40.74026312 -6.09765625 37.359375 C-6.09443359 36.28945313 -6.09121094 35.21953125 -6.08789062 34.1171875 C-6.07951172 33.00601563 -6.07113281 31.89484375 -6.0625 30.75 C-6.05798828 29.62335937 -6.05347656 28.49671875 -6.04882812 27.3359375 C-6.03705397 24.55723783 -6.0206084 21.77864591 -6 19 C-8.31 18.67 -10.62 18.34 -13 18 C-13 17.01 -13 16.02 -13 15 C-12.37351562 14.91363281 -11.74703125 14.82726562 -11.1015625 14.73828125 C-8.641932 14.31541102 -6.3562241 13.82575927 -4 13 C-2.37103044 10.89022401 -2.37103044 10.89022401 -2 8 C-1.62902137 6.56145695 -1.25382813 5.12399591 -0.875 3.6875 C-0.441875 1.8621875 -0.441875 1.8621875 0 0 Z " fill="#000000" transform="translate(402,527)"/>
<path d="M0 0 C4.62 0 9.24 0 14 0 C14.33 14.85 14.66 29.7 15 45 C16.32 45.33 17.64 45.66 19 46 C19 46.99 19 47.98 19 49 C12.73 49 6.46 49 0 49 C0 48.01 0 47.02 0 46 C2.475 45.505 2.475 45.505 5 45 C5 31.47 5 17.94 5 4 C3.35 3.67 1.7 3.34 0 3 C0 2.01 0 1.02 0 0 Z " fill="#000000" transform="translate(518,527)"/>
<path d="M0 0 C4.95 0 9.9 0 15 0 C15.33 1.32 15.66 2.64 16 4 C16.70125 3.34 17.4025 2.68 18.125 2 C21.45829619 -0.31881474 23.02642355 -0.52981019 27 0 C29 2 29 2 29.1875 4.5625 C29 7 29 7 28 8 C25.73562199 7.99097857 23.48732401 7.86737625 21.2265625 7.7421875 C18.96006952 7.81091758 18.96006952 7.81091758 17.39282227 9.23803711 C15.65708578 11.433797 15.58142184 12.67362914 15.48828125 15.44921875 C15.45283203 16.29677734 15.41738281 17.14433594 15.38085938 18.01757812 C15.34702148 19.33918945 15.34702148 19.33918945 15.3125 20.6875 C15.26125977 22.02651367 15.26125977 22.02651367 15.20898438 23.39257812 C15.12654352 25.59492671 15.05738449 27.79687938 15 30 C17.31 30.33 19.62 30.66 22 31 C22 31.99 22 32.98 22 34 C14.74 34 7.48 34 0 34 C0 33.01 0 32.02 0 31 C1.65 30.67 3.3 30.34 5 30 C4.67 21.42 4.34 12.84 4 4 C2.68 3.67 1.36 3.34 0 3 C0 2.01 0 1.02 0 0 Z " fill="#000000" transform="translate(251,479)"/>
<path d="M0 0 C1.57394531 -0.00386719 1.57394531 -0.00386719 3.1796875 -0.0078125 C6.125 0.125 6.125 0.125 10.125 1.125 C9.795 4.095 9.465 7.065 9.125 10.125 C7.805 10.125 6.485 10.125 5.125 10.125 C4.91875 9.320625 4.7125 8.51625 4.5 7.6875 C3.819375 6.4190625 3.819375 6.4190625 3.125 5.125 C0.07227535 4.22669161 0.07227535 4.22669161 -2.875 4.125 C-3.205 5.775 -3.535 7.425 -3.875 9.125 C-2.51955078 9.81335938 -2.51955078 9.81335938 -1.13671875 10.515625 C0.0549477 11.13491623 1.24633966 11.75473585 2.4375 12.375 C4.19513672 13.27992188 4.19513672 13.27992188 5.98828125 14.203125 C8.93327279 16.00752829 10.50630867 17.11551973 12.125 20.125 C12.125 25.18666511 11.94138548 27.14115083 8.6875 31.0625 C4.76162975 34.22234679 2.69364567 34.26116197 -2.3125 34.25 C-4.04306641 34.25386719 -4.04306641 34.25386719 -5.80859375 34.2578125 C-8.875 34.125 -8.875 34.125 -11.875 33.125 C-12.205 29.825 -12.535 26.525 -12.875 23.125 C-11.225 22.795 -9.575 22.465 -7.875 22.125 C-7.545 24.435 -7.215 26.745 -6.875 29.125 C-4.9878125 29.434375 -4.9878125 29.434375 -3.0625 29.75 C-2.35480469 29.86601562 -1.64710938 29.98203125 -0.91796875 30.1015625 C1.44255824 30.32077848 1.44255824 30.32077848 4.125 28.125 C4.11700472 26.22333387 4.11700472 26.22333387 3.125 24.125 C0.20317561 22.20374547 0.20317561 22.20374547 -3.3125 20.5625 C-9.67336512 17.42745232 -9.67336512 17.42745232 -11.875 14.125 C-12.54726891 7.17822129 -12.54726891 7.17822129 -10 3.1875 C-6.62613689 -0.08713184 -4.6087143 -0.01126825 0 0 Z " fill="#000000" transform="translate(294.875,478.875)"/>
<path d="M0 0 C1.32 0 2.64 0 4 0 C4 4.95 4 9.9 4 15 C6.64 15 9.28 15 12 15 C12 15.99 12 16.98 12 18 C8.04 18.495 8.04 18.495 4 19 C4.33 26.92 4.66 34.84 5 43 C9.64045375 44.09805807 9.64045375 44.09805807 13 44 C13 44.99 13 45.98 13 47 C9.73520707 48.93726484 7.21420339 49.29708488 3.4375 49.3125 C2.48746094 49.32925781 1.53742188 49.34601562 0.55859375 49.36328125 C-2 49 -2 49 -3.64160156 47.86474609 C-5.61009307 45.16249265 -5.33964894 43.11507449 -5.29296875 39.80078125 C-5.28330078 38.59228516 -5.27363281 37.38378906 -5.26367188 36.13867188 C-5.23853516 34.87603516 -5.21339844 33.61339844 -5.1875 32.3125 C-5.17396484 31.03826172 -5.16042969 29.76402344 -5.14648438 28.45117188 C-5.11108199 25.30035943 -5.0616979 22.15038955 -5 19 C-7.31 18.67 -9.62 18.34 -12 18 C-12 17.01 -12 16.02 -12 15 C-10.741875 14.649375 -9.48375 14.29875 -8.1875 13.9375 C-4.56644157 12.58760013 -4.11048167 12.19245195 -2.0625 8.625 C-1.21812548 5.74419282 -0.44937212 2.96585602 0 0 Z " fill="#000000" transform="translate(342,464)"/>
<path d="M0 0 C5.61 0 11.22 0 17 0 C16.67 0.99 16.34 1.98 16 3 C14.68 3 13.36 3 12 3 C13.98 8.28 15.96 13.56 18 19 C18.804375 17.081875 19.60875 15.16375 20.4375 13.1875 C20.88996094 12.10855469 21.34242188 11.02960938 21.80859375 9.91796875 C22.60375013 7.9704874 23.33479648 5.99561057 24 4 C23.01 3.67 22.02 3.34 21 3 C21 2.01 21 1.02 21 0 C24.96 0 28.92 0 33 0 C32.67 0.99 32.34 1.98 32 3 C31.34 3 30.68 3 30 3 C29.60167969 4.24652344 29.20335937 5.49304688 28.79296875 6.77734375 C26.89184256 12.48072233 24.61576004 18.01190045 22.3125 23.5625 C21.89677734 24.57119141 21.48105469 25.57988281 21.05273438 26.61914062 C20.03784021 29.0805506 19.02021747 31.54079283 18 34 C16.35 34 14.7 34 13 34 C11.42920342 29.90818124 9.86273669 25.81473984 8.30029297 21.71972656 C7.7679579 20.32636632 7.23443423 18.9334596 6.69970703 17.54101562 C5.93210244 15.54154094 5.16876212 13.54048383 4.40625 11.5390625 C3.94541016 10.33459473 3.48457031 9.13012695 3.00976562 7.88916016 C2 5 2 5 2 3 C1.34 3 0.68 3 0 3 C0 2.01 0 1.02 0 0 Z " fill="#000000" transform="translate(184,479)"/>
<path d="M0 0 C4.62 0 9.24 0 14 0 C14.33 1.65 14.66 3.3 15 5 C15.61875 4.360625 16.2375 3.72125 16.875 3.0625 C19.50133791 0.51340732 20.3333059 0.04166838 24 -0.1875 C27 0 27 0 29 2 C28.625 5.125 28.625 5.125 28 8 C26.96939453 7.93039062 26.96939453 7.93039062 25.91796875 7.859375 C25.01691406 7.82328125 24.11585938 7.7871875 23.1875 7.75 C22.29417969 7.70359375 21.40085937 7.6571875 20.48046875 7.609375 C17.9488346 7.79651578 17.9488346 7.79651578 16.21875 9.4375 C14.385679 13.29164927 14.42789811 17.02972621 14.3125 21.25 C14.27833984 22.09046875 14.24417969 22.9309375 14.20898438 23.796875 C14.12676432 25.86412204 14.06169843 27.93203874 14 30 C16.64 30.33 19.28 30.66 22 31 C22 31.99 22 32.98 22 34 C14.74 34 7.48 34 0 34 C0 33.01 0 32.02 0 31 C1.32 30.67 2.64 30.34 4 30 C4.33 21.42 4.66 12.84 5 4 C3.35 3.67 1.7 3.34 0 3 C0 2.01 0 1.02 0 0 Z " fill="#000000" transform="translate(417,542)"/>
<path d="M0 0 C4.62 0 9.24 0 14 0 C14 9.9 14 19.8 14 30 C15.65 30.33 17.3 30.66 19 31 C19 31.99 19 32.98 19 34 C12.4 34 5.8 34 -1 34 C-1 33.01 -1 32.02 -1 31 C0.65 30.67 2.3 30.34 4 30 C3.67 21.42 3.34 12.84 3 4 C2.01 3.67 1.02 3.34 0 3 C0 2.01 0 1.02 0 0 Z " fill="#000000" transform="translate(311,479)"/>
<path d="M0 0 C4.62 0 9.24 0 14 0 C14 9.9 14 19.8 14 30 C15.65 30.33 17.3 30.66 19 31 C19 31.99 19 32.98 19 34 C12.73 34 6.46 34 0 34 C0 33.01 0 32.02 0 31 C1.65 30.67 3.3 30.34 5 30 C5 21.42 5 12.84 5 4 C3.35 3.67 1.7 3.34 0 3 C0 2.01 0 1.02 0 0 Z " fill="#000000" transform="translate(165,479)"/>
<path d="M0 0 C2 2 2 2 2.4375 4.4375 C2 7 2 7 -0.1875 8.9375 C-3 10 -3 10 -5.75 9.25 C-8 8 -8 8 -9 7 C-9.3125 4.625 -9.3125 4.625 -9 2 C-6.07557433 -1.24936186 -4.04996841 -1.38551551 0 0 Z " fill="#12100B" transform="translate(178,464)"/>
<path d="M0 0 C0.99 0.33 1.98 0.66 3 1 C4.1875 3.5625 4.1875 3.5625 5 6 C3.09392715 7.06092734 1.17467254 8.09820101 -0.75 9.125 C-1.81734375 9.70507812 -2.8846875 10.28515625 -3.984375 10.8828125 C-7 12 -7 12 -9.390625 11.1796875 C-9.92171875 10.79039062 -10.4528125 10.40109375 -11 10 C-11 9.34 -11 8.68 -11 8 C-8.69921875 6.01953125 -8.69921875 6.01953125 -5.6875 3.8125 C-4.70136719 3.07644531 -3.71523438 2.34039062 -2.69921875 1.58203125 C-1.36310547 0.79892578 -1.36310547 0.79892578 0 0 Z " fill="#12100B" transform="translate(381,464)"/>
<path d="M0 0 C1.9375 0.75 1.9375 0.75 4 2 C4.75 4.125 4.75 4.125 5 6 C3.25877451 7.03572896 1.50663405 8.0531252 -0.25 9.0625 C-1.22453125 9.63097656 -2.1990625 10.19945312 -3.203125 10.78515625 C-6 12 -6 12 -8.359375 11.68359375 C-8.90078125 11.45800781 -9.4421875 11.23242188 -10 11 C-9.64701919 8.0991395 -9.11271704 7.10483324 -6.93359375 5.078125 C-6.10988281 4.47484375 -5.28617187 3.8715625 -4.4375 3.25 C-3.61121094 2.63640625 -2.78492188 2.0228125 -1.93359375 1.390625 C-1.29550781 0.93171875 -0.65742188 0.4728125 0 0 Z " fill="#000000" transform="translate(470,527)"/>
<path d="M0 0 C1 1 1 1 1.3125 3.375 C1 6 1 6 -0.625 7.9375 C-3 9 -3 9 -6.25 8.1875 C-7.61125 7.5996875 -7.61125 7.5996875 -9 7 C-9.625 4.6875 -9.625 4.6875 -10 2 C-6.8384898 -2.74226531 -4.75481356 -2.25228011 0 0 Z " fill="#12100B" transform="translate(324,465)"/>
</svg>
