<?xml version="1.0" encoding="UTF-8"?>
<svg version="1.1" xmlns="http://www.w3.org/2000/svg" width="160" height="160">
<path d="M0 0 C7.92 0 15.84 0 24 0 C24 1.65 24 3.3 24 5 C25.65 5 27.3 5 29 5 C29 13.58 29 22.16 29 31 C27.02 31.495 27.02 31.495 25 32 C24.96261719 33.02738281 24.92523438 34.05476563 24.88671875 35.11328125 C24.25521113 49.60638105 22.54513182 58.38583295 12 69 C10.7008243 70.51442375 9.40887625 72.03508434 8.125 73.5625 C1.72676157 80.7525364 -6.4525851 89.30823269 -16.52514648 90.23144531 C-19.33582995 90.29427617 -22.12721275 90.26241538 -24.9375 90.1875 C-26.3925293 90.16719727 -26.3925293 90.16719727 -27.87695312 90.14648438 C-30.25189129 90.11138677 -32.62564378 90.06222275 -35 90 C-35.01458252 90.61931396 -35.02916504 91.23862793 -35.04418945 91.87670898 C-35.11947417 94.73087773 -35.21586314 97.58397749 -35.3125 100.4375 C-35.33505859 101.41138672 -35.35761719 102.38527344 -35.38085938 103.38867188 C-36.03042449 121.0450326 -45.88919129 132.02851346 -57.984375 143.95703125 C-64.79353775 150.12588282 -71.94666871 153.00307197 -81.078125 153.31640625 C-82.81835938 153.37924805 -82.81835938 153.37924805 -84.59375 153.44335938 C-85.8003125 153.48267578 -87.006875 153.52199219 -88.25 153.5625 C-89.47203125 153.60568359 -90.6940625 153.64886719 -91.953125 153.69335938 C-94.9686392 153.79937355 -97.98423448 153.90143936 -101 154 C-101 155.98 -101 157.96 -101 160 C-108.92 160 -116.84 160 -125 160 C-125 157.69 -125 155.38 -125 153 C-126.98 153 -128.96 153 -131 153 C-131 144.42 -131 135.84 -131 127 C-129.02 127 -127.04 127 -125 127 C-125.03480469 125.74445313 -125.06960937 124.48890625 -125.10546875 123.1953125 C-125.53616546 101.74833033 -125.53616546 101.74833033 -118.375 93.4375 C-117.12693809 92.15254956 -115.87652085 90.86963169 -114.60498047 89.60791016 C-112.67704841 87.6764589 -110.79583861 85.70317598 -108.91015625 83.73046875 C-107.4207612 82.19386651 -105.92986374 80.65871918 -104.4375 79.125 C-103.37571533 78.01789673 -103.37571533 78.01789673 -102.29248047 76.88842773 C-92.05004292 66.54045916 -81.91326014 65.20688645 -67.703125 64.9375 C-65.13454722 64.9375 -62.56812552 64.9536811 -60 65 C-60.33 64.01 -60.66 63.02 -61 62 C-61.86814805 51.65287272 -62.66068199 40.07718828 -57 31 C-56.50242187 30.17757813 -56.00484375 29.35515625 -55.4921875 28.5078125 C-48.35719258 17.58961097 -39.40474476 8.46841156 -26.41040039 5.3815918 C-21.47133556 4.59968576 -16.48632443 4.79746146 -11.5 4.875 C-10.39140625 4.88402344 -9.2828125 4.89304687 -8.140625 4.90234375 C-5.42685408 4.92573833 -2.71354455 4.95851825 0 5 C0 3.35 0 1.7 0 0 Z M-27 30 C-21.53525716 37.52653227 -15.66415539 44.50244849 -9 51 C-7.72783386 52.26949913 -6.45706059 53.5403952 -5.1875 54.8125 C-4.58292969 55.41707031 -3.97835937 56.02164063 -3.35546875 56.64453125 C-2.90816406 57.09183594 -2.46085937 57.53914063 -2 58 C1.1649651 52.63893666 1.02999742 47.00495229 0 41 C-2.07509375 36.03858605 -4.41260233 32.85662126 -9 30 C-14.94867582 28.74165174 -21.00623544 29.35988922 -27 30 Z M-37 34 C-37.0342909 36.12603553 -37.05601485 38.25290722 -37.01953125 40.37890625 C-37 43 -37 43 -37.19921875 45.40234375 C-37.32613211 51.42584694 -34.93073826 55.26950323 -30.9375 59.625 C-26.78562682 63.83439446 -23.38568341 65.6494692 -17.43579102 65.82177734 C-14.25161238 65.71721479 -11.15729739 65.43272604 -8 65 C-12.00454543 60.23586627 -12.00454543 60.23586627 -16.3125 55.75 C-18 54 -18 54 -19 51 C-20.55976028 49.45744758 -20.55976028 49.45744758 -22.5 47.9375 C-26.83291019 44.28625923 -30.50327043 40.21321705 -34.21484375 35.94140625 C-34.80394531 35.30074219 -35.39304687 34.66007812 -36 34 C-36.33 34 -36.66 34 -37 34 Z M-85.6796875 90.2578125 C-87.4594999 90.45416191 -89.23187863 90.71710058 -91 91 C-86.33477149 96.62219846 -81.48740595 102.16010796 -76 107 C-75.34 107 -74.68 107 -74 107 C-73.67 107.99 -73.34 108.98 -73 110 C-71.31097201 111.75013338 -71.31097201 111.75013338 -69.25 113.4375 C-68.23679687 114.30181641 -68.23679687 114.30181641 -67.203125 115.18359375 C-64.82142783 117.14722706 -62.41570856 119.07841364 -60 121 C-59.94099253 116.33185358 -59.95457937 111.66823116 -60 107 C-59.98066406 106.20980469 -59.96132812 105.41960937 -59.94140625 104.60546875 C-60.10685921 99.18964182 -62.74863574 95.50886306 -66.35546875 91.7265625 C-72.19709443 87.91267985 -79.08096227 89.62294972 -85.6796875 90.2578125 Z M-100 96 C-100.28330652 97.55818588 -100.54335022 99.12221393 -100.7265625 100.6953125 C-101 103 -101 103 -101.5234375 105.6796875 C-102.24804036 111.75024921 -101.13803313 115.74055822 -97.41137695 120.48120117 C-92.96918706 125.3954882 -89.20453126 128.21935317 -82.4609375 128.81640625 C-77.27502039 128.94450775 -72.14816803 128.61696241 -67 128 C-67.94389643 126.87531733 -68.89116816 125.75346686 -69.83984375 124.6328125 C-70.36698975 124.00777832 -70.89413574 123.38274414 -71.43725586 122.73876953 C-73.42053215 120.53209968 -75.65166696 118.80641003 -78 117 C-79.68321146 115.34756023 -81.34526363 113.68062022 -83 112 C-85.74708175 109.22626136 -88.4982329 106.45658937 -91.25 103.6875 C-91.9821875 102.94693359 -92.714375 102.20636719 -93.46875 101.44335938 C-94.51289062 100.39438477 -94.51289062 100.39438477 -95.578125 99.32421875 C-96.21137695 98.68572998 -96.84462891 98.04724121 -97.49707031 97.3894043 C-98.78125531 95.8868617 -98.78125531 95.8868617 -100 96 Z M-102 126 C-102 126.66 -102 127.32 -102 128 C-101.34 127.67 -100.68 127.34 -100 127 C-100.66 126.67 -101.32 126.34 -102 126 Z " fill="#E427D3" transform="translate(131,0)"/>
<path d="M0 0 C7.92 0 15.84 0 24 0 C23.896875 3.444375 23.79375 6.88875 23.6875 10.4375 C23.66260498 11.50411865 23.63770996 12.5707373 23.61206055 13.66967773 C22.9466792 31.16872158 12.98996102 42.14769592 1.015625 53.95703125 C-5.79353775 60.12588282 -12.94666871 63.00307197 -22.078125 63.31640625 C-23.23828125 63.35830078 -24.3984375 63.40019531 -25.59375 63.44335938 C-26.8003125 63.48267578 -28.006875 63.52199219 -29.25 63.5625 C-30.47203125 63.60568359 -31.6940625 63.64886719 -32.953125 63.69335938 C-35.9686392 63.79937355 -38.98423448 63.90143936 -42 64 C-42 65.98 -42 67.96 -42 70 C-49.92 70 -57.84 70 -66 70 C-66 67.69 -66 65.38 -66 63 C-67.98 63 -69.96 63 -72 63 C-72 54.42 -72 45.84 -72 37 C-69.03257813 37.08378906 -66.06515625 37.16757813 -63.0078125 37.25390625 C-60.06856436 37.33176015 -57.12926117 37.40708219 -54.18994141 37.48217773 C-52.17880297 37.53488321 -50.16772934 37.59013629 -48.15673828 37.64819336 C-35.37199865 38.01520411 -22.75763286 37.95597515 -10 37 C-10.7734375 36.05253906 -11.546875 35.10507813 -12.34375 34.12890625 C-12.77880859 33.59595947 -13.21386719 33.0630127 -13.66210938 32.51391602 C-15.54937923 30.3783393 -17.75144377 28.74263108 -20 27 C-21.68816933 25.35511706 -23.35353315 23.68662458 -25 22 C-25.52078125 21.51273438 -26.0415625 21.02546875 -26.578125 20.5234375 C-29.71673311 17.55242497 -31.73793774 15.24511851 -33 11 C-33.495 9.515 -33.495 9.515 -34 8 C-32.35 8 -30.7 8 -29 8 C-29.495 5.525 -29.495 5.525 -30 3 C-29.34 3.66 -28.68 4.32 -28 5 C-27.31357422 5.68449219 -27.31357422 5.68449219 -26.61328125 6.3828125 C-25.4597124 7.53917449 -24.31190691 8.70129744 -23.16796875 9.8671875 C-19.30268931 13.78583371 -15.36249748 17.51955901 -11.15234375 21.06640625 C-7.98095163 23.91547903 -5.01454339 26.98545661 -2 30 C-2 23.4 -2 16.8 -2 10 C-1.34 10 -0.68 10 0 10 C2.12369083 12.52498273 4.05977296 15.16455427 6.02734375 17.8125 C6.67832031 18.534375 7.32929687 19.25625 8 20 C8.99 20 9.98 20 11 20 C10.54099495 14.88258203 7.92951469 11.71740325 4.9375 7.75 C0 1.09481583 0 1.09481583 0 0 Z " fill="#077081" transform="translate(72,90)"/>
<path d="M0 0 C7.92 0 15.84 0 24 0 C24 1.65 24 3.3 24 5 C25.65 5 27.3 5 29 5 C29 13.58 29 22.16 29 31 C10.85 31 -7.3 31 -26 31 C-22.37 34.96 -18.74 38.92 -15 43 C-14.67 43.99 -14.34 44.98 -14 46 C-15.4375 48.1875 -15.4375 48.1875 -17 50 C-16.42636719 50.23976562 -15.85273437 50.47953125 -15.26171875 50.7265625 C-12.54528082 52.25602496 -10.87643544 54.04387591 -8.8125 56.375 C-8.11769531 57.14585938 -7.42289063 57.91671875 -6.70703125 58.7109375 C-5.06503662 60.91278842 -4.40998052 62.31982886 -4 65 C-8.85049199 64.56301874 -10.96627538 62.54558517 -14.3125 59.125 C-15.19550781 58.24070313 -16.07851562 57.35640625 -16.98828125 56.4453125 C-19 54 -19 54 -19 51 C-19.86818359 50.62101562 -19.86818359 50.62101562 -20.75390625 50.234375 C-23.2669215 48.85330923 -24.93423218 47.29690336 -26.9375 45.25 C-27.58589844 44.59515625 -28.23429687 43.9403125 -28.90234375 43.265625 C-31.36959672 40.60080802 -33.67510032 37.78987961 -36 35 C-36 40.61 -36 46.22 -36 52 C-39.91857739 50.04071131 -41.64494659 48.41416393 -44.4375 45.2421875 C-46.18916538 43.58512958 -46.18916538 43.58512958 -50 44 C-49.55657824 48.87763931 -47.43944151 51.13763111 -44.125 54.625 C-43.24070312 55.56601562 -42.35640625 56.50703125 -41.4453125 57.4765625 C-40.05108337 58.91533569 -38.639543 60.33879864 -37.1796875 61.7109375 C-36 63 -36 63 -36 65 C-43.92 65 -51.84 65 -60 65 C-62.78088272 56.65735185 -62.52726568 43.5254669 -59.4375 35.3125 C-58.3203125 33.1171875 -58.3203125 33.1171875 -57 31 C-56.25363281 29.76636719 -56.25363281 29.76636719 -55.4921875 28.5078125 C-48.35719258 17.58961097 -39.40474476 8.46841156 -26.41040039 5.3815918 C-21.47133556 4.59968576 -16.48632443 4.79746146 -11.5 4.875 C-10.39140625 4.88402344 -9.2828125 4.89304687 -8.140625 4.90234375 C-5.42685408 4.92573833 -2.71354455 4.95851825 0 5 C0 3.35 0 1.7 0 0 Z " fill="#4ACBD7" transform="translate(131,0)"/>
<path d="M0 0 C3.89533465 0.11804044 5.69793848 1.44447477 8.3125 4.125 C8.90546875 4.75535156 9.4984375 5.38570312 10.109375 6.03515625 C12.56160385 8.58365028 15.21452659 10.843605 17.91015625 13.12890625 C20 15 20 15 21.234375 16.53710938 C23.38390562 19.08704275 24.92663366 20.7713258 28.26098633 21.48168945 C30.82399115 21.58937449 33.31442828 21.52539503 35.875 21.375 C36.75414062 21.34792969 37.63328125 21.32085937 38.5390625 21.29296875 C40.69377601 21.22270635 42.84721593 21.11509935 45 21 C43.068003 17.62048231 41.01438021 14.66638279 38.4375 11.75 C37.83808594 11.06421875 37.23867187 10.3784375 36.62109375 9.671875 C35.08772218 7.90602018 35.08772218 7.90602018 33 7 C33.66 5.68 34.32 4.36 35 3 C38.58621852 3.56254408 40.0145244 4.73584797 42.3125 7.5 C42.90804687 8.21414062 43.50359375 8.92828125 44.1171875 9.6640625 C44.73851562 10.43492188 45.35984375 11.20578125 46 12 C46.66257813 12.81210937 47.32515625 13.62421875 48.0078125 14.4609375 C53 20.7062247 53 20.7062247 53 23 C53.61488281 22.855625 54.22976562 22.71125 54.86328125 22.5625 C55.67152344 22.376875 56.47976562 22.19125 57.3125 22 C58.11300781 21.814375 58.91351563 21.62875 59.73828125 21.4375 C62 21 62 21 65 21 C63.54782324 22.50596108 62.08807139 24.00462104 60.625 25.5 C59.81289062 26.3353125 59.00078125 27.170625 58.1640625 28.03125 C56 30 56 30 54 30 C53.74863281 30.58652344 53.49726563 31.17304687 53.23828125 31.77734375 C50.3270787 37.00281457 44.31655355 41.41356854 39 44 C34.04153702 45.39015018 28.99063437 45.125781 23.88671875 45.09765625 C22.91716751 45.0962413 21.94761627 45.09482635 20.94868469 45.09336853 C17.86159133 45.08778513 14.77457133 45.07523564 11.6875 45.0625 C9.59049584 45.05748286 7.49349054 45.05292032 5.39648438 45.04882812 C0.26429479 45.03782112 -4.86784018 45.02056788 -10 45 C-9.37377674 40.28718579 -8.82452533 38.01326238 -5 35 C-4.34 35 -3.68 35 -3 35 C-2.86271484 34.12601563 -2.86271484 34.12601563 -2.72265625 33.234375 C-1.41723886 29.19816557 1.97220159 26.86264577 5 24 C0.05 23.67 -4.9 23.34 -10 23 C-10 22.67 -10 22.34 -10 22 C-2.08 22 5.84 22 14 22 C14 21.34 14 20.68 14 20 C13.01 19.67 12.02 19.34 11 19 C9.12800199 17.14131003 7.48469785 15.14533149 5.7890625 13.125 C4.69372667 11.82398976 3.56919477 10.54607839 2.3984375 9.3125 C1 7.8125 1 7.8125 -1 5 C-0.8125 2.125 -0.8125 2.125 0 0 Z " fill="#BD62CC" transform="translate(81,43)"/>
<path d="M0 0 C7.92 0 15.84 0 24 0 C23.896875 3.444375 23.79375 6.88875 23.6875 10.4375 C23.66260498 11.50411865 23.63770996 12.5707373 23.61206055 13.66967773 C23.33874327 20.85772271 22.97584177 28.07782095 17.6171875 33.33984375 C16.71226563 33.86707031 15.80734375 34.39429688 14.875 34.9375 C13.54082031 35.75541016 13.54082031 35.75541016 12.1796875 36.58984375 C4.355463 40.05980081 -3.58006316 40.32270947 -12.03515625 40.4140625 C-13.15442001 40.43342865 -14.27368378 40.4527948 -15.42686462 40.4727478 C-18.97200095 40.53212223 -22.5171705 40.57875971 -26.0625 40.625 C-28.47852912 40.66321857 -30.89454518 40.70227252 -33.31054688 40.7421875 C-39.20691458 40.83778878 -45.10336215 40.92295739 -51 41 C-51.33 41.66 -51.66 42.32 -52 43 C-53.32 43 -54.64 43 -56 43 C-56.09796875 43.90363281 -56.1959375 44.80726563 -56.296875 45.73828125 C-56.44640625 46.91777344 -56.5959375 48.09726563 -56.75 49.3125 C-56.88921875 50.48425781 -57.0284375 51.65601563 -57.171875 52.86328125 C-58 56 -58 56 -59.890625 57.91796875 C-62 59 -62 59 -65 59 C-65 60.32 -65 61.64 -65 63 C-67.31 63 -69.62 63 -72 63 C-72 54.42 -72 45.84 -72 37 C-69.03257813 37.08378906 -66.06515625 37.16757813 -63.0078125 37.25390625 C-60.06856436 37.33176015 -57.12926117 37.40708219 -54.18994141 37.48217773 C-52.17880297 37.53488321 -50.16772934 37.59013629 -48.15673828 37.64819336 C-35.37199865 38.01520411 -22.75763286 37.95597515 -10 37 C-10.7734375 36.05253906 -11.546875 35.10507813 -12.34375 34.12890625 C-12.77880859 33.59595947 -13.21386719 33.0630127 -13.66210938 32.51391602 C-15.54937923 30.3783393 -17.75144377 28.74263108 -20 27 C-21.68816933 25.35511706 -23.35353315 23.68662458 -25 22 C-25.52078125 21.51273438 -26.0415625 21.02546875 -26.578125 20.5234375 C-29.71673311 17.55242497 -31.73793774 15.24511851 -33 11 C-33.495 9.515 -33.495 9.515 -34 8 C-32.35 8 -30.7 8 -29 8 C-29.495 5.525 -29.495 5.525 -30 3 C-29.34 3.66 -28.68 4.32 -28 5 C-27.31357422 5.68449219 -27.31357422 5.68449219 -26.61328125 6.3828125 C-25.4597124 7.53917449 -24.31190691 8.70129744 -23.16796875 9.8671875 C-19.30268931 13.78583371 -15.36249748 17.51955901 -11.15234375 21.06640625 C-7.98095163 23.91547903 -5.01454339 26.98545661 -2 30 C-2 23.4 -2 16.8 -2 10 C-1.34 10 -0.68 10 0 10 C2.12369083 12.52498273 4.05977296 15.16455427 6.02734375 17.8125 C6.67832031 18.534375 7.32929687 19.25625 8 20 C8.99 20 9.98 20 11 20 C10.54099495 14.88258203 7.92951469 11.71740325 4.9375 7.75 C0 1.09481583 0 1.09481583 0 0 Z " fill="#1194B6" transform="translate(72,90)"/>
<path d="M0 0 C-4.03061546 4.71667767 -8.14940704 9.24718616 -12.6171875 13.5546875 C-14.10854485 14.97109777 -14.10854485 14.97109777 -15 17 C-16.65 17 -18.3 17 -20 17 C-19.67 18.65 -19.34 20.3 -19 22 C-20.98 22.66 -22.96 23.32 -25 24 C-24.37351562 23.98839844 -23.74703125 23.97679688 -23.1015625 23.96484375 C-22.28429687 23.95582031 -21.46703125 23.94679688 -20.625 23.9375 C-19.81289063 23.92589844 -19.00078125 23.91429688 -18.1640625 23.90234375 C-16 24 -16 24 -14 25 C-14 25.66 -14 26.32 -14 27 C-12.35 27.33 -10.7 27.66 -9 28 C-9.495 26.02 -9.495 26.02 -10 24 C-8 25.8125 -8 25.8125 -6 28 C-6 28.99 -6 29.98 -6 31 C-7.65 31 -9.3 31 -11 31 C-10.484375 31.598125 -9.96875 32.19625 -9.4375 32.8125 C-8.963125 33.534375 -8.48875 34.25625 -8 35 C-8.33 35.99 -8.66 36.98 -9 38 C-11.64 35.36 -14.28 32.72 -17 30 C-17.58601101 32.48473838 -17.58601101 32.48473838 -18 36 C-18.17273438 36.86238281 -18.34546875 37.72476563 -18.5234375 38.61328125 C-19.02478197 42.81900428 -19.27384193 46.2072934 -16.71972656 49.80175781 C-13.12240397 53.8723552 -9.05985666 57.40301161 -5 61 C-5 61.33 -5 61.66 -5 62 C-6.95803507 62.05389087 -8.91648909 62.09274217 -10.875 62.125 C-11.96554688 62.14820313 -13.05609375 62.17140625 -14.1796875 62.1953125 C-17 62 -17 62 -19 60 C-19.33 60.33 -19.66 60.66 -20 61 C-21.70772358 61.08713831 -23.41898649 61.10700007 -25.12890625 61.09765625 C-26.68061523 61.09282227 -26.68061523 61.09282227 -28.26367188 61.08789062 C-29.35228516 61.07951172 -30.44089844 61.07113281 -31.5625 61.0625 C-33.2012207 61.05573242 -33.2012207 61.05573242 -34.87304688 61.04882812 C-37.58208495 61.03699826 -40.29101599 61.02051543 -43 61 C-43.73807921 34.99690156 -43.73807921 34.99690156 -36.375 26.4375 C-35.12693809 25.15254956 -33.87652085 23.86963169 -32.60498047 22.60791016 C-30.67704841 20.6764589 -28.79583861 18.70317598 -26.91015625 16.73046875 C-25.4207612 15.19386651 -23.92986374 13.65871918 -22.4375 12.125 C-21.72964355 11.38693115 -21.02178711 10.6488623 -20.29248047 9.88842773 C-15.94342923 5.49456687 -6.82504166 -3.41252083 0 0 Z " fill="#BB20B2" transform="translate(49,67)"/>
<path d="M0 0 C9.48644279 -0.82578377 9.48644279 -0.82578377 13.40039062 1.78662109 C17.96623403 5.82787286 22.61058937 10.7223931 24.5546875 16.5546875 C23.1171875 18.7421875 23.1171875 18.7421875 21.5546875 20.5546875 C22.12832031 20.79445313 22.70195313 21.03421875 23.29296875 21.28125 C26.00940668 22.81071246 27.67825206 24.59856341 29.7421875 26.9296875 C30.43699219 27.70054688 31.13179687 28.47140625 31.84765625 29.265625 C33.48965088 31.46747592 34.14470698 32.87451636 34.5546875 35.5546875 C29.70419551 35.11770624 27.58841212 33.10027267 24.2421875 29.6796875 C23.35917969 28.79539062 22.47617188 27.91109375 21.56640625 27 C19.5546875 24.5546875 19.5546875 24.5546875 19.5546875 21.5546875 C18.97589844 21.30203125 18.39710937 21.049375 17.80078125 20.7890625 C15.287766 19.40799673 13.62045532 17.85159086 11.6171875 15.8046875 C10.64458984 14.82242188 10.64458984 14.82242188 9.65234375 13.8203125 C7.18509078 11.15549552 4.87958718 8.34456711 2.5546875 5.5546875 C2.5546875 11.1646875 2.5546875 16.7746875 2.5546875 22.5546875 C-1.36388989 20.59539881 -3.09025909 18.96885143 -5.8828125 15.796875 C-7.63447788 14.13981708 -7.63447788 14.13981708 -11.4453125 14.5546875 C-11.00189074 19.43232681 -8.88475401 21.69231861 -5.5703125 25.1796875 C-4.68601562 26.12070312 -3.80171875 27.06171875 -2.890625 28.03125 C-1.49639587 29.47002319 -0.0848555 30.89348614 1.375 32.265625 C2.5546875 33.5546875 2.5546875 33.5546875 2.5546875 35.5546875 C-5.0353125 35.5546875 -12.6253125 35.5546875 -20.4453125 35.5546875 C-20.58047262 31.51189824 -20.67952798 27.47364196 -20.7578125 23.4296875 C-20.79970703 22.28757812 -20.84160156 21.14546875 -20.88476562 19.96875 C-21.0229138 10.46415555 -21.0229138 10.46415555 -18.109375 6.86328125 C-12.43475559 1.94583246 -7.19018695 1.1576038 0 0 Z " fill="#067096" transform="translate(92.4453125,29.4453125)"/>
<path d="M0 0 C7.92 0 15.84 0 24 0 C24 1.65 24 3.3 24 5 C25.65 5 27.3 5 29 5 C29 12.92 29 20.84 29 29 C15.62217573 29.1021208 2.35607738 28.74421924 -11 28 C-11 27.34 -11 26.68 -11 26 C-10.29875 25.814375 -9.5975 25.62875 -8.875 25.4375 C-3.1719066 22.5859533 -0.11943862 18.0270004 1.875 12.0625 C2.26696582 10.71314639 2.64832896 9.36041164 3 8 C5.64 7.67 8.28 7.34 11 7 C5.555 6.505 5.555 6.505 0 6 C0 4.02 0 2.04 0 0 Z " fill="#327A9B" transform="translate(131,0)"/>
<path d="M0 0 C0.66 0.33 1.32 0.66 2 1 C0.54782324 2.50596108 -0.91192861 4.00462104 -2.375 5.5 C-3.59316406 6.75296875 -3.59316406 6.75296875 -4.8359375 8.03125 C-7 10 -7 10 -9 10 C-9.37705078 10.87978516 -9.37705078 10.87978516 -9.76171875 11.77734375 C-12.6729213 17.00281457 -18.68344645 21.41356854 -24 24 C-27.3428254 24.80580677 -30.43023517 25.11980493 -33.86328125 25.09765625 C-35.19262695 25.09282227 -35.19262695 25.09282227 -36.54882812 25.08789062 C-37.46083984 25.07951172 -38.37285156 25.07113281 -39.3125 25.0625 C-40.24384766 25.05798828 -41.17519531 25.05347656 -42.13476562 25.04882812 C-44.42324373 25.03709234 -46.71158808 25.02067363 -49 25 C-49.0809723 22.56183415 -49.14046972 20.12635616 -49.1875 17.6875 C-49.21263672 16.99720703 -49.23777344 16.30691406 -49.26367188 15.59570312 C-49.33894291 10.40200205 -49.33894291 10.40200205 -47.48828125 8.20703125 C-46.99714844 7.80871094 -46.50601563 7.41039063 -46 7 C-46 6.01 -46 5.02 -46 4 C-44.88310791 3.96241577 -44.88310791 3.96241577 -43.74365234 3.92407227 C-22.62912224 4.57809857 -22.62912224 4.57809857 -2.2734375 0.90234375 C-1.52320313 0.60457031 -0.77296875 0.30679688 0 0 Z " fill="#931D99" transform="translate(144,63)"/>
<path d="M0 0 C-2.39376331 2.40168968 -4.78465747 4.79662094 -7.25 7.125 C-9.22443723 8.97977175 -9.22443723 8.97977175 -10 12 C-11.2065625 12.8971875 -11.2065625 12.8971875 -12.4375 13.8125 C-15.42403685 16.36198268 -16.06193758 18.24775032 -17 22 C-24.56378017 22.93938295 -32.00907505 23.12265008 -39.625 23.0625 C-40.72457031 23.05798828 -41.82414062 23.05347656 -42.95703125 23.04882812 C-45.63808003 23.03717139 -48.31900932 23.02081017 -51 23 C-51 19 -51 19 -49.43945312 16.98535156 C-48.72724609 16.2940918 -48.01503906 15.60283203 -47.28125 14.890625 C-46.51425781 14.13652344 -45.74726562 13.38242188 -44.95703125 12.60546875 C-44.14621094 11.82816406 -43.33539063 11.05085938 -42.5 10.25 C-41.68917969 9.45722656 -40.87835938 8.66445312 -40.04296875 7.84765625 C-38.0373034 5.88918302 -36.02291202 3.94062837 -34 2 C-34.66 1.34 -35.32 0.68 -36 0 C-23.99946567 -1.81140141 -12.04999262 -0.79108979 0 0 Z " fill="#EC63D9" transform="translate(88,66)"/>
<path d="M0 0 C0.33 0 0.66 0 1 0 C1.36962166 6.55736204 1.68205164 13.30284274 -2 19 C-11.5453546 27.37816719 -21.8338548 28.28223358 -34.03515625 28.4140625 C-35.15442001 28.43342865 -36.27368378 28.4527948 -37.42686462 28.4727478 C-40.97200095 28.53212223 -44.5171705 28.57875971 -48.0625 28.625 C-50.47852912 28.66321857 -52.89454518 28.70227252 -55.31054688 28.7421875 C-61.20691458 28.83778878 -67.10336215 28.92295739 -73 29 C-73.33 29.66 -73.66 30.32 -74 31 C-75.32 31 -76.64 31 -78 31 C-78.09796875 31.90363281 -78.1959375 32.80726563 -78.296875 33.73828125 C-78.44640625 34.91777344 -78.5959375 36.09726563 -78.75 37.3125 C-78.88921875 38.48425781 -79.0284375 39.65601563 -79.171875 40.86328125 C-80 44 -80 44 -81.890625 45.91796875 C-84 47 -84 47 -87 47 C-87 48.32 -87 49.64 -87 51 C-89.31 51 -91.62 51 -94 51 C-94 42.42 -94 33.84 -94 25 C-91.20660156 25.08378906 -88.41320312 25.16757813 -85.53515625 25.25390625 C-62.63828465 25.90195582 -39.88484696 26.05699806 -17 25 C-16.86078125 24.23945312 -16.7215625 23.47890625 -16.578125 22.6953125 C-15.63397434 18.29352902 -14.27765559 15.00140574 -10.6875 12.1875 C-7.77385396 10.900075 -5.1552731 10.36689222 -2 10 C-1.34 6.7 -0.68 3.4 0 0 Z " fill="#4AC6D4" transform="translate(94,102)"/>
<path d="M0 0 C0 0.33 0 0.66 0 1 C-4.95 1 -9.9 1 -15 1 C-15.33 1.99 -15.66 2.98 -16 4 C-18.475 3.505 -18.475 3.505 -21 3 C-21 4.32 -21 5.64 -21 7 C-22.8984375 8.703125 -22.8984375 8.703125 -25.375 10.25 C-26.18710937 10.77078125 -26.99921875 11.2915625 -27.8359375 11.828125 C-30 13 -30 13 -32 13 C-31.67 15.31 -31.34 17.62 -31 20 C-32.17369141 19.98259766 -32.17369141 19.98259766 -33.37109375 19.96484375 C-34.38300781 19.95582031 -35.39492188 19.94679687 -36.4375 19.9375 C-37.44683594 19.92589844 -38.45617187 19.91429687 -39.49609375 19.90234375 C-41.94021067 19.71387324 -41.94021067 19.71387324 -43 21 C-42.38511719 20.98839844 -41.77023438 20.97679687 -41.13671875 20.96484375 C-40.32847656 20.95582031 -39.52023438 20.94679687 -38.6875 20.9375 C-37.48673828 20.92009766 -37.48673828 20.92009766 -36.26171875 20.90234375 C-34 21 -34 21 -31 22 C-30 24 -30 24 -30 30 C-37.92 30 -45.84 30 -54 30 C-54 21 -54 21 -53 19 C-51.5459375 18.5359375 -51.5459375 18.5359375 -50.0625 18.0625 C-46.72090763 16.29662748 -46.72090763 16.29662748 -46.16015625 12.921875 C-45.66997571 9.61583985 -45.2755572 6.3304413 -45 3 C-31.10078567 -2.06549145 -14.57661975 -0.11159956 0 0 Z " fill="#4D97B9" transform="translate(60,130)"/>
<path d="M0 0 C10.89 0 21.78 0 33 0 C33.87291777 4.36458887 33.99726394 7.22109762 33.625 11.5625 C33.48964844 13.23505859 33.48964844 13.23505859 33.3515625 14.94140625 C33.0692305 17.39769469 32.68324959 19.63178743 32 22 C29.36 22 26.72 22 24 22 C22.68 24.64 21.36 27.28 20 30 C18.68 30 17.36 30 16 30 C16 27.03 16 24.06 16 21 C13.69 21 11.38 21 9 21 C9.020625 20.39414062 9.04125 19.78828125 9.0625 19.1640625 C8.88475612 11.94321738 6.45672473 8.27550185 1.71484375 2.93359375 C0 1 0 1 0 0 Z " fill="#843DAA" transform="translate(122,30)"/>
<path d="M0 0 C0.66 0.66 1.32 1.32 2 2 C2.45761719 2.45632812 2.91523437 2.91265625 3.38671875 3.3828125 C4.5402876 4.53917449 5.68809309 5.70129744 6.83203125 6.8671875 C10.7608016 10.85020123 14.79293809 14.61202502 19.03515625 18.2578125 C22.16647769 21.03429234 25.07206962 24.01107107 28 27 C28.33 23.7 28.66 20.4 29 17 C30.65 17 32.3 17 34 17 C34.6875 19.25 34.6875 19.25 35 22 C33.625 24 33.625 24 32 26 C31.01802538 29.35507997 30.87619497 30.62858491 32 34 C28.36217368 35.21260877 25.82264001 35.39544552 22 35 C19.5 32.875 19.5 32.875 17 30 C15.8488954 28.9821251 14.68127599 27.98269942 13.5 27 C10.51071512 24.46911517 7.73618346 21.80634201 5 19 C4.22269531 18.27296875 4.22269531 18.27296875 3.4296875 17.53125 C0.28838829 14.55687974 -1.73664633 12.24946236 -3 8 C-3.33 7.01 -3.66 6.02 -4 5 C-2.35 5 -0.7 5 1 5 C0.67 3.35 0.34 1.7 0 0 Z " fill="#2FA9D6" transform="translate(42,93)"/>
<path d="M0 0 C-4.24197704 5.65596939 -9.4045986 9.71924631 -15 14 C-14.67 15.65 -14.34 17.3 -14 19 C-13.08609749 18.99666908 -13.08609749 18.99666908 -12.1537323 18.99327087 C-5.71146237 18.97084507 0.73079616 18.95594107 7.1730957 18.94506836 C9.5653529 18.94009352 11.95760715 18.93331126 14.34985352 18.92456055 C28.60357058 18.87379307 42.77590548 19.03754887 57 20 C57 20.66 57 21.32 57 22 C55.68907631 21.99333817 55.68907631 21.99333817 54.35166931 21.98654175 C46.09810493 21.9463957 37.84457354 21.91598039 29.5909338 21.89637566 C25.34809628 21.88595771 21.10533975 21.87183498 16.86254883 21.84912109 C12.76471223 21.82732159 8.66695332 21.81541642 4.56906319 21.81024551 C3.00903667 21.80656249 1.44901419 21.79937053 -0.11097908 21.78853989 C-2.30332612 21.77393027 -4.49535592 21.77202597 -6.68774414 21.77294922 C-8.55638878 21.76628738 -8.55638878 21.76628738 -10.46278381 21.75949097 C-16.85717057 22.1942701 -24.09793366 23.9290029 -28.63989258 28.73535156 C-30.35240279 31.58676868 -30.42717877 33.54540791 -30.51171875 36.859375 C-30.54716797 37.97441406 -30.58261719 39.08945312 -30.61914062 40.23828125 C-30.64169922 41.39714844 -30.66425781 42.55601563 -30.6875 43.75 C-30.73874023 45.51150391 -30.73874023 45.51150391 -30.79101562 47.30859375 C-30.87345173 50.20563389 -30.94261811 53.10237298 -31 56 C-35.24312743 49.63530886 -33.58038876 39.4248199 -33 32 C-32.23481021 28.17863304 -31.05443609 25.29439161 -29 22 C-28.25363281 20.76636719 -28.25363281 20.76636719 -27.4921875 19.5078125 C-22.47334462 11.82781572 -16.08895152 3.28675855 -7.0625 0.375 C-4.67527938 -0.05904011 -2.42123127 -0.06725642 0 0 Z " fill="#37A4BC" transform="translate(103,9)"/>
<path d="M0 0 C7.92 0 15.84 0 24 0 C24 1.65 24 3.3 24 5 C25.65 5 27.3 5 29 5 C29 5.66 29 6.32 29 7 C28.2265625 7.06316406 27.453125 7.12632812 26.65625 7.19140625 C19.57802154 8.0236237 15.51385502 9.38019207 10.5234375 14.5390625 C9 16 9 16 7 16 C6.71125 16.61875 6.4225 17.2375 6.125 17.875 C4.60338229 20.74916678 3.53436854 21.81753269 0.4375 22.875 C-2.18447843 23.7409707 -2.18447843 23.7409707 -2.8125 26.125 C-2.874375 26.74375 -2.93625 27.3625 -3 28 C-5.64 28 -8.28 28 -11 28 C-11 27.34 -11 26.68 -11 26 C-10.29875 25.814375 -9.5975 25.62875 -8.875 25.4375 C-3.1719066 22.5859533 -0.11943862 18.0270004 1.875 12.0625 C2.26696582 10.71314639 2.64832896 9.36041164 3 8 C5.64 7.67 8.28 7.34 11 7 C5.555 6.505 5.555 6.505 0 6 C0 4.02 0 2.04 0 0 Z " fill="#47AAC7" transform="translate(131,0)"/>
<path d="M0 0 C4.25613526 -0.88292168 7.75942684 -1.04221528 12 0 C17.29234267 3.75527786 22.95200057 9.85600171 25 16 C23.5625 18.1875 23.5625 18.1875 22 20 C22.57363281 20.23976563 23.14726563 20.47953125 23.73828125 20.7265625 C26.45471918 22.25602496 28.12356456 24.04387591 30.1875 26.375 C31.22970703 27.53128906 31.22970703 27.53128906 32.29296875 28.7109375 C33.93496338 30.91278842 34.59001948 32.31982886 35 35 C30.14950801 34.56301874 28.03372462 32.54558517 24.6875 29.125 C23.80449219 28.24070312 22.92148438 27.35640625 22.01171875 26.4453125 C20 24 20 24 20 21 C19.41734375 20.7421875 18.8346875 20.484375 18.234375 20.21875 C10.73814051 16.12989482 4.95545633 7.76103483 0 1 C0 0.67 0 0.34 0 0 Z " fill="#22569D" transform="translate(92,30)"/>
<path d="M0 0 C3.21829969 3.21829969 2.0625 12.80046188 2.0625 17.1875 C2.041875 18.445625 2.02125 19.70375 2 21 C-0.90782833 19.68515589 -3.00641558 18.26624689 -5.25 16 C-5.77078125 15.484375 -6.2915625 14.96875 -6.828125 14.4375 C-8 13 -8 13 -8 11 C-8.928125 11.061875 -9.85625 11.12375 -10.8125 11.1875 C-14 11 -14 11 -15.875 9.5 C-16.24625 9.005 -16.6175 8.51 -17 8 C-17.99 8.33 -18.98 8.66 -20 9 C-18.28217655 4.84859334 -15.89731671 3.13839003 -12.125 0.875 C-8.05876057 -0.79933388 -4.19459349 -1.55355314 0 0 Z " fill="#0491B1" transform="translate(93,31)"/>
<path d="M0 0 C-4.03061546 4.71667767 -8.14940704 9.24718616 -12.6171875 13.5546875 C-14.10854485 14.97109777 -14.10854485 14.97109777 -15 17 C-16.65 17 -18.3 17 -20 17 C-19.67 18.65 -19.34 20.3 -19 22 C-21.26949102 22.67155349 -23.5403961 23.3373963 -25.8125 24 C-27.70935547 24.556875 -27.70935547 24.556875 -29.64453125 25.125 C-33 26 -33 26 -36 26 C-33.02661039 22.9268837 -30.03965451 19.86778397 -27.04003906 16.8203125 C-26.02394192 15.78424135 -25.01148015 14.74459068 -24.00292969 13.70117188 C-7.24394771 -3.62197385 -7.24394771 -3.62197385 0 0 Z " fill="#A223A4" transform="translate(49,67)"/>
<path d="M0 0 C3.89533465 0.11804044 5.69793848 1.44447477 8.3125 4.125 C8.90675781 4.75664063 9.50101563 5.38828125 10.11328125 6.0390625 C11.98921805 7.98879392 13.94422648 9.74245282 16 11.5 C19.83958799 14.81464432 23.59526263 18.23350929 27 22 C27 22.33 27 22.66 27 23 C23.04 23 19.08 23 15 23 C14.67 22.01 14.34 21.02 14 20 C13.01 19.67 12.02 19.34 11 19 C9.12800199 17.14131003 7.48469785 15.14533149 5.7890625 13.125 C4.69372667 11.82398976 3.56919477 10.54607839 2.3984375 9.3125 C1 7.8125 1 7.8125 -1 5 C-0.8125 2.125 -0.8125 2.125 0 0 Z " fill="#982BA9" transform="translate(81,43)"/>
<path d="M0 0 C2.31 0 4.62 0 7 0 C7 2.97 7 5.94 7 9 C8.32 8.67 9.64 8.34 11 8 C12.73068271 4.545183 12.73068271 4.545183 14 1 C15 0 15 0 17.9375 -0.1875 C21 0 21 0 23 2 C20.53532182 8.65463108 20.53532182 8.65463108 18.0625 10.25 C17.381875 10.4975 16.70125 10.745 16 11 C15.443125 11.515625 14.88625 12.03125 14.3125 12.5625 C10.79047638 14.75186603 7.07612622 14.74741953 3 15 C-0.97674419 10.30021142 -0.97674419 10.30021142 -1.04296875 6.59765625 C-0.77937106 4.37289171 -0.44865883 2.19452689 0 0 Z " fill="#D046C4" transform="translate(131,51)"/>
<path d="M0 0 C0.495 0.99 0.495 0.99 1 2 C-7.6584884 14.15583862 -18.52791798 28.8032195 -34 32 C-38.3301851 32.2293857 -42.66435957 32.18517151 -47 32.1875 C-48.16917969 32.19974609 -49.33835937 32.21199219 -50.54296875 32.22460938 C-58.22700921 32.2374019 -65.46818718 31.52170898 -73 30 C-72.67 29.34 -72.34 28.68 -72 28 C-68.37 28.33 -64.74 28.66 -61 29 C-60.67 28.34 -60.34 27.68 -60 27 C-60 27.99 -60 28.98 -60 30 C-55.89484789 29.94744535 -51.79169211 29.85221594 -47.6875 29.75 C-46.53958984 29.73582031 -45.39167969 29.72164062 -44.20898438 29.70703125 C-35.93621695 29.47267523 -27.25580087 28.75423108 -20.79589844 23.05566406 C-17.40568324 19.41104446 -14.94157091 15.56840214 -13 11 C-12.34 11 -11.68 11 -11 11 C-11 10.01 -11 9.02 -11 8 C-11.99 7.67 -12.98 7.34 -14 7 C-13.40832031 6.82984375 -12.81664062 6.6596875 -12.20703125 6.484375 C-7.36342355 4.99889662 -3.77495174 3.53140647 0 0 Z " fill="#078595" transform="translate(90,121)"/>
<path d="M0 0 C0.33 0 0.66 0 1 0 C1.36962166 6.55736204 1.68205164 13.30284274 -2 19 C-12.71218261 28.40231773 -24.46752394 28.6190388 -38 28 C-39.67522527 27.71275588 -41.34810583 27.40016816 -43 27 C-43 26.67 -43 26.34 -43 26 C-34.42 25.67 -25.84 25.34 -17 25 C-16.67 23.35 -16.34 21.7 -16 20 C-14.14562246 15.36405615 -12.61025063 13.03708749 -8 11 C-4.6875 10.3125 -4.6875 10.3125 -2 10 C-1.34 6.7 -0.68 3.4 0 0 Z " fill="#16BED3" transform="translate(94,102)"/>
<path d="M0 0 C10.89 0 21.78 0 33 0 C33 0.33 33 0.66 33 1 C25.74 1.33 18.48 1.66 11 2 C14.64861666 6.72424792 14.64861666 6.72424792 18.33032227 11.42260742 C22.03518019 16.34358911 22.03518019 16.34358911 21.83984375 19.98828125 C21.56269531 20.65214844 21.28554687 21.31601563 21 22 C17.20450741 21.45418801 15.69020705 19.94590705 13.25 17.0625 C12.63640625 16.35222656 12.0228125 15.64195313 11.390625 14.91015625 C10 13 10 13 10 11 C9.40703125 10.7421875 8.8140625 10.484375 8.203125 10.21875 C5.82339035 8.90230105 4.49021208 7.57419218 2.75 5.5 C2.22921875 4.8915625 1.7084375 4.283125 1.171875 3.65625 C0 2 0 2 0 0 Z " fill="#7344AC" transform="translate(62,89)"/>
<path d="M0 0 C1.98 0.33 3.96 0.66 6 1 C3.12377024 4.51539193 0.17974907 7.85814799 -3.0703125 11.03125 C-3.61268555 11.56137695 -4.15505859 12.09150391 -4.71386719 12.63769531 C-5.81480196 13.70626868 -6.92218898 14.76823718 -8.03613281 15.82324219 C-9.41317796 17.16037298 -10.71321741 18.57579402 -12 20 C-12 20.99 -12 21.98 -12 23 C-11.01 23.66 -10.02 24.32 -9 25 C-9 26.32 -9 27.64 -9 29 C-10.65 28.67 -12.3 28.34 -14 28 C-14 27.34 -14 26.68 -14 26 C-21.03482474 25.76331431 -27.1834265 26.2120463 -34 28 C-33 26 -33 26 -30.6015625 25.1484375 C-29.61929687 24.89320312 -28.63703125 24.63796875 -27.625 24.375 C-26.15933594 23.98441406 -26.15933594 23.98441406 -24.6640625 23.5859375 C-22 23 -22 23 -19 23 C-19.33 21.35 -19.66 19.7 -20 18 C-18.35 18 -16.7 18 -15 18 C-14.7834375 17.45472656 -14.566875 16.90945312 -14.34375 16.34765625 C-12.54862264 13.21140176 -10.0867754 10.91398652 -7.5 8.4375 C-4.71628244 5.75088887 -2.16106778 3.24160167 0 0 Z " fill="#C148C2" transform="translate(49,66)"/>
<path d="M0 0 C0.91644287 0.00523682 1.83288574 0.01047363 2.77709961 0.01586914 C3.76645508 0.0190918 4.75581055 0.02231445 5.77514648 0.02563477 C6.81606445 0.03401367 7.85698242 0.04239258 8.92944336 0.05102539 C10.49662109 0.05779297 10.49662109 0.05779297 12.09545898 0.06469727 C14.68600996 0.07652627 17.27644895 0.0930085 19.86694336 0.11352539 C20.86694336 2.11352539 20.86694336 2.11352539 20.86694336 8.11352539 C12.94694336 8.11352539 5.02694336 8.11352539 -3.13305664 8.11352539 C-3.13305664 0.16674732 -3.13305664 0.16674732 0 0 Z " fill="#9C229A" transform="translate(9.133056640625,151.886474609375)"/>
<path d="M0 0 C0.66 0.66 1.32 1.32 2 2 C2.44988281 2.44859375 2.89976563 2.8971875 3.36328125 3.359375 C4.59490076 4.59393394 5.82044238 5.83456089 7.04296875 7.078125 C7.75066406 7.79484375 8.45835938 8.5115625 9.1875 9.25 C9.86167969 9.93578125 10.53585938 10.6215625 11.23046875 11.328125 C12.90798995 13.07449111 12.90798995 13.07449111 15 14 C14.65120368 17.25543229 13.97866739 18.01873107 11.4375 20.25 C10.633125 20.8275 9.82875 21.405 9 22 C7.70756532 20.8758824 6.41607925 19.75067408 5.125 18.625 C4.04605469 17.68527344 4.04605469 17.68527344 2.9453125 16.7265625 C-1.06339623 13.16863226 -2.32123035 10.03630896 -4 5 C-2.35 5 -0.7 5 1 5 C0.67 3.35 0.34 1.7 0 0 Z " fill="#4E42A6" transform="translate(42,93)"/>
<path d="M0 0 C1.32 0 2.64 0 4 0 C4 6.93 4 13.86 4 21 C0.885625 21.020625 -2.22875 21.04125 -5.4375 21.0625 C-6.91174438 21.07615601 -6.91174438 21.07615601 -8.41577148 21.09008789 C-9.18477783 21.09258545 -9.95378418 21.09508301 -10.74609375 21.09765625 C-11.53685303 21.10289307 -12.3276123 21.10812988 -13.14233398 21.11352539 C-15 21 -15 21 -16 20 C-16.04063832 18.33382885 -16.042721 16.66611905 -16 15 C-14.02 14.67 -12.04 14.34 -10 14 C-9.67 15.65 -9.34 17.3 -9 19 C-6.69 19 -4.38 19 -2 19 C-2.02320313 18.21496094 -2.04640625 17.42992188 -2.0703125 16.62109375 C-2.17284781 10.65207397 -2.04580539 5.62596482 0 0 Z " fill="#0E7C8C" transform="translate(156,8)"/>
<path d="M0 0 C0.33 0 0.66 0 1 0 C1.14285714 8.57142857 1.14285714 8.57142857 0 12 C-2.64 12 -5.28 12 -8 12 C-9.32 14.64 -10.64 17.28 -12 20 C-13.32 20 -14.64 20 -16 20 C-16 17.03 -16 14.06 -16 11 C-18.31 11 -20.62 11 -23 11 C-23 8.36 -23 5.72 -23 3 C-20.44899172 4.05558963 -19.16409783 4.76455529 -17.5625 7.0625 C-15.56041983 9.54507941 -14.09771991 9.66511136 -11 10 C-11.33 8.35 -11.66 6.7 -12 5 C-11.34 5 -10.68 5 -10 5 C-9.67 5.66 -9.34 6.32 -9 7 C-6.36 6.67 -3.72 6.34 -1 6 C-0.67 4.02 -0.34 2.04 0 0 Z " fill="#97249B" transform="translate(154,40)"/>
<path d="M0 0 C1.54046997 0.00068733 1.54046997 0.00068733 3.11206055 0.00138855 C5.27344933 0.00438957 7.43483638 0.01221061 9.59619141 0.0246582 C12.83894877 0.04276742 16.08141632 0.04516825 19.32421875 0.04492188 C31.87097986 0.06683918 44.35435377 0.41994718 56.875 1.23046875 C56.875 1.89046875 56.875 2.55046875 56.875 3.23046875 C55.56407631 3.22380692 55.56407631 3.22380692 54.22666931 3.2170105 C45.97310493 3.17686445 37.71957354 3.14644914 29.4659338 3.12684441 C25.22309628 3.11642646 20.98033975 3.10230373 16.73754883 3.07958984 C12.63971223 3.05779034 8.54195332 3.04588517 4.44406319 3.04071426 C2.88403667 3.03703124 1.32401419 3.02983928 -0.23597908 3.01900864 C-2.42832612 3.00439902 -4.62035592 3.00249472 -6.81274414 3.00341797 C-8.68138878 2.99675613 -8.68138878 2.99675613 -10.58778381 2.98995972 C-17.95016471 3.49055652 -24.04277141 6.17564969 -30.125 10.23046875 C-28.92592086 6.87304717 -27.09414992 4.97530719 -24.06811523 3.1040802 C-16.68943953 -0.21332243 -7.93620811 -0.05968552 0 0 Z " fill="#1AC0DB" transform="translate(103.125,27.76953125)"/>
<path d="M0 0 C1.98 0 3.96 0 6 0 C6.12375 0.721875 6.2475 1.44375 6.375 2.1875 C6.90625 5.03125 6.90625 5.03125 8.1875 7.625 C8.455625 8.40875 8.72375 9.1925 9 10 C7 13 7 13 4.8125 13.5625 C0.55273912 12.71054782 -1.94055766 9.96245713 -5 7 C-5.53109375 7.48210937 -6.0621875 7.96421875 -6.609375 8.4609375 C-7.31578125 9.09257812 -8.0221875 9.72421875 -8.75 10.375 C-9.44609375 11.00148437 -10.1421875 11.62796875 -10.859375 12.2734375 C-12.84508688 13.87505183 -14.67954093 14.96520068 -17 16 C-17 14.68 -17 13.36 -17 12 C-15.1015625 10.296875 -15.1015625 10.296875 -12.625 8.75 C-11.81289063 8.22921875 -11.00078125 7.7084375 -10.1640625 7.171875 C-8 6 -8 6 -6 6 C-6 4.68 -6 3.36 -6 2 C-4.35 2 -2.7 2 -1 2 C-0.67 1.34 -0.34 0.68 0 0 Z " fill="#1C6F8B" transform="translate(45,131)"/>
<path d="M0 0 C7.92 0 15.84 0 24 0 C24 1.65 24 3.3 24 5 C23 6 23 6 20.77514648 6.11352539 C19.81680908 6.10828857 18.85847168 6.10305176 17.87109375 6.09765625 C16.31938477 6.09282227 16.31938477 6.09282227 14.73632812 6.08789062 C13.64771484 6.07951172 12.55910156 6.07113281 11.4375 6.0625 C9.7987793 6.05573242 9.7987793 6.05573242 8.12695312 6.04882812 C5.41791505 6.03699826 2.70898401 6.02051543 0 6 C0 4.02 0 2.04 0 0 Z " fill="#CE43CA" transform="translate(131,0)"/>
<path d="M0 0 C6.93 0.495 6.93 0.495 14 1 C13.67 1.66 13.34 2.32 13 3 C11.68 3 10.36 3 9 3 C8.90203125 3.90363281 8.8040625 4.80726563 8.703125 5.73828125 C8.55359375 6.91777344 8.4040625 8.09726563 8.25 9.3125 C8.11078125 10.48425781 7.9715625 11.65601563 7.828125 12.86328125 C7 16 7 16 5.109375 17.98046875 C3 19 3 19 0 18 C0 12.06 0 6.12 0 0 Z " fill="#5EB0CF" transform="translate(7,130)"/>
<path d="M0 0 C0.66 0.33 1.32 0.66 2 1 C2 6.28 2 11.56 2 17 C-2.95 17 -7.9 17 -13 17 C-12 15 -11 13 -10 11 C-9.195625 10.7525 -8.39125 10.505 -7.5625 10.25 C-4.69876148 9.21390907 -4.69876148 9.21390907 -3.875 6.0625 C-3.58625 5.051875 -3.2975 4.04125 -3 3 C-1.375 1.125 -1.375 1.125 0 0 Z " fill="#8056B4" transform="translate(93,71)"/>
<path d="M0 0 C3.58621852 0.56254408 5.0145244 1.73584797 7.3125 4.5 C7.90804687 5.21414062 8.50359375 5.92828125 9.1171875 6.6640625 C9.73851563 7.43492188 10.35984375 8.20578125 11 9 C11.99386719 10.21816406 11.99386719 10.21816406 13.0078125 11.4609375 C18 17.7062247 18 17.7062247 18 20 C14.7 20 11.4 20 8 20 C8.66 19.34 9.32 18.68 10 18 C7.33582005 12.98507303 3.20380409 6.60190204 -2 4 C-1.34 2.68 -0.68 1.36 0 0 Z " fill="#4692D4" transform="translate(116,46)"/>
<path d="M0 0 C1.125 5.75 1.125 5.75 0 8 C-1.32 8 -2.64 8 -4 8 C-4 9.65 -4 11.3 -4 13 C-7.96 13 -11.92 13 -16 13 C-15.67 11.35 -15.34 9.7 -15 8 C-13.03696582 6.92925408 -11.0302589 5.93704257 -9 5 C-8.13375 4.113125 -7.2675 3.22625 -6.375 2.3125 C-4 0 -4 0 0 0 Z " fill="#358BA8" transform="translate(144,15)"/>
<path d="M0 0 C1.29623291 0.03029297 2.59246582 0.06058594 3.92797852 0.09179688 C8.75673581 0.2044302 13.5855173 0.31599587 18.41430664 0.42724609 C20.50057637 0.47545923 22.58683951 0.52395834 24.6730957 0.57275391 C27.67918216 0.64301302 30.68529114 0.71222921 33.69140625 0.78125 C35.08088219 0.81406067 35.08088219 0.81406067 36.49842834 0.84753418 C40.32187389 0.93448286 44.13587109 0.99939698 47.96069336 0.98242188 C50.79588915 0.99881951 53.25202784 1.33382493 56 2 C56 2.33 56 2.66 56 3 C44.79110513 3.6538522 33.60455701 4.10378547 22.375 4.125 C20.9209375 4.13176758 20.9209375 4.13176758 19.4375 4.13867188 C12.91030987 4.12525984 6.48937757 3.69331632 0 3 C0 2.01 0 1.02 0 0 Z " fill="#60D4E8" transform="translate(0,127)"/>
<path d="M0 0 C2.97 0 5.94 0 9 0 C9 1.32 9 2.64 9 4 C6 6 6 6 3 6 C0.53473114 8.46526886 0.04846307 10.71481573 -1 14 C-2 15 -2 15 -4.5625 15.0625 C-5.366875 15.041875 -6.17125 15.02125 -7 15 C-7.66 13.35 -8.32 11.7 -9 10 C-8.15115234 9.29423828 -8.15115234 9.29423828 -7.28515625 8.57421875 C-6.55167969 7.95160156 -5.81820312 7.32898438 -5.0625 6.6875 C-4.33160156 6.07261719 -3.60070312 5.45773438 -2.84765625 4.82421875 C-0.76179634 3.04024481 -0.76179634 3.04024481 0 0 Z " fill="#A158BD" transform="translate(89,67)"/>
<path d="M0 0 C1.9375 0.8125 1.9375 0.8125 4 2 C4.33 2.99 4.66 3.98 5 5 C4.33613281 5.24234375 3.67226562 5.4846875 2.98828125 5.734375 C-4.09342798 8.38359501 -4.09342798 8.38359501 -10 13 C-11.11043181 16.24788907 -11.19454732 19.44732501 -11.31640625 22.859375 C-11.35830078 23.97441406 -11.40019531 25.08945312 -11.44335938 26.23828125 C-11.50233398 27.97658203 -11.50233398 27.97658203 -11.5625 29.75 C-11.60568359 30.92433594 -11.64886719 32.09867188 -11.69335938 33.30859375 C-11.79934794 36.20561451 -11.90141638 39.10271935 -12 42 C-14.85218432 37.72172352 -14.38323464 33.97450055 -14.375 28.9375 C-14.37367065 27.5136499 -14.37367065 27.5136499 -14.37231445 26.06103516 C-14.24612142 18.61372463 -13.45189912 12.14972239 -8.55078125 6.2578125 C-7 5 -7 5 -4 5 C-1.79857668 2.5609294 -1.79857668 2.5609294 0 0 Z " fill="#20B9CF" transform="translate(84,23)"/>
<path d="M0 0 C-4.03061546 4.71667767 -8.14940704 9.24718616 -12.6171875 13.5546875 C-14.10854485 14.97109777 -14.10854485 14.97109777 -15 17 C-16.65 17 -18.3 17 -20 17 C-19.67 18.65 -19.34 20.3 -19 22 C-20.65 22 -22.3 22 -24 22 C-24.6875 20.1875 -24.6875 20.1875 -25 18 C-23.875 16.25 -23.875 16.25 -22 15 C-21.20980469 15.0825 -20.41960938 15.165 -19.60546875 15.25 C-16.79015891 15.2889367 -16.79015891 15.2889367 -15.12109375 12.734375 C-14.56550781 11.74953125 -14.00992188 10.7646875 -13.4375 9.75 C-8.37280199 0.90724782 -8.37280199 0.90724782 -3.875 -0.8125 C-2 -1 -2 -1 0 0 Z " fill="#B43CB7" transform="translate(49,67)"/>
<path d="M0 0 C2.5625 -0.5 2.5625 -0.5 6 0 C10.21187619 3.65206986 13.26429699 8.17995184 16 13 C16.721875 13.86625 17.44375 14.7325 18.1875 15.625 C20 18 20 18 20 21 C11.52006978 17.24781848 5.34217414 8.28865781 0 1 C0 0.67 0 0.34 0 0 Z " fill="#0C4A71" transform="translate(92,30)"/>
<path d="M0 0 C4.38344982 -0.18652978 6.16419015 0.23560428 9.46875 3.2578125 C16 10.51246044 16 10.51246044 16 12 C14.02 12 12.04 12 10 12 C10.33 14.31 10.66 16.62 11 19 C9 16 9 16 7.8125 13.8125 C5.65546052 10.46536977 3.07643685 7.73839134 0.328125 4.8671875 C-0.11015625 4.25101562 -0.5484375 3.63484375 -1 3 C-0.67 2.01 -0.34 1.02 0 0 Z " fill="#BF2AA8" transform="translate(18,109)"/>
<path d="M0 0 C10.89 0 21.78 0 33 0 C33 0.33 33 0.66 33 1 C25.74 1.33 18.48 1.66 11 2 C14.65388776 6.81003001 14.65388776 6.81003001 18.33032227 11.6027832 C19.00405884 12.50516724 19.00405884 12.50516724 19.69140625 13.42578125 C20.15748291 14.03848877 20.62355957 14.65119629 21.10375977 15.2824707 C21.39951904 15.84925537 21.69527832 16.41604004 22 17 C21.67 17.99 21.34 18.98 21 20 C14.51930569 14.77023041 11.42810028 11.33058497 10 3 C9.01 3 8.02 3 7 3 C7 2.34 7 1.68 7 1 C4.69 1 2.38 1 0 1 C0 0.67 0 0.34 0 0 Z " fill="#A349C3" transform="translate(62,89)"/>
<path d="M0 0 C0.66 0.33 1.32 0.66 2 1 C-6.43137074 7.16929567 -13.9342191 7.3174928 -24.1875 7.25 C-25.9209668 7.26160156 -25.9209668 7.26160156 -27.68945312 7.2734375 C-35.31373472 7.2563139 -42.52557741 6.49778456 -50 5 C-49.67 4.34 -49.34 3.68 -49 3 C-45.37 3.33 -41.74 3.66 -38 4 C-37.67 3.34 -37.34 2.68 -37 2 C-37 2.99 -37 3.98 -37 5 C-32.89484789 4.94744535 -28.79169211 4.85221594 -24.6875 4.75 C-23.53958984 4.73582031 -22.39167969 4.72164062 -21.20898438 4.70703125 C-14.20346635 4.50857465 -8.57572352 3.52801377 -2.12036133 0.75097656 C-1.42064209 0.5031543 -0.72092285 0.25533203 0 0 Z " fill="#02A3B3" transform="translate(67,146)"/>
<path d="M0 0 C3 0.25 3 0.25 5 2.25 C2.5382263 8.89678899 2.5382263 8.89678899 0 10.5625 C-0.99 10.9028125 -0.99 10.9028125 -2 11.25 C-2.99 11.91 -3.98 12.57 -5 13.25 C-5.99 12.92 -6.98 12.59 -8 12.25 C-7.54965877 10.62276701 -7.08944646 8.99826336 -6.625 7.375 C-6.36976563 6.47007813 -6.11453125 5.56515625 -5.8515625 4.6328125 C-4.58557505 1.09037055 -3.78757817 0.31563151 0 0 Z " fill="#DB4CC9" transform="translate(149,50.75)"/>
<path d="M0 0 C0.91644287 0.00523682 1.83288574 0.01047363 2.77709961 0.01586914 C3.76645508 0.0190918 4.75581055 0.02231445 5.77514648 0.02563477 C6.81606445 0.03401367 7.85698242 0.04239258 8.92944336 0.05102539 C10.49662109 0.05779297 10.49662109 0.05779297 12.09545898 0.06469727 C14.68600996 0.07652627 17.27644895 0.0930085 19.86694336 0.11352539 C19.86694336 0.44352539 19.86694336 0.77352539 19.86694336 1.11352539 C15.57694336 1.11352539 11.28694336 1.11352539 6.86694336 1.11352539 C7.19694336 3.42352539 7.52694336 5.73352539 7.86694336 8.11352539 C4.23694336 8.11352539 0.60694336 8.11352539 -3.13305664 8.11352539 C-3.17547387 5.78057764 -3.17398601 3.44649972 -3.13305664 1.11352539 C-2.13305664 0.11352539 -2.13305664 0.11352539 0 0 Z " fill="#972A9D" transform="translate(9.133056640625,151.886474609375)"/>
<path d="M0 0 C1.10865985 0.91122727 2.21172219 1.82926659 3.3125 2.75 C3.92738281 3.26046875 4.54226562 3.7709375 5.17578125 4.296875 C7.05932329 6.05538534 8.51573656 7.89919636 10 10 C8.06318839 10.08107583 6.1254066 10.13922475 4.1875 10.1875 C3.10855469 10.22230469 2.02960937 10.25710937 0.91796875 10.29296875 C-2 10 -2 10 -3.84375 8.65625 C-5.34177261 6.51043382 -5.65285529 4.56887084 -6 2 C-4.02 2 -2.04 2 0 2 C0 1.34 0 0.68 0 0 Z " fill="#9130A9" transform="translate(34,119)"/>
<path d="M0 0 C3.63 0 7.26 0 11 0 C11 0.66 11 1.32 11 2 C11.99 2.33 12.98 2.66 14 3 C13.9175 3.7425 13.835 4.485 13.75 5.25 C14.07321515 8.8053667 15.46260586 9.62119299 18 12 C18 12.99 18 13.98 18 15 C14.83424264 13.64130585 13.18129402 12.24172536 11.125 9.5 C8.38505482 6.12722484 6.18564571 5.23666805 2 4 C1.34 2.68 0.68 1.36 0 0 Z " fill="#8656B9" transform="translate(122,30)"/>
<path d="M0 0 C8.25 0 16.5 0 25 0 C25 0.33 25 0.66 25 1 C20.05 1 15.1 1 10 1 C9.67 1.99 9.34 2.98 9 4 C7.35 3.67 5.7 3.34 4 3 C4 4.32 4 5.64 4 7 C1.8125 8.703125 1.8125 8.703125 -1 10.25 C-1.928125 10.77078125 -2.85625 11.2915625 -3.8125 11.828125 C-4.8953125 12.40820312 -4.8953125 12.40820312 -6 13 C-5.29822487 8.10370687 -3.82765637 7.04249609 0 4 C0 2.68 0 1.36 0 0 Z " fill="#32A1B3" transform="translate(35,130)"/>
<path d="M0 0 C3.74801422 2.05092387 6.42388381 4.23924256 9.25 7.4375 C9.93578125 8.19933594 10.6215625 8.96117187 11.328125 9.74609375 C12.94672131 11.92817335 13.5891772 13.34777634 14 16 C9.19832669 15.54930142 6.99807722 13.59340206 3.625 10.25 C2.73039062 9.38890625 1.83578125 8.5278125 0.9140625 7.640625 C-1 5 -1 5 -0.7890625 2.171875 C-0.52867188 1.45515625 -0.26828125 0.7384375 0 0 Z " fill="#196FA8" transform="translate(113,49)"/>
<path d="M0 0 C2.5930114 1.2965057 3.31886563 2.81501254 4.875 5.25 C8.80016634 11.95538806 8.80016634 11.95538806 15 16 C16.39712274 17.95597184 17.73779907 19.95436401 19 22 C17.35 22 15.7 22 14 22 C14 21.34 14 20.68 14 20 C13.01 19.67 12.02 19.34 11 19 C9.12800199 17.14131003 7.48469785 15.14533149 5.7890625 13.125 C4.69372667 11.82398976 3.56919477 10.54607839 2.3984375 9.3125 C1 7.8125 1 7.8125 -1 5 C-0.8125 2.125 -0.8125 2.125 0 0 Z " fill="#6C1E7D" transform="translate(81,43)"/>
<path d="M0 0 C2.31 0.33 4.62 0.66 7 1 C7 1.66 7 2.32 7 3 C8.65 3.33 10.3 3.66 12 4 C11.67 2.68 11.34 1.36 11 0 C13 1.8125 13 1.8125 15 4 C15 4.99 15 5.98 15 7 C13.35 7 11.7 7 10 7 C10.515625 7.598125 11.03125 8.19625 11.5625 8.8125 C12.036875 9.534375 12.51125 10.25625 13 11 C12.67 11.99 12.34 12.98 12 14 C10.67837119 12.75965588 9.36799547 11.50731374 8.0625 10.25 C7.33160156 9.55390625 6.60070313 8.8578125 5.84765625 8.140625 C3.94323829 5.93423802 3.66057105 4.73750166 3 2 C2.01 1.67 1.02 1.34 0 1 C0 0.67 0 0.34 0 0 Z " fill="#9B34A5" transform="translate(28,91)"/>
<path d="M0 0 C6.0143638 4.57091649 9.42518793 9.37415784 13 16 C8.50465977 15.3781446 7.039663 14.2159449 4.26953125 10.56640625 C2.46409336 8.33877366 0.29178899 6.70247182 -2 5 C-1.125 1.125 -1.125 1.125 0 0 Z " fill="#288BBF" transform="translate(54,112)"/>
<path d="M0 0 C2.97 0 5.94 0 9 0 C8.01 0.495 8.01 0.495 7 1 C7 1.66 7 2.32 7 3 C7.66 3.33 8.32 3.66 9 4 C7.35 3.67 5.7 3.34 4 3 C3.9175 3.7425 3.835 4.485 3.75 5.25 C3 8 3 8 1 9.75 C-1.98095429 13.10357358 -1.81376213 16.64203374 -2 21 C-2.33 21 -2.66 21 -3 21 C-3.0809723 18.56183415 -3.14046972 16.12635616 -3.1875 13.6875 C-3.21263672 12.99720703 -3.23777344 12.30691406 -3.26367188 11.59570312 C-3.33894291 6.40200205 -3.33894291 6.40200205 -1.48828125 4.20703125 C-0.99714844 3.80871094 -0.50601563 3.41039063 0 3 C0 2.01 0 1.02 0 0 Z " fill="#A53DB1" transform="translate(98,67)"/>
<path d="M0 0 C1.32 0.99 2.64 1.98 4 3 C3.67 3.99 3.34 4.98 3 6 C2.05125 5.814375 1.1025 5.62875 0.125 5.4375 C-4.17073711 5.36736552 -6.20216173 7.61311028 -9.25 10.4375 C-10.49523438 11.67306641 -10.49523438 11.67306641 -11.765625 12.93359375 C-14 15 -14 15 -17 16 C-17 14.68 -17 13.36 -17 12 C-15.1015625 10.296875 -15.1015625 10.296875 -12.625 8.75 C-11.81289063 8.22921875 -11.00078125 7.7084375 -10.1640625 7.171875 C-8 6 -8 6 -6 6 C-6 4.68 -6 3.36 -6 2 C-4.35 2 -2.7 2 -1 2 C-0.67 1.34 -0.34 0.68 0 0 Z " fill="#268EA1" transform="translate(45,131)"/>
<path d="M0 0 C0 0.99 0 1.98 0 3 C-8.20681294 10.53595629 -18.87228808 10.28666905 -29.328125 10.16796875 C-32.36106379 10.02922793 -35.05971011 9.71227953 -38 9 C-38 8.67 -38 8.34 -38 8 C-37.44127197 7.97494385 -36.88254395 7.9498877 -36.30688477 7.92407227 C-33.72527572 7.80656895 -31.14389764 7.6845562 -28.5625 7.5625 C-27.68400391 7.52318359 -26.80550781 7.48386719 -25.90039062 7.44335938 C-23.26516737 7.31694645 -20.63298225 7.16652543 -18 7 C-16.76721313 6.92543579 -16.76721313 6.92543579 -15.50952148 6.84936523 C-10.86640945 6.46834006 -7.76783084 5.7950484 -3.9375 2.9375 C-3.18339844 2.38964844 -2.42929688 1.84179688 -1.65234375 1.27734375 C-0.83443359 0.64505859 -0.83443359 0.64505859 0 0 Z " fill="#40CFDB" transform="translate(89,120)"/>
<path d="M0 0 C1.875 0.1875 1.875 0.1875 4 1 C4.69040574 2.65697379 5.3530635 4.3255761 6 6 C6.86625 6.86625 7.7325 7.7325 8.625 8.625 C11 11 11 11 11 14 C7.1775535 13.46115292 5.76475982 11.94772136 3.375 9 C1.05444701 6.04427685 1.05444701 6.04427685 -2 4 C-1.34 2.68 -0.68 1.36 0 0 Z " fill="#3AADDD" transform="translate(116,46)"/>
<path d="M0 0 C5.88411098 1.30952025 8.3105021 4.09188854 11.875 8.625 C12.37257812 9.23601563 12.87015625 9.84703125 13.3828125 10.4765625 C14.60024524 11.97494125 15.80176967 13.48622147 17 15 C15.68 15.33 14.36 15.66 13 16 C12.278125 15.113125 11.55625 14.22625 10.8125 13.3125 C9.0737749 11.21420852 7.33487523 9.35071153 5.375 7.4375 C3.09080815 5.09319784 1.55521702 2.86487345 0 0 Z " fill="#CB33B3" transform="translate(125,34)"/>
<path d="M0 0 C4.89365361 2.1173424 7.96788589 5.69120627 11 10 C11.9375 13.5 11.9375 13.5 12 16 C10.35 16 8.7 16 7 16 C6.57847656 15.01257813 6.15695313 14.02515625 5.72265625 13.0078125 C5.16930274 11.71352802 4.61591558 10.41925794 4.0625 9.125 C3.64581055 8.14853516 3.64581055 8.14853516 3.22070312 7.15234375 C1.68106441 3.54379777 1.68106441 3.54379777 0 0 Z " fill="#960F9E" transform="translate(16,112)"/>
<path d="M0 0 C0.66 0.66 1.32 1.32 2 2 C1.34 2.66 0.68 3.32 0 4 C0 4.99 0 5.98 0 7 C0.66 7.66 1.32 8.32 2 9 C0.23050388 9.50471197 -1.54065223 10.00360685 -3.3125 10.5 C-4.29863281 10.7784375 -5.28476562 11.056875 -6.30078125 11.34375 C-9 12 -9 12 -12 12 C-8.04 8.04 -4.08 4.08 0 0 Z " fill="#AC1EA8" transform="translate(25,81)"/>
<path d="M0 0 C0.99 0.33 1.98 0.66 3 1 C2.01 1.66 1.02 2.32 0 3 C0 2.01 0 1.02 0 0 Z M-2 3 C-1.34 3.33 -0.68 3.66 0 4 C-0.639375 4.598125 -1.27875 5.19625 -1.9375 5.8125 C-4.20310389 7.90810337 -4.20310389 7.90810337 -5 11 C-6.2065625 11.8971875 -6.2065625 11.8971875 -7.4375 12.8125 C-10.42403685 15.36198268 -11.06193758 17.24775032 -12 21 C-14.97 21 -17.94 21 -21 21 C-21 20.67 -21 20.34 -21 20 C-17.535 19.505 -17.535 19.505 -14 19 C-13.7525 17.72125 -13.505 16.4425 -13.25 15.125 C-12.25238379 11.16224672 -12.25238379 11.16224672 -10.25 9.875 C-9.5075 9.58625 -8.765 9.2975 -8 9 C-5.8880316 7.09508733 -3.96806162 5.05751897 -2 3 Z " fill="#D464D3" transform="translate(83,67)"/>
<path d="M0 0 C0.33 0 0.66 0 1 0 C1 4.29 1 8.58 1 13 C-3.95 13 -8.9 13 -14 13 C-14 11.35 -14 9.7 -14 8 C-12.02 7.67 -10.04 7.34 -8 7 C-7.67 8.65 -7.34 10.3 -7 12 C-4.69 12 -2.38 12 0 12 C0 8.04 0 4.08 0 0 Z " fill="#156C85" transform="translate(154,15)"/>
<path d="M0 0 C2.06298828 -0.34057617 2.06298828 -0.34057617 4.5703125 -0.29296875 C5.46621094 -0.28330078 6.36210938 -0.27363281 7.28515625 -0.26367188 C8.69087891 -0.2259668 8.69087891 -0.2259668 10.125 -0.1875 C11.06988281 -0.17396484 12.01476562 -0.16042969 12.98828125 -0.14648438 C15.32608779 -0.11106306 17.66276237 -0.06167271 20 0 C20.33 0.66 20.66 1.32 21 2 C13.34916042 3.24911667 5.72559014 3.09053426 -2 3 C-1.34 2.01 -0.68 1.02 0 0 Z " fill="#44D7E1" transform="translate(111,5)"/>
<path d="M0 0 C1.66666667 1.66666667 3.33333333 3.33333333 5 5 C5.763125 5.66 6.52625 6.32 7.3125 7 C9 9 9 9 9.25 11.75 C9.1675 12.4925 9.085 13.235 9 14 C5.55571735 12.55218207 3.63869038 10.72305391 1.25 7.875 C0.63640625 7.15054688 0.0228125 6.42609375 -0.609375 5.6796875 C-1.06828125 5.12539062 -1.5271875 4.57109375 -2 4 C-1.34 2.68 -0.68 1.36 0 0 Z " fill="#34B5DD" transform="translate(57,109)"/>
<path d="M0 0 C2.49361571 1.20381448 4.68143083 2.45428722 7 4 C5.92319498 5.13125022 4.83824365 6.25474919 3.75 7.375 C3.14671875 8.00148438 2.5434375 8.62796875 1.921875 9.2734375 C0.0299412 10.97310161 -1.68201309 11.98459866 -4 13 C-3.29666462 10.02277453 -2.41751463 7.14743457 -1.4375 4.25 C-1.16808594 3.45078125 -0.89867188 2.6515625 -0.62109375 1.828125 C-0.41613281 1.22484375 -0.21117188 0.6215625 0 0 Z " fill="#B421AB" transform="translate(128,71)"/>
<path d="M0 0 C0 1.65 0 3.3 0 5 C-2.475 4.505 -2.475 4.505 -5 4 C-5 3.34 -5 2.68 -5 2 C-12.03482474 1.76331431 -18.1834265 2.2120463 -25 4 C-24 2 -24 2 -21.953125 1.11328125 C-14.34873393 -1.13946466 -7.82806382 -1.03295596 0 0 Z " fill="#D626CC" transform="translate(40,90)"/>
<path d="M0 0 C0.66 0.33 1.32 0.66 2 1 C1.18208984 1.79434448 1.18208984 1.79434448 0.34765625 2.60473633 C-2.10932653 4.99950705 -4.55472584 7.40577746 -7 9.8125 C-7.85851563 10.64587891 -8.71703125 11.47925781 -9.6015625 12.33789062 C-10.41367187 13.14033203 -11.22578125 13.94277344 -12.0625 14.76953125 C-13.19365234 15.87711792 -13.19365234 15.87711792 -14.34765625 17.00708008 C-16.31913114 18.95344012 -16.31913114 18.95344012 -16 22 C-16.99 21.67 -17.98 21.34 -19 21 C-16.5795329 16.52757982 -13.51260638 13.05623409 -10.0625 9.375 C-9.53720703 8.80265625 -9.01191406 8.2303125 -8.47070312 7.640625 C-5.81893991 4.78641177 -3.24085286 2.20221809 0 0 Z " fill="#CE52C9" transform="translate(53,67)"/>
<path d="M0 0 C0.66 0.33 1.32 0.66 2 1 C-0.97 3.97 -3.94 6.94 -7 10 C-9 6 -9 6 -9 4 C-12.3 4 -15.6 4 -19 4 C-19 3.67 -19 3.34 -19 3 C-18.04738281 2.95101562 -17.09476562 2.90203125 -16.11328125 2.8515625 C-14.85902344 2.77679688 -13.60476562 2.70203125 -12.3125 2.625 C-10.45044922 2.52058594 -10.45044922 2.52058594 -8.55078125 2.4140625 C-5.29278663 2.03414234 -2.99258465 1.24017021 0 0 Z " fill="#9C31AD" transform="translate(144,63)"/>
<path d="M0 0 C2.13745922 0.25146579 3.45925779 0.45925779 5 2 C5.125 4.5 5.125 4.5 5 7 C4 8 4 8 1.4375 8.0625 C0.633125 8.041875 -0.17125 8.02125 -1 8 C-1.66 6.35 -2.32 4.7 -3 3 C-1.75 1.4375 -1.75 1.4375 0 0 Z " fill="#C54AC4" transform="translate(83,74)"/>
<path d="M0 0 C1.65 0 3.3 0 5 0 C5.8125 2.0625 5.8125 2.0625 6 5 C4.62353742 7.57223122 2.95685733 9.83748569 1 12 C0.67 12 0.34 12 0 12 C0 8.04 0 4.08 0 0 Z " fill="#14BFD4" transform="translate(71,110)"/>
<path d="M0 0 C3.52024323 0.6518969 6.14748697 1.82308216 9 4 C10.3125 7.1875 10.3125 7.1875 11 10 C7.43235179 9.42380903 5.74840503 8.13030516 3.25 5.5625 C2.63640625 4.94503906 2.0228125 4.32757813 1.390625 3.69140625 C0 2 0 2 0 0 Z " fill="#4077BF" transform="translate(44,100)"/>
<path d="M0 0 C1.32 1.32 2.64 2.64 4 4 C3 6 2 8 1 10 C-1.64 10 -4.28 10 -7 10 C-6.21625 9.278125 -5.4325 8.55625 -4.625 7.8125 C-2.15587562 5.16700959 -1.06739722 3.39626389 0 0 Z " fill="#A05EC1" transform="translate(79,78)"/>
<path d="M0 0 C2.97 0 5.94 0 9 0 C9.33 1.98 9.66 3.96 10 6 C8.68 6.33 7.36 6.66 6 7 C4.02 4.69 2.04 2.38 0 0 Z " fill="#752FA2" transform="translate(126,67)"/>
<path d="M0 0 C0.33 0.99 0.66 1.98 1 3 C8.59 3 16.18 3 24 3 C24 3.33 24 3.66 24 4 C-2.17654243 5.60666308 -2.17654243 5.60666308 -12 3 C-11.67 2.34 -11.34 1.68 -11 1 C-7.37 1.33 -3.74 1.66 0 2 C0 1.34 0 0.68 0 0 Z " fill="#1A889F" transform="translate(29,148)"/>
<path d="M0 0 C2.31 0 4.62 0 7 0 C7 1.32 7 2.64 7 4 C4 6.25 4 6.25 1 8 C0 7 0 7 -0.0625 3.4375 C-0.041875 2.303125 -0.02125 1.16875 0 0 Z " fill="#3EB0C1" transform="translate(28,131)"/>
<path d="M0 0 C0.33 0 0.66 0 1 0 C1.1875 2.375 1.1875 2.375 1 5 C0.01 5.66 -0.98 6.32 -2 7 C-2.72382467 9.05925139 -2.72382467 9.05925139 -3 11 C-5.64 11 -8.28 11 -11 11 C-11 10.34 -11 9.68 -11 9 C-10.29875 8.814375 -9.5975 8.62875 -8.875 8.4375 C-5.37319711 6.68659856 -3.63485061 4.49246597 -1.234375 1.4609375 C-0.82703125 0.97882812 -0.4196875 0.49671875 0 0 Z " fill="#36ABBC" transform="translate(131,17)"/>
<path d="M0 0 C1.98 0 3.96 0 6 0 C6.33 2.31 6.66 4.62 7 7 C5.00045254 7.04254356 2.99958364 7.04080783 1 7 C0 6 0 6 -0.0625 2.9375 C-0.041875 1.968125 -0.02125 0.99875 0 0 Z " fill="#820F88" transform="translate(16,153)"/>
<path d="M0 0 C2.64 0 5.28 0 8 0 C7.67 0.99 7.34 1.98 7 3 C5.35 2.67 3.7 2.34 2 2 C2 3.32 2 4.64 2 6 C-0.1875 7.703125 -0.1875 7.703125 -3 9.25 C-3.928125 9.77078125 -4.85625 10.2915625 -5.8125 10.828125 C-6.8953125 11.40820312 -6.8953125 11.40820312 -8 12 C-8 11.01 -8 10.02 -8 9 C-6.36935236 7.94228261 -4.69719127 6.94726954 -3 6 C-1.18523997 4.60414215 -1.18523997 4.60414215 0 3 C0 2.01 0 1.02 0 0 Z " fill="#2C9BAB" transform="translate(37,131)"/>
<path d="M0 0 C2.4375 0.1875 2.4375 0.1875 5 1 C6.3125 3.0625 6.3125 3.0625 7 5 C6.21625 5.28875 5.4325 5.5775 4.625 5.875 C1.90328368 6.84912254 1.90328368 6.84912254 0 9 C-0.87890625 2.84765625 -0.87890625 2.84765625 -1 1 C-0.67 0.67 -0.34 0.34 0 0 Z " fill="#3FABBB" transform="translate(16,132)"/>
<path d="M0 0 C3.21043882 1.38188453 5.04936365 2.92421903 7.25 5.625 C7.77078125 6.25664063 8.2915625 6.88828125 8.828125 7.5390625 C9.40820312 8.26222656 9.40820312 8.26222656 10 9 C9.01 9 8.02 9 7 9 C6.67 9.66 6.34 10.32 6 11 C3.3513141 7.80331012 1.06007659 4.60513403 -1 1 C-0.67 0.67 -0.34 0.34 0 0 Z " fill="#6F2089" transform="translate(83,43)"/>
<path d="M0 0 C-1.32 0.33 -2.64 0.66 -4 1 C-4 2.65 -4 4.3 -4 6 C-6.31 6 -8.62 6 -11 6 C-10.6130131 3.75547595 -10.08035336 2.12945819 -8.875 0.1875 C-5.88367023 -1.70700885 -3.32900597 -0.69092577 0 0 Z " fill="#2A7B9A" transform="translate(144,22)"/>
<path d="M0 0 C0.680625 0.70125 1.36125 1.4025 2.0625 2.125 C5.20780513 5.27934337 8.5888386 8.13934304 12 11 C11.67 11.66 11.34 12.32 11 13 C7.26074736 12.44573025 5.69733536 11.00611915 3.25 8.1875 C2.63640625 7.50042969 2.0228125 6.81335938 1.390625 6.10546875 C0 4 0 4 0 0 Z " fill="#655EAD" transform="translate(72,98)"/>
<path d="M0 0 C0.99 0.33 1.98 0.66 3 1 C2.65120368 4.25543229 1.97866739 5.01873107 -0.5625 7.25 C-1.7690625 8.11625 -1.7690625 8.11625 -3 9 C-3.99 8.34 -4.98 7.68 -6 7 C-6.1875 4.375 -6.1875 4.375 -6 2 C-3.61435923 2.57584432 -1.33317216 3.22227595 1 4 C0.67 2.68 0.34 1.36 0 0 Z " fill="#2C4D92" transform="translate(54,106)"/>
<path d="M0 0 C0.66 0.66 1.32 1.32 2 2 C0.8803014 3.00593243 -0.2459412 4.0045849 -1.375 5 C-2.31472656 5.8353125 -2.31472656 5.8353125 -3.2734375 6.6875 C-5 8 -5 8 -7 8 C-7 8.66 -7 9.32 -7 10 C-8.6396721 11.36639342 -10.31110128 12.6949419 -12 14 C-13.35147138 15.31494512 -14.69112542 16.64264858 -16 18 C-14.58167356 13.39253719 -11.96669686 10.5746704 -8.5625 7.3125 C-8.07201172 6.82716797 -7.58152344 6.34183594 -7.07617188 5.84179688 C-4.8128014 3.62729809 -2.64300063 1.76200042 0 0 Z " fill="#20B4C8" transform="translate(93,10)"/>
<path d="M0 0 C0.78375 0.04125 1.5675 0.0825 2.375 0.125 C-1.39839973 5.07758714 -5.53289714 8.56179155 -10.625 12.125 C-8.94702526 7.23090701 -5.68272275 0.27060585 0 0 Z " fill="#40B8CA" transform="translate(100.625,8.875)"/>
<path d="M0 0 C0.99 0.33 1.98 0.66 3 1 C2 3 1 5 0 7 C2.97 7.33 5.94 7.66 9 8 C9 8.33 9 8.66 9 9 C5.37 9 1.74 9 -2 9 C-2 8.34 -2 7.68 -2 7 C-2.99 6.67 -3.98 6.34 -5 6 C-3.35 4.02 -1.7 2.04 0 0 Z " fill="#438EB0" transform="translate(17,143)"/>
<path d="M0 0 C8.30894309 6.82926829 8.30894309 6.82926829 10 10 C9.5625 12.1171875 9.5625 12.1171875 9 14 C2.44995932 7.87713588 2.44995932 7.87713588 1 3 C0.67 2.01 0.34 1.02 0 0 Z " fill="#693C92" transform="translate(38,98)"/>
<path d="M0 0 C2.475 0.99 2.475 0.99 5 2 C4.34 3.65 3.68 5.3 3 7 C1.35 7 -0.3 7 -2 7 C-2.125 4.625 -2.125 4.625 -2 2 C-1.34 1.34 -0.68 0.68 0 0 Z " fill="#2F748F" transform="translate(49,137)"/>
<path d="M0 0 C5.32697239 1.45281065 8.36402802 5.08111378 12 9 C10.265625 9.73828125 10.265625 9.73828125 8 10 C5.859375 8.41796875 5.859375 8.41796875 3.75 6.1875 C3.04359375 5.45917969 2.3371875 4.73085937 1.609375 3.98046875 C0 2 0 2 0 0 Z " fill="#DC3AB6" transform="translate(22,111)"/>
<path d="M0 0 C0 3.3 0 6.6 0 10 C-0.99 10.495 -0.99 10.495 -2 11 C-6 5.25 -6 5.25 -6 3 C-1.5 0 -1.5 0 0 0 Z " fill="#DE56CE" transform="translate(136,55)"/>
<path d="M0 0 C0.66 0.33 1.32 0.66 2 1 C0.71372289 2.17260611 -0.57919783 3.3379283 -1.875 4.5 C-2.59429687 5.1496875 -3.31359375 5.799375 -4.0546875 6.46875 C-6 8 -6 8 -8 8 C-8.2475 8.61875 -8.495 9.2375 -8.75 9.875 C-10.20628639 12.35068687 -11.37812506 12.95125002 -14 14 C-12.63968534 9.42439615 -11.09315342 8.27397412 -7 6 C-4.60352184 4.0708848 -2.29730872 2.04573024 0 0 Z " fill="#4694B6" transform="translate(146,8)"/>
<path d="M0 0 C2.31 0 4.62 0 7 0 C7 2.97 7 5.94 7 9 C8.32 9.33 9.64 9.66 11 10 C9.0625 10.5625 9.0625 10.5625 7 11 C6 10 6 10 5.9375 6.4375 C5.958125 5.303125 5.97875 4.16875 6 3 C3.69 3.33 1.38 3.66 -1 4 C-0.67 2.68 -0.34 1.36 0 0 Z " fill="#B939B2" transform="translate(131,51)"/>
<path d="M0 0 C3.67689304 1.5278414 5.90198808 3.75627506 8.625 6.625 C10.04510127 8.12058838 11.49594968 9.58886398 13 11 C13.66 11 14.32 11 15 11 C15.33 12.98 15.66 14.96 16 17 C15.34 17 14.68 17 14 17 C12.51953125 15.27734375 12.51953125 15.27734375 10.8125 12.9375 C7.89522878 9.05801958 4.80179822 5.65137765 1.28515625 2.3125 C0 1 0 1 0 0 Z " fill="#289CC4" transform="translate(58,110)"/>
<path d="M0 0 C2 1.8125 2 1.8125 4 4 C4 4.99 4 5.98 4 7 C1.69 7.33 -0.62 7.66 -3 8 C-3.66 6.35 -4.32 4.7 -5 3 C-2.03 3.495 -2.03 3.495 1 4 C0.67 2.68 0.34 1.36 0 0 Z " fill="#7E32B0" transform="translate(39,91)"/>
<path d="M0 0 C2.97 0 5.94 0 9 0 C9 1.65 9 3.3 9 5 C5.625 4.75 5.625 4.75 2 4 C1.34 2.68 0.68 1.36 0 0 Z " fill="#43519E" transform="translate(122,30)"/>
<path d="M0 0 C2.64168921 0.35698503 4.60890736 0.752308 6.875 2.1875 C8 4 8 4 7.6875 7.1875 C7.460625 8.115625 7.23375 9.04375 7 10 C3.60582235 6.87378374 1.3937282 4.43458973 0 0 Z " fill="#812493" transform="translate(102,70)"/>
<path d="M0 0 C-0.37047118 2.74148672 -0.68587944 4.58593199 -2.375 6.8125 C-4 8 -4 8 -7 8 C-6.6875 5.125 -6.6875 5.125 -6 2 C-3 0 -3 0 0 0 Z " fill="#ED60D6" transform="translate(150,55)"/>
<path d="M0 0 C1.32 0.99 2.64 1.98 4 3 C3.67 3.99 3.34 4.98 3 6 C0.36 6 -2.28 6 -5 6 C-5.33 4.68 -5.66 3.36 -6 2 C-4.35 2 -2.7 2 -1 2 C-0.67 1.34 -0.34 0.68 0 0 Z " fill="#2D789A" transform="translate(45,131)"/>
<path d="M0 0 C0.33 0.66 0.66 1.32 1 2 C-5.15034169 10.44646925 -5.15034169 10.44646925 -9 14 C-8.28248673 7.72175888 -4.38472984 4.22813234 0 0 Z " fill="#03A1B1" transform="translate(90,121)"/>
<path d="M0 0 C4.29951803 1.59241408 6.39671947 4.35540725 9 8 C8.67 8.99 8.34 9.98 8 11 C6.65772182 9.73861805 5.32641323 8.46555441 4 7.1875 C3.2575 6.47980469 2.515 5.77210937 1.75 5.04296875 C0 3 0 3 0 0 Z " fill="#15468B" transform="translate(96,30)"/>
<path d="M0 0 C1.65 0.33 3.3 0.66 5 1 C4.67 2.65 4.34 4.3 4 6 C2.35 6 0.7 6 -1 6 C-0.67 4.02 -0.34 2.04 0 0 Z " fill="#A01FA5" transform="translate(111,74)"/>
<path d="M0 0 C3.11650396 1.50053894 6.13149298 3.06181958 9 5 C9.33 5.99 9.66 6.98 10 8 C9.01 8.495 9.01 8.495 8 9 C6.65826597 8.07456291 5.32679841 7.13422595 4 6.1875 C3.2575 5.66542969 2.515 5.14335938 1.75 4.60546875 C1.1725 4.07566406 0.595 3.54585937 0 3 C0 2.01 0 1.02 0 0 Z " fill="#2E66AF" transform="translate(107,38)"/>
<path d="M0 0 C4.52615993 3.67832017 8.39424999 7.41086363 12 12 C11.67 12.66 11.34 13.32 11 14 C7.5803498 11.75953952 6.04545631 9.4943212 4 6 C3.278125 5.278125 2.55625 4.55625 1.8125 3.8125 C1.214375 3.214375 0.61625 2.61625 0 2 C0 1.34 0 0.68 0 0 Z " fill="#7F92D4" transform="translate(120,49)"/>
<path d="M0 0 C1.32 0.66 2.64 1.32 4 2 C4 2.66 4 3.32 4 4 C-0.455 5.485 -0.455 5.485 -5 7 C-3.38262276 3.76524552 -2.52370777 2.29427979 0 0 Z " fill="#41B9CB" transform="translate(85,24)"/>
<path d="M0 0 C1.15518918 0.90484792 2.29885406 1.8244206 3.4375 2.75 C4.07558594 3.26046875 4.71367188 3.7709375 5.37109375 4.296875 C7.18810554 6.19667629 7.60423197 7.43586908 8 10 C4.63362603 8.5572683 2.33497429 6.83532593 0 4 C0 2.68 0 1.36 0 0 Z " fill="#1D7EB8" transform="translate(119,55)"/>
<path d="M0 0 C0.66 0.33 1.32 0.66 2 1 C2 2.65 2 4.3 2 6 C1.34 5.67 0.68 5.34 0 5 C-1.32 6.32 -2.64 7.64 -4 9 C-4.25 6.75 -4.25 6.75 -4 4 C-2 1.6875 -2 1.6875 0 0 Z " fill="#8D5ABA" transform="translate(93,71)"/>
<path d="M0 0 C3 1 3 1 4 2.9375 C4.33 3.618125 4.66 4.29875 5 5 C5.99 5.66 6.98 6.32 8 7 C3.44615385 7.36923077 3.44615385 7.36923077 1.1875 5.5 C0.795625 5.005 0.40375 4.51 0 4 C-0.99 4.33 -1.98 4.66 -3 5 C-1.125 1.125 -1.125 1.125 0 0 Z " fill="#0185A6" transform="translate(76,35)"/>
<path d="M0 0 C-0.33 0.99 -0.66 1.98 -1 3 C-2.093125 3.12375 -3.18625 3.2475 -4.3125 3.375 C-8.07381802 3.75464801 -8.07381802 3.75464801 -11 6 C-10.375 3.5625 -10.375 3.5625 -9 1 C-5.88090554 0.13727175 -3.2275749 0 0 0 Z " fill="#12ABC6" transform="translate(93,110)"/>
<path d="M0 0 C1.65 0 3.3 0 5 0 C5.33 0.66 5.66 1.32 6 2 C6.99 2.33 7.98 2.66 9 3 C9 3.99 9 4.98 9 6 C5.32579134 5.69381595 4.21864487 5.24228216 1.6875 2.4375 C1.130625 1.633125 0.57375 0.82875 0 0 Z " fill="#4B479D" transform="translate(62,90)"/>
<path d="M0 0 C2 1 2 1 4 4 C4.125 7.1875 4.125 7.1875 4 10 C1.4375 7.8125 1.4375 7.8125 -1 5 C-0.8125 2.1875 -0.8125 2.1875 0 0 Z " fill="#43186B" transform="translate(81,43)"/>
<path d="M0 0 C1.65 0 3.3 0 5 0 C4.67 1.65 4.34 3.3 4 5 C2.35 4.67 0.7 4.34 -1 4 C-0.67 2.68 -0.34 1.36 0 0 Z " fill="#1999A8" transform="translate(140,17)"/>
<path d="M0 0 C0.55429688 0.42152344 1.10859375 0.84304687 1.6796875 1.27734375 C2.40414062 1.82519531 3.12859375 2.37304688 3.875 2.9375 C4.59429687 3.48277344 5.31359375 4.02804688 6.0546875 4.58984375 C7.94357079 6.03964624 7.94357079 6.03964624 10 7 C9.34 8.32 8.68 9.64 8 11 C7.4225 10.2575 6.845 9.515 6.25 8.75 C4.09340686 6.00801381 4.09340686 6.00801381 1.75 3.8125 C0 2 0 2 0 0 Z " fill="#1B4A9C" transform="translate(105,39)"/>
<path d="M0 0 C0.33 0.66 0.66 1.32 1 2 C-2.14573677 4.09715785 -4.01456251 4.52004559 -7.6875 5.125 C-8.68136719 5.29257813 -9.67523438 5.46015625 -10.69921875 5.6328125 C-11.45847656 5.75398437 -12.21773438 5.87515625 -13 6 C-10.57804552 3.12744934 -8.40257297 2.29161081 -4.8125 1.3125 C-3.91144531 1.06113281 -3.01039062 0.80976562 -2.08203125 0.55078125 C-1.39496094 0.36902344 -0.70789063 0.18726563 0 0 Z " fill="#2DC4D5" transform="translate(107,5)"/>
<path d="M0 0 C0.33 0 0.66 0 1 0 C1.20413361 5.73842251 1.27141454 10.60539047 -1 16 C-1.66 16 -2.32 16 -3 16 C-2.01 10.72 -1.02 5.44 0 0 Z " fill="#3FE6EE" transform="translate(94,102)"/>
<path d="M0 0 C2.97 0 5.94 0 9 0 C8.01 0.495 8.01 0.495 7 1 C7 1.66 7 2.32 7 3 C7.66 3.33 8.32 3.66 9 4 C7.35 3.67 5.7 3.34 4 3 C3.67 3.66 3.34 4.32 3 5 C2.01 3.35 1.02 1.7 0 0 Z " fill="#9A35A8" transform="translate(98,67)"/>
<path d="M0 0 C-1.38188453 3.21043882 -2.92421903 5.04936365 -5.625 7.25 C-6.57246094 8.03117187 -6.57246094 8.03117187 -7.5390625 8.828125 C-8.02117188 9.21484375 -8.50328125 9.6015625 -9 10 C-7.6834994 5.81113445 -4.97532335 0 0 0 Z " fill="#A936AF" transform="translate(45,67)"/>
<path d="M0 0 C2.1875 0.3125 2.1875 0.3125 4 1 C2.68 1.33 1.36 1.66 0 2 C0 3.65 0 5.3 0 7 C1.32 7.33 2.64 7.66 4 8 C2.35 8 0.7 8 -1 8 C-1.66 6.35 -2.32 4.7 -3 3 C-1.75 1.4375 -1.75 1.4375 0 0 Z " fill="#BC48B9" transform="translate(83,74)"/>
<path d="M0 0 C0.33 1.32 0.66 2.64 1 4 C-1.01822917 3.96744792 -3.03645833 3.93489583 -5.0546875 3.90234375 C-7.08185404 3.87350758 -7.08185404 3.87350758 -9 5 C-8.67 3.68 -8.34 2.36 -8 1 C-5.23735711 0.40267181 -2.83967231 0 0 0 Z " fill="#A731A7" transform="translate(153,48)"/>
<path d="M0 0 C1.32 0.33 2.64 0.66 4 1 C3.67 2.32 3.34 3.64 3 5 C1.35 4.67 -0.3 4.34 -2 4 C-1.34 2.68 -0.68 1.36 0 0 Z " fill="#49A3D8" transform="translate(116,46)"/>
<path d="M0 0 C0.99 0.33 1.98 0.66 3 1 C0.03 3.97 -2.94 6.94 -6 10 C-6 6.41087588 -5.33563446 5.89142971 -3 3.3125 C-2.443125 2.68988281 -1.88625 2.06726563 -1.3125 1.42578125 C-0.879375 0.95527344 -0.44625 0.48476562 0 0 Z " fill="#0198A8" transform="translate(78,135)"/>
<path d="M0 0 C3.94139078 1.66751148 6.7892812 4.22710649 10 7 C9.01 7.33 8.02 7.66 7 8 C4.35247996 5.42215154 2.05567935 3.08351902 0 0 Z " fill="#1C71A6" transform="translate(57,120)"/>
<path d="M0 0 C0.66 0.33 1.32 0.66 2 1 C1.34 3.31 0.68 5.62 0 8 C-0.99 8 -1.98 8 -3 8 C-3 4.42424104 -1.91159393 2.94704065 0 0 Z " fill="#AB61C6" transform="translate(89,67)"/>
<path d="M0 0 C3.24208567 0.35049575 4.61527704 0.56221181 6.8125 3.0625 C7.204375 3.701875 7.59625 4.34125 8 5 C6.35 5 4.7 5 3 5 C3 4.34 3 3.68 3 3 C2.01 2.67 1.02 2.34 0 2 C0 1.34 0 0.68 0 0 Z " fill="#4D1A77" transform="translate(92,60)"/>
<path d="M0 0 C2.875 -0.125 2.875 -0.125 6 0 C6.66 0.66 7.32 1.32 8 2 C4.67395049 3.10868317 1.46941546 3.54177532 -2 4 C-1.34 2.68 -0.68 1.36 0 0 Z " fill="#C542BA" transform="translate(146,51)"/>
<path d="M0 0 C2.64 0 5.28 0 8 0 C7.67 0.99 7.34 1.98 7 3 C5.35 2.67 3.7 2.34 2 2 C1.67 2.66 1.34 3.32 1 4 C0.67 2.68 0.34 1.36 0 0 Z " fill="#3887A8" transform="translate(37,131)"/>
<path d="M0 0 C2.88437779 1.29299694 4.87219421 2.65941363 7 5 C5.02 5 3.04 5 1 5 C0.67 3.35 0.34 1.7 0 0 Z " fill="#721885" transform="translate(30,123)"/>
<path d="M0 0 C1.65 0 3.3 0 5 0 C5.33 1.65 5.66 3.3 6 5 C5.01 5.495 5.01 5.495 4 6 C3.67 5.34 3.34 4.68 3 4 C2.01 3.67 1.02 3.34 0 3 C0 2.01 0 1.02 0 0 Z " fill="#12AAC5" transform="translate(71,110)"/>
<path d="M0 0 C3.48897679 0.64610681 6.06769549 2.01871317 9 4 C9.33 4.66 9.66 5.32 10 6 C8.5164999 5.57742724 7.03823576 5.13643678 5.5625 4.6875 C4.73878906 4.44386719 3.91507813 4.20023437 3.06640625 3.94921875 C2.04353516 3.47935547 2.04353516 3.47935547 1 3 C0.67 2.01 0.34 1.02 0 0 Z " fill="#526ABB" transform="translate(44,100)"/>
<path d="M0 0 C0 1.32 0 2.64 0 4 C-1.65 3.67 -3.3 3.34 -5 3 C-5 2.34 -5 1.68 -5 1 C-5.66 0.67 -6.32 0.34 -7 0 C-3.98968256 -0.93423645 -3.13349732 -1.04449911 0 0 Z " fill="#AA2CC7" transform="translate(40,91)"/>
<path d="M0 0 C-2.31 2.31 -4.62 4.62 -7 7 C-8 4 -8 4 -7 1 C-2.55696203 -1.27848101 -2.55696203 -1.27848101 0 0 Z " fill="#BA26AF" transform="translate(146,64)"/>
<path d="M0 0 C2.88575819 0.39803561 3.82189513 0.79009069 5.75 3.0625 C6.1625 3.701875 6.575 4.34125 7 5 C3 5 3 5 1.25 3.625 C0 2 0 2 0 0 Z " fill="#DB3AB5" transform="translate(90,52)"/>
<path d="M0 0 C1.98 0.99 1.98 0.99 4 2 C4 3.32 4 4.64 4 6 C2.68 6 1.36 6 0 6 C0 4.02 0 2.04 0 0 Z " fill="#802190" transform="translate(131,43)"/>
<path d="M0 0 C1.32 0.66 2.64 1.32 4 2 C3.01 2.495 3.01 2.495 2 3 C2.33 5.31 2.66 7.62 3 10 C1.20762558 7.31143836 0.01553817 5.0466145 -1 2 C-0.67 1.34 -0.34 0.68 0 0 Z " fill="#B725A7" transform="translate(26,118)"/>
<path d="M0 0 C-1.39332574 3.36720387 -2.9789286 4.9859524 -6 7 C-5.37162381 3.35541809 -4.14650034 0 0 0 Z " fill="#C468D1" transform="translate(78,78)"/>
<path d="M0 0 C1.32 0 2.64 0 4 0 C3.67 1.65 3.34 3.3 3 5 C2.01 5 1.02 5 0 5 C0 3.35 0 1.7 0 0 Z " fill="#83138A" transform="translate(139,51)"/>
<path d="M0 0 C1.485 0.99 1.485 0.99 3 2 C3.66 1.67 4.32 1.34 5 1 C7 4 7 4 7 7 C4.13302508 5.71480435 2.02392288 4.42870746 0 2 C0 1.34 0 0.68 0 0 Z " fill="#934BB1" transform="translate(133,38)"/>
<path d="M0 0 C0.99 0 1.98 0 3 0 C2.67 1.32 2.34 2.64 2 4 C1.34 4 0.68 4 0 4 C0 4.66 0 5.32 0 6 C-0.66 6 -1.32 6 -2 6 C-1.125 1.125 -1.125 1.125 0 0 Z " fill="#2D9CAD" transform="translate(130,22)"/>
<path d="M0 0 C0.66 0.33 1.32 0.66 2 1 C0.02 3.31 -1.96 5.62 -4 8 C-4.66 7.01 -5.32 6.02 -6 5 C-4.02 3.35 -2.04 1.7 0 0 Z " fill="#38ACC1" transform="translate(95,11)"/>
<path d="M0 0 C0.66 0 1.32 0 2 0 C7 5.47619048 7 5.47619048 7 8 C3.64379729 6.61122646 1.92701272 5.08322035 0 2 C0 1.34 0 0.68 0 0 Z " fill="#CE26AF" transform="translate(17,110)"/>
<path d="M0 0 C0.33 1.65 0.66 3.3 1 5 C-0.65 4.67 -2.3 4.34 -4 4 C-4 3.01 -4 2.02 -4 1 C-2 0 -2 0 0 0 Z " fill="#A335AF" transform="translate(28,84)"/>
<path d="M0 0 C2.4375 0.375 2.4375 0.375 5 1 C5.33 1.66 5.66 2.32 6 3 C5.01 3 4.02 3 3 3 C2.67 3.66 2.34 4.32 2 5 C1.34 4.34 0.68 3.68 0 3 C0 2.01 0 1.02 0 0 Z " fill="#9F2C9E" transform="translate(87,49)"/>
<path d="M0 0 C2.64752004 2.57784846 4.94432065 4.91648098 7 8 C5.35 7.67 3.7 7.34 2 7 C1.855625 6.401875 1.71125 5.80375 1.5625 5.1875 C1.1127561 3.43849596 0.57107659 1.71322977 0 0 Z " fill="#BE35AE" transform="translate(135,42)"/>
<path d="M0 0 C2 1 2 1 3.125 4.0625 C3.41375 5.031875 3.7025 6.00125 4 7 C2.0625 6.25 2.0625 6.25 0 5 C-0.8125 2.9375 -0.8125 2.9375 -1 1 C-0.67 0.67 -0.34 0.34 0 0 Z " fill="#2C72AB" transform="translate(53,113)"/>
<path d="M0 0 C1.65 0.33 3.3 0.66 5 1 C5.33 1.99 5.66 2.98 6 4 C3.69 3.67 1.38 3.34 -1 3 C-0.67 2.01 -0.34 1.02 0 0 Z " fill="#9D229A" transform="translate(18,106)"/>
<path d="M0 0 C3.3 0 6.6 0 10 0 C10.33 0.99 10.66 1.98 11 3 C9.68 3 8.36 3 7 3 C7 2.34 7 1.68 7 1 C4.69 1 2.38 1 0 1 C0 0.67 0 0.34 0 0 Z " fill="#9A29BF" transform="translate(62,89)"/>
<path d="M0 0 C1.32 0.33 2.64 0.66 4 1 C2.25 4.875 2.25 4.875 0 6 C0 4.02 0 2.04 0 0 Z " fill="#BB49BF" transform="translate(95,67)"/>
<path d="M0 0 C2.40072955 2.88087546 4.47291037 5.56404834 6 9 C2.83884224 7.63016497 2.0072908 7.0109362 0 4 C0 2.68 0 1.36 0 0 Z " fill="#09476F" transform="translate(79,45)"/>
<path d="M0 0 C1.32 0 2.64 0 4 0 C6.25 2.5 6.25 2.5 8 5 C5.125 4.75 5.125 4.75 2 4 C0.625 1.9375 0.625 1.9375 0 0 Z " fill="#442279" transform="translate(122,30)"/>
<path d="M0 0 C0.66 0 1.32 0 2 0 C2.33 1.32 2.66 2.64 3 4 C2.01 3.67 1.02 3.34 0 3 C0 2.01 0 1.02 0 0 Z " fill="#0F90B2" transform="translate(0,122)"/>
<path d="M0 0 C0 0.99 0 1.98 0 3 C-0.66 3 -1.32 3 -2 3 C-2 2.34 -2 1.68 -2 1 C-1.34 0.67 -0.68 0.34 0 0 Z " fill="#1192B4" transform="translate(58,154)"/>
<path d="M0 0 C0.99 0.33 1.98 0.66 3 1 C2.01 1.33 1.02 1.66 0 2 C0 1.34 0 0.68 0 0 Z " fill="#1192B4" transform="translate(103,0)"/>
</svg>
