<?xml version="1.0" encoding="UTF-8"?>
<svg version="1.1" xmlns="http://www.w3.org/2000/svg" width="953" height="576">
<path d="M0 0 C2.1875 1.9375 2.1875 1.9375 4 4 C4.85207031 4.35964844 5.70414062 4.71929687 6.58203125 5.08984375 C12.27857322 8.27339692 16.30981669 13.26930196 20.72265625 18.015625 C24.96719964 22.54458006 24.96719964 22.54458006 30.53125 25.0234375 C31.75328125 25.01183594 31.75328125 25.01183594 33 25 C32.0409375 23.824375 32.0409375 23.824375 31.0625 22.625 C27.52494056 18.12265163 27.46564006 14.59620587 28 9 C29.74781882 4.8604291 32.22057195 2.40509058 36 0 C40.94157046 -1.39855768 44.57153846 -1.07531628 49.19921875 0.9375 C52.37514002 2.81136244 53.53351704 4.63930987 55 8 C55.76750662 12.91683926 55.86335578 17.30478883 53.0625 21.5625 C51 24 51 24 50 25 C53.08731924 25.30331557 54.58810099 25.27362902 57.2109375 23.53125 C57.92507812 22.8609375 58.63921875 22.190625 59.375 21.5 C60.1484375 20.77425781 60.921875 20.04851562 61.71875 19.30078125 C64.44010393 16.55612806 67.00703464 13.7210916 69.4921875 10.76171875 C73.37587197 6.22404596 73.37587197 6.22404596 76.4375 5.125 C79 5 79 5 81.3125 6.0625 C83 8 83 8 83.44287109 10.75366211 C82.85066421 15.0946626 80.68251536 17.0280907 77.6015625 19.87890625 C77.05140472 20.41345932 76.50124695 20.94801239 75.93441772 21.49876404 C74.17828068 23.20158728 72.40343404 24.88300159 70.625 26.5625 C68.85640833 28.24800832 67.09247981 29.93777864 65.33700562 31.63694763 C64.2456368 32.69179414 63.14634382 33.73852106 62.03823853 34.77577209 C59.06237568 37.63511001 57.19822563 40.0290096 56 44 C57.3303125 43.9071875 57.3303125 43.9071875 58.6875 43.8125 C63.36709668 44.07738283 65.69962246 45.56510065 68.8125 49 C70.65032855 53.64293529 70.80515726 58.08278959 70 63 C68.58594163 65.57280065 67.18689448 66.9771226 65 69 C65.99 69.33 66.98 69.66 68 70 C69.845372 79.75395032 70.26868692 89.25357166 70.1953125 99.14453125 C70.19157115 100.65052602 70.1887295 102.15652326 70.18673706 103.66252136 C70.17918878 107.58003753 70.15961875 111.49739965 70.1373291 115.41485596 C70.11667818 119.43084633 70.10769467 123.44686218 70.09765625 127.46289062 C70.07636225 135.30866312 70.04233623 143.15430978 70 151 C66.37 151 62.74 151 59 151 C59 140.11 59 129.22 59 118 C57.35 118 55.7 118 54 118 C54 128.89 54 139.78 54 151 C50.37 151 46.74 151 43 151 C42.9767116 142.58465009 42.95900151 134.16931391 42.94818783 125.75393963 C42.94299481 121.8453068 42.93596313 117.93669621 42.92456055 114.02807617 C42.91360324 110.24793597 42.90769627 106.467817 42.90512276 102.68766212 C42.90329145 101.25375853 42.899716 99.81985595 42.89426994 98.38596153 C42.86447126 90.20636117 43.05883861 82.13416622 44 74 C42.35 74 40.7 74 39 74 C39 84.89 39 95.78 39 107 C35.37 107 31.74 107 28 107 C27.99413376 106.22405487 27.98826752 105.44810974 27.98222351 104.64865112 C27.92422282 97.32166551 27.85210438 89.99501709 27.76428509 82.66833305 C27.7196342 78.90195751 27.6803668 75.13568882 27.65356445 71.36914062 C27.62747823 67.7314476 27.58703919 64.09416689 27.53681374 60.45672989 C27.52018077 59.07178009 27.50864428 57.68675902 27.50238609 56.30172348 C27.49270698 54.35581826 27.46291844 52.410045 27.43237305 50.46435547 C27.42126999 49.35849091 27.41016693 48.25262634 27.39872742 47.11325073 C26.73369978 41.92073655 24.36583396 38.03306818 20.8203125 34.2734375 C20.22089844 33.6340625 19.62148437 32.9946875 19.00390625 32.3359375 C18.07384766 31.36527344 18.07384766 31.36527344 17.125 30.375 C16.51269531 29.72015625 15.90039062 29.0653125 15.26953125 28.390625 C12.03314844 24.96712798 8.78271379 21.83343961 5 19 C3.68 20.65 2.36 22.3 1 24 C2.485 24.495 2.485 24.495 4 25 C5.23107719 32.72720775 6.2700558 40.1683819 6 48 C7.98 48.495 7.98 48.495 10 49 C10.75 52.25 10.75 52.25 11 56 C10.35772461 56.52174805 9.71544922 57.04349609 9.05371094 57.58105469 C5.77908155 61.43804803 6.39673911 65.54870343 6.390625 70.453125 C6.37408875 71.46848328 6.35755249 72.48384155 6.34051514 73.52996826 C6.2919661 76.77003995 6.2706484 80.00964205 6.25 83.25 C6.22184617 85.44794038 6.19191958 87.64585882 6.16015625 89.84375 C6.08620493 95.22912802 6.0366722 100.6142443 6 106 C2.37 106 -1.26 106 -5 106 C-5 95.11 -5 84.22 -5 73 C-9.27419551 75.49356502 -9.27419551 75.49356502 -9.54589844 79.09448242 C-9.5668457 80.33560791 -9.58779297 81.5767334 -9.609375 82.85546875 C-9.62591125 83.51710526 -9.64244751 84.17874176 -9.65948486 84.86042786 C-9.70799288 86.96954601 -9.72933927 89.07794323 -9.75 91.1875 C-9.77815777 92.61917695 -9.80808495 94.05082028 -9.83984375 95.48242188 C-9.91374893 98.98812393 -9.96330788 102.49368875 -10 106 C-12.31 106 -14.62 106 -17 106 C-17 120.19 -17 134.38 -17 149 C-20.63 149 -24.26 149 -28 149 C-28 138.11 -28 127.22 -28 116 C-29.65 116 -31.3 116 -33 116 C-33 126.89 -33 137.78 -33 149 C-36.63 149 -40.26 149 -44 149 C-44.00364563 148.22627548 -44.00729126 147.45255096 -44.01104736 146.65538025 C-44.04900385 139.34335823 -44.10594237 132.03184141 -44.18390274 124.72014523 C-44.22331641 120.96160644 -44.25553443 117.20329977 -44.27099609 113.44458008 C-44.28620357 109.81328125 -44.32071984 106.18262084 -44.36830902 102.55160713 C-44.38308103 101.17027923 -44.39103861 99.78886016 -44.39188385 98.40745354 C-44.40370479 88.7703571 -44.93448402 83.523881 -51.45776367 76.26513672 C-52.79931519 74.98533936 -52.79931519 74.98533936 -54.16796875 73.6796875 C-55.15307861 72.72274252 -56.13810217 71.76570871 -57.12304688 70.80859375 C-58.66070146 69.33329317 -60.20163118 67.86154447 -61.74487305 66.39208984 C-63.24856486 64.95481088 -64.73980883 63.50545959 -66.23046875 62.0546875 C-67.12145264 61.20374512 -68.01243652 60.35280273 -68.93041992 59.47607422 C-71.13213065 56.84191707 -71.80239463 55.39596394 -72 52 C-70.9375 49.6875 -70.9375 49.6875 -69 48 C-66.25 47.3125 -66.25 47.3125 -63 48 C-60.32604927 50.03466136 -58.19192573 52.46424278 -56 55 C-55.39800781 55.69480469 -54.79601562 56.38960938 -54.17578125 57.10546875 C-53.58152344 57.79253906 -52.98726562 58.47960937 -52.375 59.1875 C-47.9992525 64.21619869 -44.88735846 67.35931549 -38 68 C-38.804375 67.05125 -39.60875 66.1025 -40.4375 65.125 C-43.80619667 61.15166546 -44.3478452 58.49808902 -44.28125 53.3203125 C-43.72429063 48.72539767 -41.21011252 46.0372393 -37.8125 43.125 C-33.88738929 41.55495572 -30.1779007 41.424511 -26 42 C-24.68 42.66 -23.36 43.32 -22 44 C-20.515 34.595 -20.515 34.595 -19 25 C-18.01 24.67 -17.02 24.34 -16 24 C-16.9590625 22.824375 -16.9590625 22.824375 -17.9375 21.625 C-21.64875639 16.90158278 -21.62244424 12.87262605 -21 7 C-19.20649685 2.88988862 -17.31869181 0.84716628 -13.3125 -1 C-8.60392733 -2.4873809 -4.52577733 -1.85349926 0 0 Z M-22 66 C-22.99 66.99 -23.98 67.98 -25 69 C-23.68 69 -22.36 69 -21 69 C-21.33 68.01 -21.66 67.02 -22 66 Z " fill="#12599C" transform="translate(168,208)"/>
<path d="M0 0 C4.59809038 1.79925276 6.80850458 4.61700917 9 9 C9.82227768 13.63465604 9.68423705 17.50497212 7.0625 21.5 C5 24 5 24 4 25 C4.99 25.33 5.98 25.66 7 26 C7.226875 26.845625 7.45375 27.69125 7.6875 28.5625 C9.58817854 33.54046761 12.76207649 36.81204676 17 40 C19.54408709 40.8925784 21.26797993 41 24 41 C23.195625 40.236875 22.39125 39.47375 21.5625 38.6875 C17.81889408 34.76127916 17.64672202 31.47399537 17.72265625 26.28515625 C18.16232225 22.66255607 19.58208359 20.67243392 22 18 C26.38373454 15.0775103 29.77777599 14.440476 35 15 C38.73339564 16.31766905 40.68314341 17.65812841 43.375 20.5625 C45.54718446 25.15750558 45.83486972 28.99888721 45 34 C43.7667292 36.74859009 42.14198688 38.85801312 40 41 C44.85809983 40.55519544 47.0167657 39.57503382 50.3125 36 C51.46105469 34.7934375 51.46105469 34.7934375 52.6328125 33.5625 C53.80457031 32.2940625 53.80457031 32.2940625 55 31 C56.55020445 29.32189089 58.1123433 27.65471007 59.6875 26 C60.37199219 25.2575 61.05648437 24.515 61.76171875 23.75 C64.52257508 21.59142472 66.53393413 21.2279057 70 21 C71.9375 22 71.9375 22 73 24 C73.0625 27.375 73.0625 27.375 72 31 C69.375 33.4375 69.375 33.4375 67.72265625 34.64453125 C65.81410211 36.1462734 64.37591499 37.76773833 62.8125 39.625 C58.9872442 44.16213076 54.69833257 48.16003059 50.35546875 52.19140625 C44.66700975 58.9741625 45.66085985 67.60726713 45.5859375 76.02734375 C45.56720246 77.38498582 45.54762734 78.74261654 45.5272522 80.10023499 C45.47617133 83.65273304 45.43641798 87.20526875 45.39910889 90.75793457 C45.35891738 94.39145029 45.30789458 98.02481265 45.2578125 101.65820312 C45.16133846 108.77202861 45.0778461 115.88594271 45 123 C41.37 123 37.74 123 34 123 C34 111.78 34 100.56 34 89 C32.35 89 30.7 89 29 89 C29 100.22 29 111.44 29 123 C25.37 123 21.74 123 18 123 C17.99453156 121.84274414 17.99453156 121.84274414 17.98895264 120.66210938 C17.95096983 113.36511521 17.89400178 106.06862581 17.81609726 98.7719574 C17.77671162 95.02129453 17.74447997 91.2708633 17.72900391 87.52001953 C17.71377781 83.89520046 17.67922906 80.27101857 17.63169098 76.64648438 C17.61693801 75.26877403 17.6089625 73.89097267 17.60811615 72.51318359 C17.59613665 62.78360439 17.13930999 56.13930999 10 49 C9.67 68.14 9.34 87.28 9 107 C5.37 107 1.74 107 -2 107 C-2 96.11 -2 85.22 -2 74 C-3.65 74 -5.3 74 -7 74 C-7 84.89 -7 95.78 -7 107 C-10.63 107 -14.26 107 -18 107 C-18.04667042 98.50608896 -18.08204331 90.01223294 -18.10362434 81.51822472 C-18.1139905 77.57265008 -18.12801586 73.6271642 -18.15087891 69.68164062 C-18.17286661 65.86257704 -18.18462226 62.04359794 -18.18975449 58.22447586 C-18.19340435 56.77908628 -18.20052896 55.33370048 -18.21146011 53.88834763 C-18.28027061 44.39865745 -17.61255761 35.35845653 -16 26 C-15.01 25.67 -14.02 25.34 -13 25 C-13.825 24.236875 -14.65 23.47375 -15.5 22.6875 C-18.6057439 18.93213059 -18.76760769 15.4566592 -18.56640625 10.69921875 C-17.66303121 6.39416943 -15.34180769 3.75309546 -12 1 C-8.30813111 -0.84593445 -4.03827021 -0.34449699 0 0 Z " fill="#11599D" transform="translate(18,217)"/>
<path d="M0 0 C3.24873623 2.70728019 5.7647899 4.85611773 6.23828125 9.171875 C6.41156995 15.19137706 5.91554112 18.37254231 2 23 C1.505 23.495 1.505 23.495 1 24 C4.08731924 24.30331557 5.58810099 24.27362902 8.2109375 22.53125 C8.92507812 21.8609375 9.63921875 21.190625 10.375 20.5 C11.1484375 19.77425781 11.921875 19.04851562 12.71875 18.30078125 C15.44010393 15.55612806 18.00703464 12.7210916 20.4921875 9.76171875 C24.37587197 5.22404596 24.37587197 5.22404596 27.4375 4.125 C30 4 30 4 32.3125 5.0625 C34 7 34 7 34.44287109 9.75366211 C33.85066421 14.0946626 31.68251536 16.0280907 28.6015625 18.87890625 C28.05140472 19.41345932 27.50124695 19.94801239 26.93441772 20.49876404 C25.17828068 22.20158728 23.40343404 23.88300159 21.625 25.5625 C19.85640833 27.24800832 18.09247981 28.93777864 16.33700562 30.63694763 C15.2456368 31.69179414 14.14634382 32.73852106 13.03823853 33.77577209 C10.06237568 36.63511001 8.19822563 39.0290096 7 43 C7.886875 42.938125 8.77375 42.87625 9.6875 42.8125 C14.36709668 43.07738283 16.69962246 44.56510065 19.8125 48 C21.65032855 52.64293529 21.80515726 57.08278959 21 62 C19.58594163 64.57280065 18.18689448 65.9771226 16 68 C16.99 68.33 17.98 68.66 19 69 C20.845372 78.75395032 21.26868692 88.25357166 21.1953125 98.14453125 C21.19157115 99.65052602 21.1887295 101.15652326 21.18673706 102.66252136 C21.17918878 106.58003753 21.15961875 110.49739965 21.1373291 114.41485596 C21.11667818 118.43084633 21.10769467 122.44686218 21.09765625 126.46289062 C21.07636225 134.30866312 21.04233623 142.15430978 21 150 C17.37 150 13.74 150 10 150 C10 139.11 10 128.22 10 117 C8.35 117 6.7 117 5 117 C5 127.89 5 138.78 5 150 C1.37 150 -2.26 150 -6 150 C-6.0232884 141.58465009 -6.04099849 133.16931391 -6.05181217 124.75393963 C-6.05700519 120.8453068 -6.06403687 116.93669621 -6.07543945 113.02807617 C-6.08639676 109.24793597 -6.09230373 105.467817 -6.09487724 101.68766212 C-6.09670855 100.25375853 -6.100284 98.81985595 -6.10573006 97.38596153 C-6.13552874 89.20636117 -5.94116139 81.13416622 -5 73 C-6.65 73 -8.3 73 -10 73 C-10 83.89 -10 94.78 -10 106 C-13.63 106 -17.26 106 -21 106 C-21.00879936 104.83608231 -21.00879936 104.83608231 -21.01777649 103.64865112 C-21.07577718 96.32166551 -21.14789562 88.99501709 -21.23571491 81.66833305 C-21.2803658 77.90195751 -21.3196332 74.13568882 -21.34643555 70.36914062 C-21.37252177 66.7314476 -21.41296081 63.09416689 -21.46318626 59.45672989 C-21.47981923 58.07178009 -21.49135572 56.68675902 -21.49761391 55.30172348 C-21.50729302 53.35581826 -21.53708156 51.410045 -21.56762695 49.46435547 C-21.57873001 48.35849091 -21.58983307 47.25262634 -21.60127258 46.11325073 C-22.26546191 40.92728199 -24.61658145 37.04479538 -28.1796875 33.30859375 C-29.07880859 32.35629883 -29.07880859 32.35629883 -29.99609375 31.38476562 C-30.61613281 30.74216797 -31.23617187 30.09957031 -31.875 29.4375 C-32.48730469 28.79103516 -33.09960938 28.14457031 -33.73046875 27.47851562 C-34.33246094 26.84494141 -34.93445313 26.21136719 -35.5546875 25.55859375 C-36.13871338 24.9437915 -36.72273926 24.32898926 -37.32446289 23.69555664 C-38.78960793 22.21290586 -40.3514922 20.82714295 -41.92578125 19.4609375 C-44.65219378 16.22621077 -44.5228802 14.35302801 -44.3125 10.1875 C-44.26738281 9.02605469 -44.22226563 7.86460937 -44.17578125 6.66796875 C-44.11777344 5.78753906 -44.05976563 4.90710938 -44 4 C-40.07950922 5.31987446 -37.8142322 6.86237556 -35.00390625 9.87890625 C-34.28009766 10.63494141 -33.55628906 11.39097656 -32.81054688 12.16992188 C-31.31172643 13.76510436 -29.81692594 15.36407351 -28.32617188 16.96679688 C-24.05706307 21.52462652 -24.05706307 21.52462652 -18.46484375 24.02734375 C-17.65144531 24.01832031 -16.83804688 24.00929687 -16 24 C-16.639375 23.21625 -17.27875 22.4325 -17.9375 21.625 C-21.47505944 17.12265163 -21.53435994 13.59620587 -21 8 C-19.24668497 3.84741177 -16.6999343 1.5267844 -13 -1 C-8.4526139 -2.56611222 -4.42728482 -1.6257053 0 0 Z " fill="#12599C" transform="translate(217,209)"/>
<path d="M0 0 C0.84026396 1.76755526 1.67198722 3.53917263 2.5 5.3125 C2.9640625 6.29863281 3.428125 7.28476563 3.90625 8.30078125 C5 11 5 11 5 14 C3.88882813 14.54527344 2.77765625 15.09054688 1.6328125 15.65234375 C-15.71328868 24.35661342 -25.86021097 33.89997121 -32.13343811 52.73381042 C-34.40988806 59.86282375 -35.72965973 67.13228794 -37.02542114 74.49099731 C-40.9951875 96.85521981 -45.428707 117.34284538 -62 134 C-62.59167969 134.62648437 -63.18335938 135.25296875 -63.79296875 135.8984375 C-76.60673974 148.40105731 -95.77859739 153.65558414 -113.17480469 153.47094727 C-126.82127277 153.00578285 -138.15508494 148.49736481 -150 142 C-150.1003477 136.77564767 -149.60191823 132.90587458 -148 128 C-143.69211527 128.63850449 -140.2229625 130.17638183 -136.3125 132.0625 C-132.32256871 134.20762568 -132.32256871 134.20762568 -128 135 C-128.64400757 133.67609253 -128.64400757 133.67609253 -129.30102539 132.32543945 C-130.89342084 129.04265282 -132.46755522 125.7513843 -134.03637695 122.45727539 C-134.71731147 121.03400398 -135.40314645 119.61306617 -136.09399414 118.19458008 C-137.08743699 116.15262232 -138.06282792 114.10286095 -139.03515625 112.05078125 C-139.34655045 111.4203743 -139.65794464 110.78996735 -139.97877502 110.14045715 C-141.75073115 106.34681807 -142.35797109 104.00281531 -141 100 C-140.02734375 97.76171875 -140.02734375 97.76171875 -138.9375 95.6875 C-138.57527344 94.99011719 -138.21304687 94.29273437 -137.83984375 93.57421875 C-137.56269531 93.05472656 -137.28554688 92.53523438 -137 92 C-134.73299017 94.08305433 -133.3458592 95.9686823 -132.03881836 98.74951172 C-131.6851268 99.49393524 -131.33143524 100.23835876 -130.96702576 101.00534058 C-130.59505569 101.80537506 -130.22308563 102.60540955 -129.83984375 103.4296875 C-129.44930313 104.257034 -129.05876251 105.08438049 -128.65638733 105.9367981 C-127.41070129 108.58006451 -126.17419446 111.22751681 -124.9375 113.875 C-124.10147117 115.65000332 -123.26488878 117.42474602 -122.42773438 119.19921875 C-121.62711307 120.90081068 -120.82696708 122.60262636 -120.02734375 124.3046875 C-119.46635231 125.49866653 -119.46635231 125.49866653 -118.89402771 126.71676636 C-117.15488145 130.44138485 -115.46934653 134.15812623 -114 138 C-108.91696314 138.11320856 -108.91696314 138.11320856 -104 137 C-104.61089478 135.65760254 -104.61089478 135.65760254 -105.23413086 134.28808594 C-105.81104002 133.02018451 -106.38794387 131.75228065 -106.96484375 130.484375 C-107.27390152 129.80523041 -107.58295929 129.12608582 -107.90138245 128.42636108 C-109.60309998 124.68610479 -111.30308309 120.94507368 -113 117.20263672 C-115.98933597 110.61144164 -118.98054315 104.02223389 -122.03515625 97.4609375 C-122.45998291 96.54086914 -122.88480957 95.62080078 -123.32250977 94.67285156 C-124.0899258 93.01231793 -124.86480603 91.3552073 -125.64819336 89.70214844 C-128.11256762 84.33770285 -128.11256762 84.33770285 -127 81 C-124.75 78.75 -124.75 78.75 -122 77 C-119.51000977 77.06103516 -119.51000977 77.06103516 -117 78 C-115.42944336 80.25537109 -115.42944336 80.25537109 -114.08984375 83.2734375 C-113.32546997 84.95808105 -113.32546997 84.95808105 -112.5456543 86.67675781 C-112.00919933 87.90932966 -111.47315737 89.14208132 -110.9375 90.375 C-110.37641256 91.62932312 -109.81364649 92.88289661 -109.24926758 94.13574219 C-107.77727754 97.41505705 -106.32793422 100.70390667 -104.88305664 103.99523926 C-103.43083368 107.29215074 -101.95692191 110.5793164 -100.484375 113.8671875 C-97.63567691 120.2357464 -94.81035521 126.61443152 -92 133 C-79.43738165 128.88430822 -69.38483195 121.78877619 -62.61328125 110.22265625 C-56.38942547 97.79001455 -54.0256081 84.54652167 -51.5 71 C-48.17634575 53.19127059 -44.72003051 37.00369382 -34 22 C-33.51917969 21.31679688 -33.03835938 20.63359375 -32.54296875 19.9296875 C-26.13335549 11.69139496 -10.92082309 0 0 0 Z " fill="#11599D" transform="translate(623,5)"/>
<path d="M0 0 C-0.66 4.29 -1.32 8.58 -2 13 C-6.23569411 14.41189804 -8.72400067 12.50940347 -12.5 10.625 C-17.65003194 8.07863397 -17.65003194 8.07863397 -23 6 C-22.58113525 6.88260498 -22.16227051 7.76520996 -21.73071289 8.67456055 C-20.17269349 11.9613152 -18.6220138 15.25148864 -17.07348633 18.54272461 C-16.40327279 19.96456135 -15.73109345 21.38547325 -15.05688477 22.80541992 C-14.08607403 24.85092888 -13.12246744 26.89970004 -12.16015625 28.94921875 C-11.85908463 29.5796257 -11.558013 30.21003265 -11.24781799 30.85954285 C-9.68462268 34.20804322 -8.40060655 37.30986002 -8 41 C-8.99609375 43.45703125 -8.99609375 43.45703125 -10.4375 45.8125 C-11.14712891 46.99779297 -11.14712891 46.99779297 -11.87109375 48.20703125 C-12.24363281 48.79871094 -12.61617187 49.39039063 -13 50 C-14.87705994 49.72589111 -14.87705994 49.72589111 -17 49 C-18.10621643 47.43280029 -18.10621643 47.43280029 -18.96704102 45.38574219 C-19.2974086 44.62114685 -19.62777618 43.85655151 -19.96815491 43.06878662 C-20.30995285 42.23655579 -20.65175079 41.40432495 -21.00390625 40.546875 C-21.55074318 39.26831635 -21.55074318 39.26831635 -22.10862732 37.96392822 C-23.27416422 35.23174602 -24.4189831 32.49146228 -25.5625 29.75 C-26.71343586 27.02461852 -27.86858945 24.30109498 -29.02708435 21.57891846 C-29.74693005 19.88384327 -30.46172648 18.18661251 -31.17079163 16.48699951 C-32.87186869 12.44659137 -34.71342109 8.75046865 -37 5 C-37 4.34 -37 3.68 -37 3 C-38.45880109 3.14107747 -39.91703551 3.28802415 -41.375 3.4375 C-42.59316406 3.55931641 -42.59316406 3.55931641 -43.8359375 3.68359375 C-46.04272805 3.89090114 -46.04272805 3.89090114 -48 5 C-47.55684448 5.91604004 -47.55684448 5.91604004 -47.10473633 6.85058594 C-38.90237379 23.82489768 -30.89830498 40.88251966 -23 58 C-25.84936103 61.00765886 -28.23511958 63.27845212 -32 65 C-37.40732682 54.29292283 -42.67934207 43.52838405 -47.81176758 32.68676758 C-48.95589926 30.27369436 -50.10785926 27.8644479 -51.25976562 25.45507812 C-51.99527314 23.90387404 -52.73031719 22.35245008 -53.46484375 20.80078125 C-53.80644028 20.08932449 -54.1480368 19.37786774 -54.49998474 18.64485168 C-56.1573038 15.12037159 -57.46337232 11.87001046 -58 8 C-71.18231436 12.34644638 -82.21083055 20.45364608 -88.71801758 32.84008789 C-94.6465587 44.91580004 -96.84950536 58.13147997 -99.4296875 71.23046875 C-102.94051231 88.97033858 -106.17889055 105.08861474 -117 120 C-117.721875 121.03125 -118.44375 122.0625 -119.1875 123.125 C-126.6237591 131.50286334 -137.57834434 138.03116709 -148 142 C-151 141 -151 141 -152.38671875 138.56640625 C-152.81597656 137.57511719 -153.24523437 136.58382812 -153.6875 135.5625 C-154.12449219 134.57378906 -154.56148438 133.58507812 -155.01171875 132.56640625 C-156 130 -156 130 -156 128 C-154.88882812 127.45472656 -153.77765625 126.90945312 -152.6328125 126.34765625 C-136.12363258 118.06613603 -124.95871931 108.40140958 -118.97583008 90.52929688 C-116.07145438 81.02192156 -114.44657057 71.19735321 -112.6131897 61.44174194 C-108.75882098 40.9753462 -104.31294267 23.1517538 -89 8 C-88.40960938 7.37609375 -87.81921875 6.7521875 -87.2109375 6.109375 C-63.69989151 -16.88380654 -26.72023719 -16.03214231 0 0 Z " fill="#11599D" transform="translate(569,66)"/>
<path d="M0 0 C4.78064719 0.61539967 6.78016293 2.98981495 10.06787109 6.34619141 C10.98737045 7.25708023 10.98737045 7.25708023 11.92544556 8.18637085 C13.21517206 9.47202135 14.49738007 10.76525261 15.77246094 12.06542969 C17.72553006 14.05062005 19.7085225 16.00178292 21.69677734 17.95166016 C22.94740355 19.20625133 24.19616718 20.46270253 25.44287109 21.72119141 C26.03651459 22.30268951 26.63015808 22.88418762 27.24179077 23.48330688 C30.03168083 26.37069073 31.26269697 27.70006471 31.7890625 31.7890625 C31.35693359 34.43212891 31.35693359 34.43212891 30.35693359 35.43212891 C27.63037109 35.80712891 27.63037109 35.80712891 24.35693359 35.43212891 C21.58349609 33.24462891 21.58349609 33.24462891 18.98193359 30.43212891 C18.10794922 29.50400391 17.23396484 28.57587891 16.33349609 27.61962891 C15.35509766 26.53681641 15.35509766 26.53681641 14.35693359 25.43212891 C10.89193359 28.40212891 10.89193359 28.40212891 7.35693359 31.43212891 C8.05818359 32.11275391 8.75943359 32.79337891 9.48193359 33.49462891 C10.44380496 34.47032026 11.40176201 35.44987772 12.35693359 36.43212891 C12.91896484 36.99802734 13.48099609 37.56392578 14.06005859 38.14697266 C14.61177734 38.73607422 15.16349609 39.32517578 15.73193359 39.93212891 C16.51697266 40.75197266 16.51697266 40.75197266 17.31787109 41.58837891 C18.35693359 43.43212891 18.35693359 43.43212891 18.26824951 45.66764832 C17.01506619 49.46918508 14.59859427 51.7569686 11.81494141 54.50756836 C11.23761261 55.09351273 10.66028381 55.67945709 10.06546021 56.28315735 C8.1570753 58.21421783 6.23433846 60.13019758 4.31005859 62.04541016 C2.97773655 63.38296642 1.64593619 64.72104252 0.31463623 66.05961609 C-2.47649223 68.86115129 -5.2749815 71.65507128 -8.07861328 74.4440918 C-11.67311833 78.02139484 -15.2468588 81.61866239 -18.81513596 85.22210407 C-21.56008521 87.98899543 -24.31661016 90.74411863 -27.0766983 93.49590111 C-28.39941767 94.81779949 -29.71828789 96.14356094 -31.03322601 97.47319984 C-32.87157195 99.32893471 -34.72510699 101.16802925 -36.58349609 103.00366211 C-37.39574142 103.83344574 -37.39574142 103.83344574 -38.22439575 104.67999268 C-40.53608314 106.93435438 -42.01060338 108.35049934 -45.27178955 108.77140808 C-46.44557159 108.60346489 -46.44557159 108.60346489 -47.64306641 108.43212891 C-51.63794654 107.98571217 -51.63794654 107.98571217 -53.82666016 110.40087891 C-55.32811323 112.08708617 -56.82811657 113.77458544 -58.32666016 115.46337891 C-60.64306641 117.43212891 -60.64306641 117.43212891 -63.18994141 117.90087891 C-66.09905362 117.34499759 -67.31370311 116.44800024 -69.45556641 114.43212891 C-70.06013672 113.87525391 -70.66470703 113.31837891 -71.28759766 112.74462891 C-71.73490234 112.31150391 -72.18220703 111.87837891 -72.64306641 111.43212891 C-73.30693359 112.14240234 -73.97080078 112.85267578 -74.65478516 113.58447266 C-75.97929688 114.963125 -75.97929688 114.963125 -77.33056641 116.36962891 C-78.20068359 117.28615234 -79.07080078 118.20267578 -79.96728516 119.14697266 C-82.70743128 121.48709745 -84.08703565 122.25584704 -87.64306641 122.43212891 C-89.51806641 121.30712891 -89.51806641 121.30712891 -90.64306641 119.43212891 C-90.39974283 114.5237051 -88.04029776 112.40418399 -84.58056641 109.11962891 C-83.20191406 107.79511719 -83.20191406 107.79511719 -81.79541016 106.44384766 C-81.08513672 105.77998047 -80.37486328 105.11611328 -79.64306641 104.43212891 C-80.07619141 103.98482422 -80.50931641 103.53751953 -80.95556641 103.07666016 C-81.79087891 102.16980469 -81.79087891 102.16980469 -82.64306641 101.24462891 C-83.19994141 100.65294922 -83.75681641 100.06126953 -84.33056641 99.45166016 C-86.05371892 96.80026179 -86.25414911 95.53965028 -85.64306641 92.43212891 C-83.18106781 89.77974729 -80.50118716 87.55288065 -77.73291016 85.22509766 C-76.6984375 83.84257812 -76.6984375 83.84257812 -75.64306641 82.43212891 C-75.87647736 81.18907486 -76.10988831 79.94602081 -76.35037231 78.66529846 C-76.91826354 74.9219412 -76.73892721 74.57776991 -74.48117065 71.14756775 C-73.42280047 70.04506668 -72.33909188 68.96654375 -71.23632812 67.90844727 C-70.64953781 67.31070496 -70.0627475 66.71296265 -69.45817566 66.09710693 C-67.51788791 64.13255235 -65.54698574 62.20236705 -63.57275391 60.27197266 C-62.21413434 58.91490927 -60.85706844 57.55628879 -59.50149536 56.19618225 C-56.65862771 53.35358352 -53.80091491 50.52710845 -50.93115234 47.71166992 C-47.24991427 44.09859349 -43.60293143 40.45312403 -39.96577263 36.79573727 C-37.16849954 33.9884512 -34.35649838 31.19631945 -31.53949356 28.4088459 C-30.18867834 27.06959107 -28.84190042 25.72625156 -27.49923325 24.37882805 C-25.62255496 22.50103962 -23.72762976 20.64390724 -21.82617188 18.79125977 C-21.27218216 18.2298378 -20.71819244 17.66841583 -20.14741516 17.08998108 C-16.32833296 13.42652621 -16.32833296 13.42652621 -12.92385864 13.45436096 C-9.67449573 14.84735189 -7.75384242 16.94211151 -5.33056641 19.49462891 C-4.00605469 20.87328125 -4.00605469 20.87328125 -2.65478516 22.27978516 C-1.99091797 22.99005859 -1.32705078 23.70033203 -0.64306641 24.43212891 C1.66693359 22.45212891 3.97693359 20.47212891 6.35693359 18.43212891 C5.44943359 17.35962891 4.54193359 16.28712891 3.60693359 15.18212891 C3.06294922 14.53888672 2.51896484 13.89564453 1.95849609 13.23291016 C0.31179323 11.30374723 0.31179323 11.30374723 -2.01806641 9.36962891 C-3.64306641 7.43212891 -3.64306641 7.43212891 -3.95556641 4.24462891 C-3.54840175 0.58014697 -3.54840175 0.58014697 0 0 Z M-15.64697266 26.37353516 C-17.33469525 28.10248456 -19.02220008 29.83164657 -20.70947266 31.56103516 C-22.82280121 33.68007422 -25.02551277 35.64470665 -27.29907227 37.59033203 C-31.74937227 41.46928854 -35.92239158 45.58416679 -40.08056641 49.77197266 C-41.22887939 50.92240807 -41.22887939 50.92240807 -42.40039062 52.09608459 C-44.81699838 54.51823772 -47.23008367 56.94386503 -49.64306641 59.36962891 C-51.29257326 61.02415783 -52.94231069 62.67845692 -54.59228516 64.33251953 C-58.61188012 68.36307093 -62.6285981 72.39647163 -66.64306641 76.43212891 C-63.52533964 80.11671874 -60.42634609 83.77888016 -56.99462891 87.17822266 C-56.38232422 87.78730469 -55.77001953 88.39638672 -55.13916016 89.02392578 C-54.52169922 89.63300781 -53.90423828 90.24208984 -53.26806641 90.86962891 C-52.62740234 91.50578125 -51.98673828 92.14193359 -51.32666016 92.79736328 C-49.76775761 94.34463222 -48.20655224 95.88949382 -46.64306641 97.43212891 C-42.86005414 95.86269207 -40.47050093 93.50111613 -37.59912109 90.61523438 C-37.11085846 90.12726379 -36.62259583 89.63929321 -36.11953735 89.13653564 C-34.51321679 87.52882616 -32.91408928 85.9141579 -31.31494141 84.29931641 C-30.20008324 83.18072656 -29.08478153 82.06257861 -27.96905518 80.94485474 C-25.03836032 78.00653566 -22.11372219 75.06225936 -19.19030762 72.11669922 C-16.20423915 69.11014628 -13.21247782 66.10927009 -10.22119141 63.10791016 C-4.35623185 57.22152205 1.50234091 51.32882791 7.35693359 45.43212891 C2.6960344 39.92722192 2.6960344 39.92722192 -2.25634766 34.68603516 C-2.86414063 34.07695312 -3.47193359 33.46787109 -4.09814453 32.84033203 C-4.71109375 32.23125 -5.32404297 31.62216797 -5.95556641 30.99462891 C-6.90399414 30.04040039 -6.90399414 30.04040039 -7.87158203 29.06689453 C-8.77360352 28.16680664 -8.77360352 28.16680664 -9.69384766 27.24853516 C-10.2369458 26.70656494 -10.78004395 26.16459473 -11.33959961 25.60620117 C-13.49591845 23.66393908 -13.44449916 24.23975479 -15.64697266 26.37353516 Z M-70.15087891 89.74462891 C-70.68455078 90.30150391 -71.21822266 90.85837891 -71.76806641 91.43212891 C-72.30689453 91.98900391 -72.84572266 92.54587891 -73.40087891 93.11962891 C-73.81080078 93.55275391 -74.22072266 93.98587891 -74.64306641 94.43212891 C-73.16585219 97.8841453 -71.2051264 100.08174827 -68.51806641 102.68212891 C-67.79361328 103.38853516 -67.06916016 104.09494141 -66.32275391 104.82275391 C-65.76845703 105.35384766 -65.21416016 105.88494141 -64.64306641 106.43212891 C-61.31546717 104.88018136 -59.15726155 103.12590942 -56.64306641 100.43212891 C-58.11272999 97.03353188 -60.02344155 94.78249182 -62.64306641 92.18212891 C-63.34431641 91.47572266 -64.04556641 90.76931641 -64.76806641 90.04150391 C-67.06362354 88.0711507 -67.82352746 87.71874786 -70.15087891 89.74462891 Z " fill="#11599D" transform="translate(911.64306640625,211.56787109375)"/>
<path d="M0 0 C3.58000272 2.20893785 5.41196632 4.15127208 7 8 C7.68558731 12.83099896 7.8359347 17.39730534 5.0625 21.5625 C3 24 3 24 2 25 C2.99 25.33 3.98 25.66 5 26 C6.845372 35.75395032 7.26868692 45.25357166 7.1953125 55.14453125 C7.19157115 56.65052602 7.1887295 58.15652326 7.18673706 59.66252136 C7.17918878 63.58003753 7.15961875 67.49739965 7.1373291 71.41485596 C7.11667818 75.43084633 7.10769467 79.44686218 7.09765625 83.46289062 C7.07636225 91.30866312 7.04233623 99.15430978 7 107 C3.37 107 -0.26 107 -4 107 C-4 95.78 -4 84.56 -4 73 C-5.65 73 -7.3 73 -9 73 C-9 84.22 -9 95.44 -9 107 C-12.63 107 -16.26 107 -20 107 C-20.04671145 98.65374374 -20.08206354 90.30754374 -20.10362434 81.96118832 C-20.11398181 78.08402263 -20.12799048 74.20694755 -20.15087891 70.32983398 C-20.17289862 66.5756042 -20.18462872 62.82146056 -20.18975449 59.0671711 C-20.19339879 57.64772756 -20.20051173 56.22828775 -20.21146011 54.80888176 C-20.28377021 45.02910933 -19.52676164 35.65118714 -18 26 C-16.68 25.67 -15.36 25.34 -14 25 C-14.804375 24.236875 -15.60875 23.47375 -16.4375 22.6875 C-19.98594853 18.96595642 -20.31490218 16.13514051 -20.203125 11.05859375 C-19.87142091 7.69690039 -18.98743155 5.73271837 -17 3 C-11.6957749 -1.121358 -6.39891433 -1.91723197 0 0 Z " fill="#AF0000" transform="translate(96,265)"/>
<path d="M0 0 C4.59809038 1.79925276 6.80850458 4.61700917 9 9 C9.82227768 13.63465604 9.68423705 17.50497212 7.0625 21.5 C5 24 5 24 4 25 C4.99 25.33 5.98 25.66 7 26 C9.49703304 42.08854995 9.23885765 58.21089242 9.1373291 74.44036865 C9.11655339 78.12168036 9.10766888 81.80302107 9.09765625 85.484375 C9.07646126 92.65633636 9.0414044 99.82812162 9 107 C5.37 107 1.74 107 -2 107 C-2 96.11 -2 85.22 -2 74 C-3.65 74 -5.3 74 -7 74 C-7 84.89 -7 95.78 -7 107 C-10.63 107 -14.26 107 -18 107 C-18.04667042 98.50608896 -18.08204331 90.01223294 -18.10362434 81.51822472 C-18.1139905 77.57265008 -18.12801586 73.6271642 -18.15087891 69.68164062 C-18.17286661 65.86257704 -18.18462226 62.04359794 -18.18975449 58.22447586 C-18.19340435 56.77908628 -18.20052896 55.33370048 -18.21146011 53.88834763 C-18.28027061 44.39865745 -17.61255761 35.35845653 -16 26 C-15.01 25.67 -14.02 25.34 -13 25 C-13.825 24.236875 -14.65 23.47375 -15.5 22.6875 C-18.6057439 18.93213059 -18.76760769 15.4566592 -18.56640625 10.69921875 C-17.66303121 6.39416943 -15.34180769 3.75309546 -12 1 C-8.30813111 -0.84593445 -4.03827021 -0.34449699 0 0 Z " fill="#AF0000" transform="translate(18,217)"/>
<path d="M0 0 C3.40111661 2.81806805 4.92353844 4.91255694 5.54296875 9.37109375 C5.78368737 14.16594838 5.86526275 17.70835127 2.6875 21.5 C1.8625 22.263125 1.0375 23.02625 0.1875 23.8125 C1.1775 24.1425 2.1675 24.4725 3.1875 24.8125 C5.032872 34.56645032 5.45618692 44.06607166 5.3828125 53.95703125 C5.37907115 55.46302602 5.3762295 56.96902326 5.37423706 58.47502136 C5.36668878 62.39253753 5.34711875 66.30989965 5.3248291 70.22735596 C5.30417818 74.24334633 5.29519467 78.25936218 5.28515625 82.27539062 C5.26386225 90.12116312 5.22983623 97.96680978 5.1875 105.8125 C1.5575 105.8125 -2.0725 105.8125 -5.8125 105.8125 C-5.8125 94.9225 -5.8125 84.0325 -5.8125 72.8125 C-7.4625 72.8125 -9.1125 72.8125 -10.8125 72.8125 C-10.8125 83.7025 -10.8125 94.5925 -10.8125 105.8125 C-14.4425 105.8125 -18.0725 105.8125 -21.8125 105.8125 C-21.85911014 97.41443149 -21.89451344 89.01641823 -21.91612434 80.6182518 C-21.92650333 76.71745949 -21.94055313 72.81675653 -21.96337891 68.91601562 C-21.9853196 65.14234811 -21.99711271 61.36876582 -22.00225449 57.59503937 C-22.00591256 56.16474315 -22.0130542 54.7344509 -22.02396011 53.30419159 C-22.17580967 32.53911933 -22.17580967 32.53911933 -18.8125 25.8125 C-15.75 25.1875 -15.75 25.1875 -12.8125 24.8125 C-13.575625 24.4 -14.33875 23.9875 -15.125 23.5625 C-18.54937803 21.33267245 -20.28938284 19.78453878 -21.35546875 15.765625 C-22.07709065 11.50734132 -22.09956544 9.38663089 -20.125 5.4375 C-14.66380516 -0.76169415 -7.93453162 -3.35013557 0 0 Z " fill="#AF0000" transform="translate(232.8125,253.1875)"/>
<path d="M0 0 C2.475 1.485 2.475 1.485 5 3 C-0.7923694 14.75850987 -0.7923694 14.75850987 -3.4375 19 C-5.21164261 21.70082456 -5.21164261 21.70082456 -4.76171875 23.73828125 C-4.51035156 24.48464844 -4.25898438 25.23101562 -4 26 C-3.65710938 27.12792969 -3.31421875 28.25585938 -2.9609375 29.41796875 C-1.33559745 33.58508723 0.30908737 37.30503253 4 40 C11.39536501 42.08963653 19.40288865 41.49912124 27 41 C27.29438965 40.24372314 27.5887793 39.48744629 27.89208984 38.70825195 C30.12331698 33.25408654 33.18216884 28.16602379 36 23 C44.25 23 52.5 23 61 23 C61.66 21.02 62.32 19.04 63 17 C64.15769836 14.84699536 65.36730311 12.72116149 66.625 10.625 C67.57246094 9.03558594 67.57246094 9.03558594 68.5390625 7.4140625 C69.02117187 6.61742187 69.50328125 5.82078125 70 5 C71.98 5.66 73.96 6.32 76 7 C74.98068061 9.9252343 73.88208124 12.16380247 72.0625 14.69140625 C69.8513697 17.76940013 68.22298394 20.40425498 67 24 C68.03045408 28.6427681 70.31240285 32.12218126 73 36 C73.9640547 37.47544412 74.92319169 38.95412623 75.875 40.4375 C76.28492188 41.01371094 76.69484375 41.58992188 77.1171875 42.18359375 C78.39138849 44.80529048 78.46700557 46.08019999 78 49 C76.10937279 52.75774154 73.75739589 56.23912425 71.46679688 59.76171875 C68.78281968 63.90590196 68.78281968 63.90590196 67.96484375 68.6484375 C69.7787735 72.76913829 72.20425194 76.45812264 74.6015625 80.2578125 C75.29378906 81.61519531 75.29378906 81.61519531 76 83 C75.505 84.485 75.505 84.485 75 86 C72.9375 86.6875 72.9375 86.6875 71 87 C70.08023053 85.64793888 69.16437303 84.29321645 68.25 82.9375 C67.73953125 82.18339844 67.2290625 81.42929687 66.703125 80.65234375 C65 78 65 78 64.29980469 76.16235352 C63.40546387 74.02396169 62.66463703 72.62595644 61 71 C57.2579035 69.97464713 53.61101378 70.02085201 49.75 70.0625 C48.71875 70.04638672 47.6875 70.03027344 46.625 70.01367188 C44.08198638 69.97835224 41.54301817 69.97492531 39 70 C38.72542969 70.7321875 38.45085937 71.464375 38.16796875 72.21875 C36.74248979 75.61320158 34.8732946 78.60272865 32.92578125 81.71875 C31.73448469 84.65426558 32.10159133 85.98423622 33 89 C33.40605469 90.52367187 33.40605469 90.52367187 33.8203125 92.078125 C35.45869405 96.06125619 36.6692135 98.20230993 40 101 C47.4450282 102.85668566 55.39027827 102.37523832 63 102 C63 103.98 63 105.96 63 108 C58.79285562 108.26221814 54.58781109 108.42147604 50.375 108.5625 C48.59029297 108.67561523 48.59029297 108.67561523 46.76953125 108.79101562 C38.16593593 109.00730713 38.16593593 109.00730713 35.00097656 106.27294922 C32.86468705 103.12599359 31.3627613 99.92957039 29.98217773 96.3918457 C28.8666155 93.82155575 27.99738438 91.97595694 26 90 C21.77444755 89.25721793 17.68612142 89.84776541 13.4375 90.25 C1.99715997 90.70385646 1.99715997 90.70385646 -2.38720703 86.96337891 C-6.56740838 81.50626388 -12 73.11872735 -12 66 C-18.6 66 -25.2 66 -32 66 C-32 64.02 -32 62.04 -32 60 C-31.06317383 60.06453369 -31.06317383 60.06453369 -30.10742188 60.13037109 C-18.6259543 61.18217562 -18.6259543 61.18217562 -8.140625 57.65917969 C-4.89201847 53.93245163 -3.06513709 49.79311693 -2 45 C-3.18901745 39.65791445 -7.15777976 34.57764436 -10.07421875 29.97070312 C-13.11883288 24.83960424 -13.11883288 24.83960424 -12.58203125 21.046875 C-10.48773176 17.01340932 -8.28348401 13.07977616 -5.9375 9.1875 C-5.47794922 8.41212891 -5.01839844 7.63675781 -4.54492188 6.83789062 C-1.16502638 1.16502638 -1.16502638 1.16502638 0 0 Z M40 28 C38.494375 30.5575 36.98875 33.115 35.4375 35.75 C34.71904907 36.94834473 34.71904907 36.94834473 33.98608398 38.17089844 C33.61813721 38.8105957 33.25019043 39.45029297 32.87109375 40.109375 C32.48880615 40.75874023 32.10651855 41.40810547 31.71264648 42.07714844 C30.39723648 45.62636706 32.20638552 48.7784226 33.6171875 52.109375 C37.30741429 60.48966774 37.30741429 60.48966774 44.23730469 65.93261719 C49.86523504 67.07800565 55.54063778 66.82249946 61 65 C64.45207635 62.50997771 65.45130052 59.87174871 67 56 C67.59039063 55.27683594 68.18078125 54.55367188 68.7890625 53.80859375 C70.92984723 50.99820284 71.72698185 49.55818741 72 46 C69.70635605 39.4531645 65.69612424 33.82683115 62 28 C54.74 28 47.48 28 40 28 Z M-3.63671875 58.23046875 C-4.10666871 59.48125628 -4.56305256 60.73730473 -5 62 C-5.30808594 62.8146875 -5.61617188 63.629375 -5.93359375 64.46875 C-6.09846527 70.75326424 -1.99168643 76.87988587 2.04296875 81.453125 C7.1713551 85.50669984 13.94860749 85.11480978 20.15234375 84.41015625 C24.46288949 83.48337667 26.7217258 82.13677203 29.21826172 78.51049805 C30.73329125 75.75863962 31.90278741 72.94010365 33 70 C33.57899048 69.05060547 33.57899048 69.05060547 34.16967773 68.08203125 C35.21609106 66.01763249 35.21609106 66.01763249 34.53466797 63.80175781 C30.04273169 53.18550821 30.04273169 53.18550821 21.65234375 45.87597656 C9.20975572 42.67878914 1.46132545 46.94017935 -3.63671875 58.23046875 Z " fill="#11599D" transform="translate(474,400)"/>
<path d="M0 0 C2.87117563 2.48958372 4.18047832 5.13841015 5.75 8.57421875 C6.27118408 9.70617676 6.79236816 10.83813477 7.3293457 12.00439453 C7.88644445 13.23199927 8.44332451 14.45970327 9 15.6875 C9.57390286 16.94149994 10.14837177 18.19524098 10.72338867 19.44873047 C11.9026972 22.02178968 13.07828912 24.59650251 14.25146484 27.17236328 C15.9189613 30.82928769 17.60768182 34.47595026 19.30078125 38.12109375 C20.30480715 40.28900709 21.30871909 42.45697321 22.3125 44.625 C22.78623047 45.64295654 23.25996094 46.66091309 23.74804688 47.7097168 C24.17794922 48.64340088 24.60785156 49.57708496 25.05078125 50.5390625 C25.42887939 51.35584473 25.80697754 52.17262695 26.1965332 53.01416016 C27 55 27 55 27 57 C27.69867187 56.71125 28.39734375 56.4225 29.1171875 56.125 C30.02726563 55.75375 30.93734375 55.3825 31.875 55 C32.77992188 54.62875 33.68484375 54.2575 34.6171875 53.875 C37 53 37 53 39 53 C40.98 57.29 42.96 61.58 45 66 C33.19020742 74.85734443 17.54202695 78.14899966 3 77 C-9.0368711 75.23716304 -20.66682212 71.48827448 -31 65 C-30.34 60.38 -29.68 55.76 -29 51 C-24.53274496 51.89345101 -21.4349408 53.05869498 -17.375 55 C-12.76645998 57.19613818 -12.76645998 57.19613818 -8 59 C-8.42933838 58.12786865 -8.85867676 57.2557373 -9.30102539 56.35717773 C-10.89747323 53.1023862 -12.47027559 49.83662583 -14.03637695 46.56713867 C-14.71590243 45.15683634 -15.40170347 43.74953917 -16.09399414 42.34545898 C-17.0912733 40.32002737 -18.06506397 38.2846599 -19.03515625 36.24609375 C-19.50224754 35.31596718 -19.50224754 35.31596718 -19.97877502 34.36705017 C-22.08377964 29.86151082 -22.12995576 26.80379096 -21 22 C-19.88606352 19.71396972 -18.5472559 18.04637071 -17 16 C-13.61544959 18.76361558 -12.1100367 22.54351159 -10.3125 26.4140625 C-9.96872314 27.14313812 -9.62494629 27.87221375 -9.27075195 28.62338257 C-8.54486613 30.16687867 -7.8222021 31.71189348 -7.10253906 33.25830078 C-6.0118658 35.59952899 -4.90914251 37.93477851 -3.8046875 40.26953125 C-3.09822414 41.77569751 -2.39247265 43.28219792 -1.6875 44.7890625 C-1.36241455 45.47690826 -1.0373291 46.16475403 -0.70239258 46.8734436 C1.5859925 51.81510515 3.3474458 56.81034422 5 62 C10.94 61.505 10.94 61.505 17 61 C16.63350342 60.21689453 16.26700684 59.43378906 15.8894043 58.62695312 C11.5833473 49.42242886 7.28714689 40.21334722 3 31 C2.70712097 30.37085693 2.41424194 29.74171387 2.11248779 29.09350586 C0.27673896 25.14869637 -1.55117968 21.20033672 -3.375 17.25 C-3.84462158 16.24001953 -4.31424316 15.23003906 -4.7980957 14.18945312 C-5.2230835 13.26583984 -5.64807129 12.34222656 -6.0859375 11.390625 C-6.4576709 10.58657227 -6.8294043 9.78251953 -7.21240234 8.95410156 C-8 7 -8 7 -8 5 C-6.25 3.7109375 -6.25 3.7109375 -4 2.375 C-3.2575 1.92898437 -2.515 1.48296875 -1.75 1.0234375 C-1.1725 0.68570312 -0.595 0.34796875 0 0 Z " fill="#11599D" transform="translate(619,28)"/>
<path d="M0 0 C-0.14183696 1.75032844 -0.28863429 3.50025534 -0.4375 5.25 C-0.55931641 6.71179688 -0.55931641 6.71179688 -0.68359375 8.203125 C-0.95074584 10.56461753 -1.35371968 12.71901065 -2 15 C-7.08271203 13.48892345 -11.74149015 11.30628549 -16.51171875 9.0234375 C-19.01399201 7.80980767 -19.01399201 7.80980767 -22 8 C-21.5654248 8.87736816 -21.13084961 9.75473633 -20.68310547 10.65869141 C-19.07152984 13.92548137 -17.48633789 17.20450085 -15.90869141 20.48779297 C-15.22308695 21.90531338 -14.53043411 23.31944767 -13.83056641 24.72998047 C-12.82389402 26.7619408 -11.84346188 28.80485722 -10.8671875 30.8515625 C-10.55063202 31.47680817 -10.23407654 32.10205383 -9.90792847 32.74624634 C-8.38980666 35.99515894 -7.93200179 37.6940773 -8.71923828 41.23583984 C-10.08834584 44.19066938 -11.48880377 47.11498901 -13 50 C-13.66 50 -14.32 50 -15 50 C-22.22531533 35.09675218 -29.29831336 20.14648874 -36 5 C-39.63 5 -43.26 5 -47 5 C-43.60543216 13.85351664 -39.61747466 22.37392325 -35.5625 30.9375 C-34.9001058 32.34036034 -34.23799482 33.74335445 -33.57617188 35.14648438 C-33.2524057 35.83255768 -32.92863953 36.51863098 -32.59506226 37.22549438 C-31.95622598 38.58220677 -31.31917075 39.93975938 -30.68399048 41.29818726 C-29.26972381 44.32201627 -27.83656207 47.32682769 -26.34326172 50.31298828 C-25.86775879 51.28349121 -25.39225586 52.25399414 -24.90234375 53.25390625 C-24.48331787 54.08349854 -24.06429199 54.91309082 -23.63256836 55.76782227 C-23 58 -23 58 -23.72875977 60.18334961 C-25.46385064 62.66286012 -27.27233433 63.73595981 -30 65 C-33 64 -33 64 -34.55883789 61.2980957 C-35.10789795 60.10273193 -35.65695801 58.90736816 -36.22265625 57.67578125 C-36.52468964 57.02571609 -36.82672302 56.37565094 -37.13790894 55.70588684 C-38.12291083 53.57927062 -39.09288518 51.44617023 -40.0625 49.3125 C-40.73363367 47.85427602 -41.40559358 46.39643204 -42.07836914 44.93896484 C-43.42592412 42.01466269 -44.7670886 39.08756419 -46.10253906 36.15771484 C-47.79281475 32.44952215 -49.49943325 28.74922304 -51.2109375 25.05078125 C-52.12056007 23.07587457 -53.0294721 21.10064039 -53.9375 19.125 C-54.35588135 18.21790283 -54.7742627 17.31080566 -55.20532227 16.3762207 C-55.57971436 15.553396 -55.95410645 14.73057129 -56.33984375 13.8828125 C-56.82505493 12.82151123 -56.82505493 12.82151123 -57.32006836 11.73876953 C-58 10 -58 10 -58 8 C-61.63 9.65 -65.26 11.3 -69 13 C-70.03572896 11.25877451 -71.0531252 9.50663405 -72.0625 7.75 C-72.63097656 6.77546875 -73.19945312 5.8009375 -73.78515625 4.796875 C-75 2 -75 2 -75.04296875 -0.16796875 C-72.07652162 -5.37869424 -63.22782751 -7.2583099 -57.84375 -9.05078125 C-37.15846529 -14.56163362 -18.52289389 -9.47435377 0 0 Z " fill="#11599D" transform="translate(453,119)"/>
<path d="M0 0 C3.88871415 2.67993312 6.4322172 6.1062882 8.125 10.5 C9.08310606 16.41288314 8.63623886 21.51630613 5.125 26.5 C0.03941815 31.97859524 -5.38048196 34.11502473 -12.453125 36.1484375 C-13.46034607 36.45069244 -14.46756714 36.75294739 -15.50531006 37.06436157 C-17.62742002 37.69634709 -19.75219556 38.31944317 -21.87939453 38.93408203 C-25.10846273 39.87020576 -28.32557567 40.84100639 -31.54296875 41.81640625 C-33.61656605 42.42919021 -35.69076736 43.03993467 -37.765625 43.6484375 C-38.71495911 43.93584808 -39.66429321 44.22325867 -40.64239502 44.51937866 C-48.05086717 46.6261299 -56.47745712 48.38797212 -63.75 45 C-67.63871415 42.32006688 -70.1822172 38.8937118 -71.875 34.5 C-72.83418237 28.58047449 -72.36822595 23.5069572 -68.875 18.5 C-63.76056481 13.33566788 -58.31645487 11.66476974 -51.4375 9.625 C-49.79370361 9.12226563 -49.79370361 9.12226563 -48.11669922 8.609375 C-45.83703684 7.91307508 -43.55575877 7.22204438 -41.27294922 6.53613281 C-38.00284898 5.53898484 -34.75272112 4.49389334 -31.50390625 3.4296875 C-29.50269574 2.78617349 -27.50139741 2.14293251 -25.5 1.5 C-24.5932251 1.19723145 -23.6864502 0.89446289 -22.75219727 0.58251953 C-15.46527914 -1.70617816 -7.20378199 -3.35720148 0 0 Z M-22.25 7.75 C-23.35472656 8.07613281 -24.45945312 8.40226563 -25.59765625 8.73828125 C-29.7817693 9.99083277 -29.7817693 9.99083277 -33.875 11.5 C-35.20701473 14.16402946 -34.57251146 15.0586384 -33.66015625 17.8515625 C-33.38623047 18.70234375 -33.11230469 19.553125 -32.83007812 20.4296875 C-32.53552734 21.31914062 -32.24097656 22.20859375 -31.9375 23.125 C-31.64681641 24.0221875 -31.35613281 24.919375 -31.05664062 25.84375 C-30.33600166 28.06473565 -29.60854395 30.28324979 -28.875 32.5 C-23.07040495 31.26074091 -17.32233804 29.91724427 -11.625 28.25 C-10.6040625 27.98123047 -10.6040625 27.98123047 -9.5625 27.70703125 C-4.30972863 26.14952346 -1.92084415 24.07746863 1.125 19.5 C2.2760629 15.54634915 1.52518949 12.23634867 -0.4375 8.625 C-7.51640565 2.45364635 -14.07919213 5.16923232 -22.25 7.75 Z " fill="#B00000" transform="translate(821.875,210.5)"/>
<path d="M0 0 C2.78126224 -0.33049877 4.73555754 -0.43597547 7.43286133 0.34765625 C10.29339669 3.6292817 11.97619975 7.45207117 13.87036133 11.34765625 C17.59993102 18.6474824 17.59993102 18.6474824 23.91674805 23.38964844 C29.55307658 24.2850326 34.89007798 23.51766809 40.43286133 22.34765625 C40.43286133 24.32765625 40.43286133 26.30765625 40.43286133 28.34765625 C33.17286133 28.67765625 25.91286133 29.00765625 18.43286133 29.34765625 C17.77286133 31.32765625 17.11286133 33.30765625 16.43286133 35.34765625 C15.4526539 36.94394362 14.45819437 38.53158236 13.44848633 40.109375 C11.53813374 43.84226466 11.53813374 43.84226466 12.16918945 47.85009766 C13.68615136 50.44389613 15.34447027 52.78365281 17.18286133 55.16015625 C18.37763579 56.78254764 19.56051181 58.41378718 20.72973633 60.0546875 C21.26953125 60.76085205 21.80932617 61.4670166 22.36547852 62.19458008 C23.78046407 65.04882472 23.39345199 66.34969551 22.43286133 69.34765625 C21.43310547 71.64355469 21.43310547 71.64355469 20.21801758 73.95703125 C19.7790918 74.79363281 19.34016602 75.63023437 18.88793945 76.4921875 C18.19861328 77.78189453 18.19861328 77.78189453 17.49536133 79.09765625 C17.03967773 79.97292969 16.58399414 80.84820312 16.11450195 81.75 C12.68917887 88.21949748 12.68917887 88.21949748 10.43286133 89.34765625 C8.30786133 88.41015625 8.30786133 88.41015625 6.43286133 87.34765625 C8.16427587 81.52061137 11.00380035 76.68487623 14.06958008 71.46875 C15.61037231 67.94126292 15.78632139 66.89086065 14.43286133 63.34765625 C13.13157772 61.05046426 11.81394616 58.86168544 10.37036133 56.66015625 C6.43286133 50.59573317 6.43286133 50.59573317 6.43286133 48.34765625 C-0.87579555 47.75480106 -8.76347317 47.25970198 -15.56713867 50.34765625 C-19.0452531 54.30638286 -20.73471441 59.04151005 -22.72119141 63.86279297 C-25.83482249 71.01353192 -25.83482249 71.01353192 -30.09448242 72.95703125 C-34.04813188 73.16575183 -37.64338173 72.83761971 -41.56713867 72.34765625 C-43.88062267 72.58838022 -46.19321919 72.83785591 -48.50463867 73.09765625 C-52.40139238 73.06426913 -53.96135825 72.8826443 -56.90698242 70.28125 C-59.03818436 67.40555909 -60.79691607 64.45709073 -62.56713867 61.34765625 C-63.26323242 60.36796875 -63.95932617 59.38828125 -64.67651367 58.37890625 C-68.49939011 52.98539065 -68.49939011 52.98539065 -69.56713867 50.34765625 C-69.00073242 47.66796875 -69.00073242 47.66796875 -67.56713867 44.34765625 C-67.3015918 43.57752197 -67.03604492 42.8073877 -66.76245117 42.01391602 C-64.4707121 35.54280066 -61.87662014 28.90079801 -56.56713867 24.34765625 C-48.60373242 21.61146447 -39.81945251 22.46968987 -31.56713867 23.34765625 C-31.30932617 22.52910156 -31.05151367 21.71054687 -30.78588867 20.8671875 C-25.63486407 5.99195299 -25.63486407 5.99195299 -20.56713867 1.34765625 C-15.59980038 -0.68939607 -10.16097898 -0.29191705 -4.90966797 0.2265625 C-2.52335878 0.42241057 -2.52335878 0.42241057 0 0 Z M-11.60131836 6.34838867 C-14.80476152 6.41948435 -16.7963327 6.54268091 -19.07617188 8.92358398 C-20.46184491 11.06826838 -21.58965656 13.23257641 -22.69213867 15.53515625 C-23.10206055 16.29119141 -23.51198242 17.04722656 -23.93432617 17.82617188 C-25.74820556 21.40734128 -26.70688939 23.4723184 -26.06323242 27.50390625 C-24.37969693 30.70394239 -22.55099903 33.67789242 -20.50463867 36.66015625 C-19.79178711 37.70816406 -19.07893555 38.75617188 -18.34448242 39.8359375 C-16.79361321 42.17743654 -16.79361321 42.17743654 -15.56713867 43.34765625 C-12.99194417 43.47537639 -10.45540668 43.53287479 -7.87963867 43.53515625 C-6.81712891 43.55352539 -6.81712891 43.55352539 -5.7331543 43.57226562 C-1.33193923 43.58445736 2.45733568 43.42551597 6.43286133 41.34765625 C8.29762806 39.11089949 9.571961 36.69445691 10.87036133 34.09765625 C11.41466797 33.11345703 11.41466797 33.11345703 11.9699707 32.109375 C13.6007966 28.97245177 14.44147031 26.90293532 14.38598633 23.32421875 C12.41907304 17.18164528 9.43144257 10.63285408 4.43286133 6.34765625 C-1.235047 4.79188642 -5.92222961 6.34634387 -11.60131836 6.34838867 Z M-46.79492188 29.34838867 C-51.43509528 29.42313929 -51.43509528 29.42313929 -55.16040039 31.92358398 C-56.55910578 34.0664955 -57.67019713 36.21795699 -58.75463867 38.53515625 C-59.16004883 39.29119141 -59.56545898 40.04722656 -59.9831543 40.82617188 C-61.77538016 44.40751749 -62.70598598 46.4846668 -62.05932617 50.50390625 C-60.3792129 53.70579751 -58.55101751 56.6778655 -56.50463867 59.66015625 C-55.79178711 60.70816406 -55.07893555 61.75617188 -54.34448242 62.8359375 C-52.79361321 65.17743654 -52.79361321 65.17743654 -51.56713867 66.34765625 C-48.80527561 66.47508126 -46.07950418 66.5328733 -43.31713867 66.53515625 C-42.55272461 66.54740234 -41.78831055 66.55964844 -41.00073242 66.57226562 C-34.99585143 66.62995197 -34.99585143 66.62995197 -29.56713867 64.34765625 C-27.87577305 61.9181345 -26.52846117 59.70523686 -25.19213867 57.09765625 C-24.82475586 56.44152344 -24.45737305 55.78539062 -24.07885742 55.109375 C-22.4260074 51.97207854 -21.55980752 49.91508722 -21.60620117 46.32421875 C-23.58701194 40.18853663 -26.65882983 33.70635405 -31.56713867 29.34765625 C-36.94314648 27.75206772 -41.38044029 29.34660857 -46.79492188 29.34838867 Z " fill="#C60000" transform="translate(562.567138671875,321.65234375)"/>
<path d="M0 0 C2.81638987 4.2245848 3.28987892 7.97020906 3 13 C2.06735159 16.61153215 0.66684969 19.33315031 -2 22 C-1.01 22.33 -0.02 22.66 1 23 C3.11601958 36.1117642 3.11601958 36.1117642 3.4375 42.6875 C3.47746094 43.45449219 3.51742187 44.22148437 3.55859375 45.01171875 C2.71396451 48.01812634 0.68454195 48.42813004 -2 50 C-5.49459806 53.30272671 -8.75302358 56.85315323 -12.02929688 60.37109375 C-17.2537619 65.78869066 -17.2537619 65.78869066 -21.50390625 66.9921875 C-22.32761719 66.99476563 -23.15132812 66.99734375 -24 67 C-23.24199288 61.44128114 -23.24199288 61.44128114 -21.9375 59.0625 C-20.51516881 55.93337139 -20.70247189 53.39182045 -21 50 C-21.75990234 48.89785156 -21.75990234 48.89785156 -22.53515625 47.7734375 C-24.47053483 44.10912073 -24.14278527 41.05334656 -23.75 37.0625 C-23.69714844 36.37220703 -23.64429688 35.68191406 -23.58984375 34.97070312 C-23.26126906 30.93993223 -22.72211551 26.97786047 -22 23 C-21.01 22.67 -20.02 22.34 -19 22 C-19.639375 21.21625 -20.27875 20.4325 -20.9375 19.625 C-24.64875639 14.90158278 -24.62244424 10.87262605 -24 5 C-22.20649685 0.88988862 -20.31869181 -1.15283372 -16.3125 -3 C-10.24807674 -4.90078938 -5.17029885 -3.4468659 0 0 Z " fill="#AF0001" transform="translate(171,210)"/>
<path d="M0 0 C3.3866245 0.35066639 6.67354449 0.85348532 9.98974609 1.62841797 C12.36234411 2.16574944 12.36234411 2.16574944 14.77246094 2.04589844 C17.30655212 2.01114852 19.02376981 2.11612882 21.37426758 3.08422852 C24.11179297 6.40506628 25.72722628 10.09493423 27.43676758 14.02172852 C27.92081055 15.04975586 28.40485352 16.0777832 28.90356445 17.13696289 C32.37426758 24.61345633 32.37426758 24.61345633 32.37426758 27.08422852 C38.64426758 27.41422852 44.91426758 27.74422852 51.37426758 28.08422852 C51.37426758 30.06422852 51.37426758 32.04422852 51.37426758 34.08422852 C50.43744141 33.98996582 50.43744141 33.98996582 49.48168945 33.89379883 C38.17953442 32.44822594 38.17953442 32.44822594 27.53100586 35.1652832 C24.33682606 38.23874323 22.53014049 41.86143949 21.37426758 46.08422852 C21.547298 52.18149084 24.8029533 57.11728442 27.66723633 62.33813477 C28.20670898 63.36100586 28.20670898 63.36100586 28.75708008 64.40454102 C29.25812256 65.32130615 29.25812256 65.32130615 29.76928711 66.2565918 C30.55774904 68.63852321 30.24880183 69.74625656 29.37426758 72.08422852 C27.62259848 75.2641188 25.57214087 78.25023477 23.56176758 81.27172852 C22.76029297 82.51986328 22.76029297 82.51986328 21.94262695 83.79321289 C21.41862305 84.58405273 20.89461914 85.37489258 20.35473633 86.18969727 C19.87931396 86.91310303 19.4038916 87.63650879 18.9140625 88.38183594 C17.12476087 90.36008237 15.97635242 90.71610479 13.37426758 91.08422852 C12.71426758 89.76422852 12.05426758 88.44422852 11.37426758 87.08422852 C11.71272705 86.6257251 12.05118652 86.16722168 12.39990234 85.69482422 C13.9279963 83.6065082 15.43236119 81.5021645 16.93676758 79.39672852 C17.46979492 78.67549805 18.00282227 77.95426758 18.55200195 77.21118164 C21.49465322 73.22392567 21.49465322 73.22392567 22.43676758 68.51391602 C21.00714131 65.24469712 19.47631986 62.05113749 17.81176758 58.89672852 C14.37426758 52.33789779 14.37426758 52.33789779 14.37426758 50.08422852 C12.79838867 50.10163086 12.79838867 50.10163086 11.19067383 50.11938477 C9.77270688 50.12877528 8.35473798 50.13787411 6.93676758 50.14672852 C6.24905273 50.15510742 5.56133789 50.16348633 4.8527832 50.17211914 C3.43278982 50.17872376 2.01253421 50.16238103 0.59301758 50.125 C-1.64537593 50.05351291 -1.64537593 50.05351291 -3.95385742 50.23291016 C-6.52410386 50.24991914 -8.25173335 50.09032949 -10.62573242 49.08422852 C-13.39462618 45.85584078 -15.02219969 42.25891885 -16.75073242 38.39672852 C-17.2431543 37.4022168 -17.73557617 36.40770508 -18.24291992 35.38305664 C-20.76387784 30.06142778 -22.13380431 26.95756887 -20.62573242 21.08422852 C-16.88167525 11.50007033 -11.47579597 -0.14383367 0 0 Z M-10.18823242 14.95922852 C-10.89979492 16.50610352 -10.89979492 16.50610352 -11.62573242 18.08422852 C-12.01954102 18.60903809 -12.41334961 19.13384766 -12.8190918 19.67456055 C-14.76445936 22.34904937 -15.75867788 24.04559216 -15.32885742 27.40356445 C-13.367295 33.52142765 -10.33223745 39.64297789 -5.62573242 44.08422852 C0.55578672 47.12695864 7.86661374 47.1848933 14.37426758 45.08422852 C18.45072506 42.00786193 20.2671345 38.66495259 22.37426758 34.08422852 C22.76807617 33.55941895 23.16188477 33.03460938 23.56762695 32.49389648 C25.51299452 29.81940766 26.50721303 28.12286487 26.07739258 24.76489258 C24.11583015 18.64702938 21.0807726 12.52547914 16.37426758 8.08422852 C6.36949849 3.15957947 -4.76228403 4.97548347 -10.18823242 14.95922852 Z " fill="#105A9C" transform="translate(405.625732421875,345.915771484375)"/>
<path d="M0 0 C2.56933594 0.8918457 2.56933594 0.8918457 4.13989258 3.1472168 C4.58196045 4.14317871 5.02402832 5.13914062 5.47949219 6.1652832 C5.98923584 7.28805664 6.49897949 8.41083008 7.02416992 9.56762695 C7.5607829 10.80038483 8.09665436 12.03346573 8.63183594 13.2668457 C9.1916362 14.52401576 9.75293531 15.78051938 10.31567383 17.03637695 C11.48531666 19.65316281 12.64400789 22.27446611 13.796875 24.89868164 C15.24955356 28.19145987 16.74829327 31.46030999 18.2702179 34.72158813 C19.1397821 36.58520772 20.00218357 38.45196175 20.86206055 40.32006836 C21.94443236 42.67053587 23.03615718 45.01672267 24.13793945 47.3581543 C24.61932373 48.42114746 25.10070801 49.48414063 25.59667969 50.5793457 C26.027146 51.51133789 26.4576123 52.44333008 26.90112305 53.40356445 C27.56933594 55.8918457 27.56933594 55.8918457 26.84106445 58.1418457 C25.06531514 60.58541858 23.46101579 61.13450098 20.56933594 61.8918457 C18.609375 61.81054688 18.609375 61.81054688 16.56933594 60.8918457 C14.91992188 58.32275391 14.91992188 58.32275391 13.30371094 54.88012695 C13.00768982 54.25866287 12.7116687 53.63719879 12.40667725 52.99690247 C11.44590211 50.96855576 10.50691167 48.9310072 9.56933594 46.8918457 C8.93001734 45.52483979 8.29004158 44.15814104 7.64941406 42.79174805 C6.01110387 39.2808842 4.39882576 35.7587639 2.79736328 32.23095703 C1.81120656 30.06146147 0.8173915 27.895579 -0.17675781 25.72973633 C-3.29961219 18.88728702 -6.26443396 12.10991839 -8.43066406 4.8918457 C-3.15305052 -0.14029745 -3.15305052 -0.14029745 0 0 Z " fill="#F90203" transform="translate(503.4306640625,82.108154296875)"/>
<path d="M0 0 C5.29429337 -0.3176576 8.53309961 0.0880195 13 3 C14.58215143 5.54863155 15.77204127 7.79460225 16.9375 10.51953125 C17.26669434 11.25572189 17.59588867 11.99191254 17.93505859 12.75041199 C18.62339541 14.30374324 19.3019368 15.86144791 19.97119141 17.4230957 C20.99762681 19.80698829 22.06444692 22.16963282 23.13671875 24.53320312 C23.8019841 26.0483818 24.46482814 27.56462639 25.125 29.08203125 C25.44460693 29.78536087 25.76421387 30.48869049 26.09350586 31.21333313 C27.53265538 34.64649774 28.07875858 36.63673139 27.28125 40.31518555 C26.00259205 42.99456845 24.61267205 45.50768865 23 48 C21.12294006 47.72589111 21.12294006 47.72589111 19 47 C17.89378357 45.43280029 17.89378357 45.43280029 17.03295898 43.38574219 C16.53740761 42.23884918 16.53740761 42.23884918 16.03184509 41.06878662 C15.69004715 40.23655579 15.34824921 39.40432495 14.99609375 38.546875 C14.6315358 37.69450256 14.26697784 36.84213013 13.89137268 35.96392822 C12.72583578 33.23174602 11.5810169 30.49146228 10.4375 27.75 C9.28656414 25.02461852 8.13141055 22.30109498 6.97291565 19.57891846 C6.25306995 17.88384327 5.53827352 16.18661251 4.82920837 14.48699951 C3.44171845 11.19142536 2.10194238 8.16236851 0.19555664 5.12597656 C-0.19897705 4.4244043 -0.59351074 3.72283203 -1 3 C-0.67 2.01 -0.34 1.02 0 0 Z " fill="#F50306" transform="translate(533,68)"/>
<path d="M0 0 C3 0 6 0 9 0 C10.093125 -0.020625 11.18625 -0.04125 12.3125 -0.0625 C15.40388954 -0.01010357 17.99814287 0.38197059 21 1 C21.33 0.67 21.66 0.34 22 0 C28.46153846 -0.35897436 28.46153846 -0.35897436 32 2 C33.25433458 5.76300374 33.10695422 9.27210909 33.0625 13.1875 C33.05798828 13.93708984 33.05347656 14.68667969 33.04882812 15.45898438 C33.03706354 17.30602383 33.01912865 19.15302213 33 21 C30.36 21 27.72 21 25 21 C25 16.05 25 11.1 25 6 C23.68 6.33 22.36 6.66 21 7 C20.67 11.62 20.34 16.24 20 21 C17.69 21 15.38 21 13 21 C12.67 16.05 12.34 11.1 12 6 C10.68 6.33 9.36 6.66 8 7 C7.67 11.62 7.34 16.24 7 21 C4.69 21 2.38 21 0 21 C0 14.07 0 7.14 0 0 Z " fill="#000000" transform="translate(497,6)"/>
<path d="M0 0 C1.22847656 -0.00515625 2.45695312 -0.0103125 3.72265625 -0.015625 C6.9375 0.25 6.9375 0.25 9.9375 2.25 C10.125 5.875 10.125 5.875 9.9375 9.25 C9.23625 8.940625 8.535 8.63125 7.8125 8.3125 C3.95024477 6.88514481 0.62285934 5.65784672 -3.375 7.0625 C-5.21347822 8.15687325 -5.21347822 8.15687325 -6.0625 10.25 C-6.52986971 14.88765601 -6.52986971 14.88765601 -4.875 19.0625 C-2.70059421 20.48711069 -0.51062255 21.38984883 1.9375 22.25 C1.9375 20.6 1.9375 18.95 1.9375 17.25 C0.2875 17.25 -1.3625 17.25 -3.0625 17.25 C-3.0625 15.6 -3.0625 13.95 -3.0625 12.25 C1.2275 12.25 5.5175 12.25 9.9375 12.25 C9.9375 16.54 9.9375 20.83 9.9375 25.25 C5.84685123 27.29532439 3.95985419 27.5470323 -0.5 27.5625 C-2.16869141 27.58763672 -2.16869141 27.58763672 -3.87109375 27.61328125 C-8.29473018 27.1097339 -10.91120621 25.52039315 -13.875 22.25 C-15.71416136 17.60369761 -15.71984523 13.17647743 -15.0625 8.25 C-11.49802241 0.99374206 -7.77065335 -0.03268414 0 0 Z " fill="#000000" transform="translate(409.0625,-0.25)"/>
<path d="M0 0 C0 15.18 0 30.36 0 46 C-3.63 46 -7.26 46 -11 46 C-11.41908483 41.21951357 -11.75928892 36.44173369 -12.03149414 31.65063477 C-12.13434286 30.02678392 -12.25759184 28.40407849 -12.40258789 26.78344727 C-13.64857413 12.60543547 -13.64857413 12.60543547 -9.56884766 7.40869141 C-2.69654759 0 -2.69654759 0 0 0 Z " fill="#AE0001" transform="translate(174,268)"/>
<path d="M0 0 C3.0625 1.5 3.0625 1.5 5 4 C5.68906883 6.73539445 5.85774641 9.15492811 6 12 C1.38 12.33 -3.24 12.66 -8 13 C-4.54785147 15.30143236 -3.76520676 15.13833854 0.1875 14.625 C1.08855469 14.51414062 1.98960937 14.40328125 2.91796875 14.2890625 C3.60503906 14.19367187 4.29210937 14.09828125 5 14 C5 15.98 5 17.96 5 20 C2.32344199 21.33827901 0.17565948 21.20578556 -2.8125 21.25 C-3.85019531 21.27578125 -4.88789062 21.3015625 -5.95703125 21.328125 C-9.42582145 20.95408344 -11.22110993 20.07568054 -14 18 C-16.47092491 14.29361264 -16.55407837 11.29830496 -16 7 C-12.60656031 -0.43324884 -7.47807179 -0.93028644 0 0 Z M-7 5 C-7.99 6.485 -7.99 6.485 -9 8 C-6.69 8 -4.38 8 -2 8 C-2.33 7.01 -2.66 6.02 -3 5 C-4.32 5 -5.64 5 -7 5 Z " fill="#000000" transform="translate(549,6)"/>
<path d="M0 0 C0.85464844 -0.00515625 1.70929688 -0.0103125 2.58984375 -0.015625 C5.24910622 0.27004617 6.82514518 0.80031005 9.0625 2.25 C12.04824839 6.72862258 11.7669453 11.0049453 11.0625 16.25 C9.25 19.4375 9.25 19.4375 6.0625 21.25 C0.81752949 22.11498764 -3.41440217 22.13339674 -8.0625 19.4375 C-11.33781155 15.6163032 -11.27374094 12.12549369 -10.9375 7.25 C-8.46608787 1.95411687 -5.84390153 -0.03515129 0 0 Z M-0.9375 5.25 C-3.31744368 7.19332332 -3.31744368 7.19332332 -3.1875 10.75 C-3.31744368 14.30667668 -3.31744368 14.30667668 -0.9375 16.25 C1.17070797 15.9314823 1.17070797 15.9314823 3.0625 15.25 C4.26238045 9.96800407 4.26238045 9.96800407 2.0625 5.25 C1.0725 5.25 0.0825 5.25 -0.9375 5.25 Z " fill="#000000" transform="translate(481.9375,5.75)"/>
<path d="M0 0 C2.57637471 1.88515223 3.59667428 3.19334857 5 6 C5 7.98 5 9.96 5 12 C0.38 12 -4.24 12 -9 12 C-6.41433359 15.27130881 -6.41433359 15.27130881 -3.51953125 15.07421875 C-2.62621094 14.94660156 -1.73289062 14.81898437 -0.8125 14.6875 C0.08855469 14.56761719 0.98960937 14.44773437 1.91796875 14.32421875 C2.94857422 14.16373047 2.94857422 14.16373047 4 14 C4 15.98 4 17.96 4 20 C1.32344199 21.33827901 -0.82434052 21.20578556 -3.8125 21.25 C-4.85019531 21.27578125 -5.88789063 21.3015625 -6.95703125 21.328125 C-10.40480655 20.95634949 -12.22731269 20.04381036 -15 18 C-17.32177479 14.30626737 -17.20465074 11.04249873 -16.55078125 6.8671875 C-15.73456007 4.1001398 -14.26321242 2.71455486 -12 1 C-8.31123973 -0.84438013 -4.02669687 -0.48788734 0 0 Z M-8 5 C-8.33 5.99 -8.66 6.98 -9 8 C-6.69 8 -4.38 8 -2 8 C-2.33 7.01 -2.66 6.02 -3 5 C-4.65 5 -6.3 5 -8 5 Z " fill="#000000" transform="translate(439,6)"/>
<path d="M0 0 C9.16868566 4.47461122 18.18651954 9.1188154 27.03320312 14.20483398 C29.85031977 16.1390579 29.85031977 16.1390579 33 17 C32.505 13.04 32.505 13.04 32 9 C35.37891114 9.91321923 36.73453027 10.5968793 38.6875 13.5625 C40.24804144 17.64963234 41.18952902 21.7092713 42 26 C29.11572052 30.05786026 29.11572052 30.05786026 23 27 C23 26.34 23 25.68 23 25 C25.31 24.01 27.62 23.02 30 22 C29.13721436 21.53102295 28.27442871 21.0620459 27.38549805 20.57885742 C24.17899098 18.83412911 20.97627974 17.08253226 17.7746582 15.32885742 C16.38961382 14.57144925 15.00355303 13.81589661 13.61645508 13.06225586 C11.62049253 11.97738478 9.628305 10.88584835 7.63671875 9.79296875 C7.01786301 9.45847214 6.39900726 9.12397552 5.76139832 8.77934265 C2.7887745 7.1397946 0.22570194 5.59022635 -2 3 C-1.34 2.01 -0.68 1.02 0 0 Z " fill="#9C9C9C" transform="translate(642,173)"/>
<path d="M0 0 C0.99 0.66 1.98 1.32 3 2 C1.49775154 5.73892951 -0.60165298 7.54093605 -3.75 10 C-8.4803106 13.76288984 -13.10806906 17.61721611 -17.6875 21.5625 C-18.31172852 22.09939453 -18.93595703 22.63628906 -19.57910156 23.18945312 C-21.05366676 24.45855289 -22.52697507 25.7291128 -24 27 C-21.36 27.66 -18.72 28.32 -16 29 C-17.64139565 31.58835467 -18.32047909 32.62693766 -21 34 C-25.73069378 34.15001067 -30.31653339 33.64009489 -35 33 C-35.22978763 27.37020304 -35.26116721 22.27605683 -33 17 C-30.375 15.5625 -30.375 15.5625 -28 15 C-28 17.64 -28 20.28 -28 23 C-20.84179836 17.24069847 -13.85219491 11.32098961 -6.95288086 5.25512695 C-6.33807861 4.71718506 -5.72327637 4.17924316 -5.08984375 3.625 C-4.54191162 3.14289063 -3.99397949 2.66078125 -3.42944336 2.1640625 C-2 1 -2 1 0 0 Z " fill="#9A9A9A" transform="translate(352,200)"/>
<path d="M0 0 C3.33333333 0 6.66666667 0 10 0 C11.155 -0.04125 12.31 -0.0825 13.5 -0.125 C17 0 17 0 20 2 C21.25433458 5.76300374 21.10695422 9.27210909 21.0625 13.1875 C21.05798828 13.93708984 21.05347656 14.68667969 21.04882812 15.45898438 C21.03706354 17.30602383 21.01912865 19.15302213 21 21 C18.69 21 16.38 21 14 21 C13.67 16.05 13.34 11.1 13 6 C11.35 6.33 9.7 6.66 8 7 C7.67 11.62 7.34 16.24 7 21 C4.69 21 2.38 21 0 21 C0 14.07 0 7.14 0 0 Z " fill="#000000" transform="translate(447,6)"/>
<path d="M0 0 C1.32 0 2.64 0 4 0 C4.02505615 0.90766113 4.0501123 1.81532227 4.07592773 2.75048828 C4.17143059 6.13878234 4.27064084 9.52692669 4.37231445 12.91503906 C4.41545337 14.37756148 4.45714195 15.84012747 4.49731445 17.30273438 C4.5555307 19.4128936 4.61907288 21.52283775 4.68359375 23.6328125 C4.72025146 24.90012207 4.75690918 26.16743164 4.79467773 27.47314453 C4.98371036 30.72019016 5.3962073 33.80698948 6 37 C7.98 35.35 9.96 33.7 12 32 C12.61809496 36.32666473 12.91220656 38.69467585 10.359375 42.34765625 C6.50311943 46.3967246 6.50311943 46.3967246 4 48 C-0.25783232 47.80348466 -2.74866861 44.96658684 -5.58203125 42.0546875 C-7.9419583 38.63506869 -7.49544797 36.03436201 -7 32 C-4.69 33.98 -2.38 35.96 0 38 C0 25.46 0 12.92 0 0 Z " fill="#999999" transform="translate(511,228)"/>
<path d="M0 0 C0.99 -0.66 1.98 -1.32 3 -2 C8.27560366 -2.54954205 8.27560366 -2.54954205 10.8125 -0.625 C13.45737756 2.99430613 13.11424021 6.31066242 13.0625 10.625 C13.05798828 11.33140625 13.05347656 12.0378125 13.04882812 12.765625 C13.03703875 14.51045275 13.01910324 16.255237 13 18 C11.35 18 9.7 18 8 18 C7.67 13.05 7.34 8.1 7 3 C4.69 3.33 2.38 3.66 0 4 C0 8.62 0 13.24 0 18 C-1.32 18 -2.64 18 -4 18 C-4.33 13.05 -4.66 8.1 -5 3 C-7.31 3.33 -9.62 3.66 -12 4 C-12 8.62 -12 13.24 -12 18 C-13.32 18 -14.64 18 -16 18 C-16 11.73 -16 5.46 -16 -1 C-4.05882353 -2.70588235 -4.05882353 -2.70588235 0 0 Z " fill="#000000" transform="translate(897,369)"/>
<path d="M0 0 C1.09570312 0.10183594 2.19140625 0.20367187 3.3203125 0.30859375 C4.16335938 0.39238281 5.00640625 0.47617187 5.875 0.5625 C5.92925013 3.43775669 5.96879277 6.31197646 6 9.1875 C6.01675781 9.99574219 6.03351562 10.80398438 6.05078125 11.63671875 C6.08900307 16.33800226 5.81191847 20.18249971 3.875 24.5625 C1.45433103 26.83646176 -0.11854224 27.58276425 -3.453125 27.515625 C-5.69787792 27.27561997 -7.90392944 26.9641315 -10.125 26.5625 C-10.125 25.2425 -10.125 23.9225 -10.125 22.5625 C-7.155 22.5625 -4.185 22.5625 -1.125 22.5625 C-0.795 21.5725 -0.465 20.5825 -0.125 19.5625 C-1.3625 19.665625 -2.6 19.76875 -3.875 19.875 C-7.17126073 19.85162226 -7.90568715 19.73246746 -10.625 17.625 C-12.64484917 13.50114128 -12.95872591 10.07442848 -12.125 5.5625 C-8.58915305 -0.09485511 -6.40198458 -0.61295597 0 0 Z M-7 5.125 C-8.58400384 8.55700831 -7.94431404 10.94386298 -7.125 14.5625 C-6.795 14.8925 -6.465 15.2225 -6.125 15.5625 C-3.78555264 15.27519945 -1.4510857 14.94313221 0.875 14.5625 C0.90188151 12.91675434 0.92134123 11.27088587 0.9375 9.625 C0.94910156 8.70847656 0.96070313 7.79195313 0.97265625 6.84765625 C1.13449049 4.59656673 1.13449049 4.59656673 -0.125 3.5625 C-3.20667959 3.15701584 -4.5716875 3.10140625 -7 5.125 Z " fill="#000000" transform="translate(819.125,367.4375)"/>
<path d="M0 0 C0.97324219 0.00644531 1.94648438 0.01289062 2.94921875 0.01953125 C5.3125 0.1875 5.3125 0.1875 6.3125 1.1875 C6.44048061 3.90783201 6.49772499 6.5915837 6.5 9.3125 C6.51224609 10.06015625 6.52449219 10.8078125 6.53710938 11.578125 C6.54993832 16.48733306 6.07574204 20.58315367 4.3125 25.1875 C0.89155758 27.46812828 -0.36937222 27.40675007 -4.375 27.3125 C-5.86580078 27.28542969 -5.86580078 27.28542969 -7.38671875 27.2578125 C-8.14597656 27.23460937 -8.90523438 27.21140625 -9.6875 27.1875 C-9.6875 25.5375 -9.6875 23.8875 -9.6875 22.1875 C-7.66927083 22.48046875 -5.65104167 22.7734375 -3.6328125 23.06640625 C-1.60609333 23.3559297 -1.60609333 23.3559297 0.3125 22.1875 C0.6425 21.1975 0.9725 20.2075 1.3125 19.1875 C0.6525 19.5175 -0.0075 19.8475 -0.6875 20.1875 C-4.77393837 20.64154871 -6.84559721 20.85670478 -10.125 18.25 C-12.19788445 14.18714648 -12.37767733 10.67365265 -11.6875 6.1875 C-10.78230997 3.66851157 -10.11945081 2.48977021 -7.91796875 0.94921875 C-5.17567849 0.01270982 -2.89360605 -0.04249622 0 0 Z M-6.5625 5.75 C-8.14650384 9.18200831 -7.50681404 11.56886298 -6.6875 15.1875 C-6.3575 15.5175 -6.0275 15.8475 -5.6875 16.1875 C-3.34805264 15.90019945 -1.0135857 15.56813221 1.3125 15.1875 C1.33938151 13.54175434 1.35884123 11.89588587 1.375 10.25 C1.38660156 9.33347656 1.39820313 8.41695312 1.41015625 7.47265625 C1.57199049 5.22156673 1.57199049 5.22156673 0.3125 4.1875 C-2.76917959 3.78201584 -4.1341875 3.72640625 -6.5625 5.75 Z " fill="#000000" transform="translate(473.6875,548.8125)"/>
<path d="M0 0 C14.13793103 0 14.13793103 0 19 3 C21.89045487 6.07693583 22.24124189 8.85287813 22.4375 12.9375 C22.28977244 17.65774714 21.2223235 20.41964055 18 24 C12.84232773 27.51008251 5.91305685 26.10950105 0 26 C0 17.42 0 8.84 0 0 Z M4 4 C4 10.27 4 16.54 4 23 C12.22850805 22.76763401 12.22850805 22.76763401 15.5 20.375 C17.53106945 17.15914004 17.93343405 14.79425893 18 11 C16.78588734 8.12447001 15.73889186 6.5541689 13.25 4.6875 C10.27637171 3.65907838 10.27637171 3.65907838 4 4 Z " fill="#000000" transform="translate(400,543)"/>
<path d="M0 0 C14.19642857 -0.53571429 14.19642857 -0.53571429 17.75 1.75 C21.02798171 5.02798171 22.29364238 7.73761573 22.375 12.375 C22.24671588 16.96304387 21.18716759 19.56766568 18 23 C11.61333543 26.9102028 8.24669723 26 0 26 C0 17.42 0 8.84 0 0 Z M4 3 C4 9.27 4 15.54 4 22 C10.92623786 22.33719373 10.92623786 22.33719373 16 19 C17.6313444 15.24081509 18.10956731 12.81392862 17.5625 8.75 C15.38045684 4.90960404 13.15627011 4.26801461 9 3 C7.35 3 5.7 3 4 3 Z " fill="#000000" transform="translate(6,405)"/>
<path d="M0 0 C14.58974359 0 14.58974359 0 19.9375 4.4375 C22.66576351 8.12654734 22.69468804 11.90153056 22.5 16.3671875 C21.71706483 20.48983051 20.08502044 22.20879103 17 25 C13.93618406 26.53190797 10.73034134 26.10243613 7.375 26.0625 C4.94125 26.041875 2.5075 26.02125 0 26 C0 17.42 0 8.84 0 0 Z M4 4 C4 10.27 4 16.54 4 23 C12.22850805 22.76763401 12.22850805 22.76763401 15.5 20.375 C17.53106945 17.15914004 17.93343405 14.79425893 18 11 C16.70149423 7.75373557 15.72737703 6.41283561 12.6875 4.6875 C9.49353773 3.75216675 9.49353773 3.75216675 4 4 Z " fill="#000000" transform="translate(745,361)"/>
<path d="M0 0 C1.08667969 0.01804687 2.17335938 0.03609375 3.29296875 0.0546875 C4.54013672 0.08949219 4.54013672 0.08949219 5.8125 0.125 C5.87064085 3.70826501 5.90614357 7.29140838 5.9375 10.875 C5.95425781 11.89078125 5.97101562 12.9065625 5.98828125 13.953125 C5.99472656 14.9328125 6.00117187 15.9125 6.0078125 16.921875 C6.01828613 17.82260742 6.02875977 18.72333984 6.03955078 19.65136719 C5.79631993 22.30127581 5.24189958 23.89340556 3.8125 26.125 C1.04797967 27.50726016 -1.2336363 27.22025387 -4.3125 27.1875 C-5.40820312 27.17847656 -6.50390625 27.16945313 -7.6328125 27.16015625 C-8.47585938 27.14855469 -9.31890625 27.13695312 -10.1875 27.125 C-10.1875 25.475 -10.1875 23.825 -10.1875 22.125 C-8.95 22.3725 -7.7125 22.62 -6.4375 22.875 C-4.26646977 23.22072221 -4.26646977 23.22072221 -2.1875 23.125 C0.33840848 21.35345348 0.33840848 21.35345348 1.8125 19.125 C1.1525 19.455 0.4925 19.785 -0.1875 20.125 C-6.32386364 20.69318182 -6.32386364 20.69318182 -9.5625 18.5625 C-11.74674702 15.28612946 -12.12078602 13.06112458 -12.1875 9.125 C-10.30622121 2.00199024 -7.25632632 -0.15605003 0 0 Z M-5.1875 4.125 C-7.63647847 7.79846771 -7.50287716 9.78856399 -7.1875 14.125 C-5.36046773 16.3741908 -5.36046773 16.3741908 -2.6875 16.375 C-0.01453227 16.3741908 -0.01453227 16.3741908 1.8125 14.125 C2.09292984 11.94962316 2.09292984 11.94962316 2 9.5625 C1.99355469 8.75683594 1.98710938 7.95117188 1.98046875 7.12109375 C2.02880912 5.12620115 2.02880912 5.12620115 0.8125 4.125 C-2.14554573 3.79159529 -2.14554573 3.79159529 -5.1875 4.125 Z " fill="#000000" transform="translate(577.1875,548.875)"/>
<path d="M0 0 C1.35158203 0.15275391 1.35158203 0.15275391 2.73046875 0.30859375 C3.41753906 0.39238281 4.10460937 0.47617187 4.8125 0.5625 C4.89970919 4.14567958 4.95296112 7.72858567 5 11.3125 C5.02513672 12.32828125 5.05027344 13.3440625 5.07617188 14.390625 C5.08583984 15.3703125 5.09550781 16.35 5.10546875 17.359375 C5.1211792 18.26010742 5.13688965 19.16083984 5.15307617 20.08886719 C4.74172921 23.07651407 3.8886241 24.40165473 1.8125 26.5625 C-1.68897041 27.7296568 -4.51420036 27.69607453 -8.1875 27.5625 C-8.8475 27.2325 -9.5075 26.9025 -10.1875 26.5625 C-10.1875 25.2425 -10.1875 23.9225 -10.1875 22.5625 C-7.2175 22.5625 -4.2475 22.5625 -1.1875 22.5625 C-0.8575 21.5725 -0.5275 20.5825 -0.1875 19.5625 C-1.425 19.645 -2.6625 19.7275 -3.9375 19.8125 C-6.85997559 19.78140983 -8.06539297 19.62965887 -10.6875 18.1875 C-13.02914224 14.08962608 -12.93952088 10.16397429 -12.1875 5.5625 C-8.95709008 0.10422116 -6.07230424 -0.70974985 0 0 Z M-5.1875 3.5625 C-7.45933419 6.02365371 -8.1611202 7.29870199 -8.5 10.6875 C-8.47737808 13.69032652 -8.47737808 13.69032652 -6.1875 15.5625 C-3.14567107 15.81255386 -3.14567107 15.81255386 -0.1875 15.5625 C1.07199049 14.52843327 1.07199049 14.52843327 0.91015625 12.27734375 C0.89855469 11.36082031 0.88695313 10.44429688 0.875 9.5 C0.86146484 8.12134766 0.86146484 8.12134766 0.84765625 6.71484375 C0.83605469 6.00457031 0.82445313 5.29429687 0.8125 4.5625 C-2.1575 4.0675 -2.1575 4.0675 -5.1875 3.5625 Z " fill="#000000" transform="translate(80.1875,410.4375)"/>
<path d="M0 0 C2.65822754 3.63757453 2.48657358 7.2884331 2.1875 11.625 C0.53610695 15.1636994 -0.52855229 16.43570153 -3.8125 18.625 C-6.14449388 18.70405064 -8.48082622 18.71298769 -10.8125 18.625 C-11.1425 20.935 -11.4725 23.245 -11.8125 25.625 C-13.1325 25.625 -14.4525 25.625 -15.8125 25.625 C-15.8125 16.715 -15.8125 7.805 -15.8125 -1.375 C-3.7929878 -2.87743902 -3.7929878 -2.87743902 0 0 Z M-11.8125 3.625 C-11.83938151 5.27074566 -11.85884123 6.91661413 -11.875 8.5625 C-11.88660156 9.47902344 -11.89820313 10.39554687 -11.91015625 11.33984375 C-12.07199049 13.59093327 -12.07199049 13.59093327 -10.8125 14.625 C-7.89711971 15.12542146 -7.89711971 15.12542146 -4.8125 14.625 C-2.2564396 11.82157892 -1.8125 10.22748631 -1.8125 6.4375 C-2.54902095 3.46288301 -2.54902095 3.46288301 -5.125 2.125 C-8.26038647 1.54167228 -9.11998026 2.10938121 -11.8125 3.625 Z " fill="#000000" transform="translate(171.8125,412.375)"/>
<path d="M0 0 C1.32 0 2.64 0 4 0 C4.33 2.64 4.66 5.28 5 8 C6.051875 7.731875 7.10375 7.46375 8.1875 7.1875 C12 7 12 7 14.9375 8.75 C17.92009112 13.44984055 17.9996926 17.57890271 17 23 C14.9375 26.1875 14.9375 26.1875 12 28 C7.61795002 28.46950536 4.35693453 27.87138691 0 27 C0 18.09 0 9.18 0 0 Z M4 13 C3.59785243 15.4010441 3.59785243 15.4010441 3.75 18.0625 C3.76546875 18.96097656 3.7809375 19.85945313 3.796875 20.78515625 C3.75940885 22.97259999 3.75940885 22.97259999 5 24 C8.51745287 23.74751373 8.51745287 23.74751373 12 23 C13.52491998 19.95016004 13.23562548 17.3576631 13 14 C11.83115894 11.99515224 11.83115894 11.99515224 10 11 C6.81509993 10.7226499 6.81509993 10.7226499 4 13 Z " fill="#000000" transform="translate(915,360)"/>
<path d="M0 0 C1.32 0 2.64 0 4 0 C4 8.91 4 17.82 4 27 C-8 28 -8 28 -11.25 26.1875 C-13.70048774 21.72411162 -13.76952873 17.98556382 -13 13 C-10.97368421 8.48684211 -10.97368421 8.48684211 -8 7 C-5.6670134 6.95977609 -3.33293334 6.95679753 -1 7 C-0.67 4.69 -0.34 2.38 0 0 Z M-7.8125 12.0625 C-9.67036623 15.09375543 -9.37133265 17.53422859 -9 21 C-7.97578739 23.10938785 -7.97578739 23.10938785 -6 24 C-2.68181015 23.75794651 -2.68181015 23.75794651 0 22 C0.09823937 20.33570949 0.12973631 18.66718069 0.125 17 C0.12757813 16.0925 0.13015625 15.185 0.1328125 14.25 C0.25173779 12.03033389 0.25173779 12.03033389 -1 11 C-3.73531209 10.71207241 -5.41243666 10.65556632 -7.8125 12.0625 Z " fill="#000000" transform="translate(509,542)"/>
<path d="M0 0 C1.9375 1.625 1.9375 1.625 3 4 C3.1875 7.75 3.1875 7.75 3 11 C-1.29 11 -5.58 11 -10 11 C-9.34 12.32 -8.68 13.64 -8 15 C-2.42169984 15.12469099 -2.42169984 15.12469099 3 14 C3 15.65 3 17.3 3 19 C-2.16207157 20.72069052 -7.04631241 20.93614197 -12 18.5625 C-14.86739592 14.88864898 -15.27105886 11.60002827 -15 7 C-13.80340311 3.34373171 -12.99395411 1.63502624 -9.75 -0.4375 C-6.14988323 -1.17388752 -3.55367258 -0.92132252 0 0 Z M-8 3 C-8.66 4.32 -9.32 5.64 -10 7 C-7.03 7 -4.06 7 -1 7 C-1.66 5.68 -2.32 4.36 -3 3 C-4.65 3 -6.3 3 -8 3 Z " fill="#000000" transform="translate(131,411)"/>
<path d="M0 0 C1.875 1.0625 1.875 1.0625 3 3 C3.53523139 5.68145627 3.7757271 8.26387067 4 11 C-0.62 11 -5.24 11 -10 11 C-9.67 12.32 -9.34 13.64 -9 15 C-7.56260487 15.02712066 -6.12506137 15.04645067 -4.6875 15.0625 C-3.88699219 15.07410156 -3.08648437 15.08570313 -2.26171875 15.09765625 C0.16861334 15.09657855 0.16861334 15.09657855 3 14 C3 15.65 3 17.3 3 19 C-1.08111083 20.36037028 -4.73729696 20.62708766 -9 20 C-12.0625 18.125 -12.0625 18.125 -14 15 C-14.90790466 10.05516213 -14.76651131 6.2951398 -12.1875 1.9375 C-8.16055838 -1.62921972 -5.04410777 -1.08088024 0 0 Z M-8.875 4.375 C-10.09486833 5.80762811 -10.09486833 5.80762811 -10 7 C-7.03 7 -4.06 7 -1 7 C-1 6.01 -1 5.02 -1 4 C-5.15476144 2.77936307 -5.15476144 2.77936307 -8.875 4.375 Z " fill="#000000" transform="translate(252,411)"/>
<path d="M0 0 C2.5 1.5625 2.5 1.5625 4 4 C4.25 7.75 4.25 7.75 4 11 C-0.29 11 -4.58 11 -9 11 C-8.67 12.65 -8.34 14.3 -8 16 C-3.83861737 16.08159574 -0.0527516 15.98248524 4 15 C3.67 16.65 3.34 18.3 3 20 C-1.55979556 20.84102896 -4.98568739 21.3503989 -9.4375 19.8125 C-12.14292239 17.89890855 -13.12329498 17.15613809 -14 14 C-14.48672731 9.61945419 -14.28491116 7.51284009 -12.125 3.625 C-8.7161419 -0.58594235 -5.20490488 -0.72004613 0 0 Z M-7 4 C-7.66 5.32 -8.32 6.64 -9 8 C-6.03 8 -3.06 8 0 8 C-0.33 6.68 -0.66 5.36 -1 4 C-2.98 4 -4.96 4 -7 4 Z " fill="#000000" transform="translate(531,549)"/>
<path d="M0 0 C0.7734375 0.06445312 1.546875 0.12890625 2.34375 0.1953125 C5.25916429 1.11430179 6.04366144 2.21263108 7.5 4.875 C8.44498592 10.15904627 8.3773002 14.51917242 5.4375 19.0625 C1.72994331 21.35014136 -0.21131281 21.5642533 -4.5 20.875 C-7.88939556 18.73820715 -9.22582557 17.6975233 -10.5 13.875 C-10.87066773 8.87098565 -10.59881835 5.89198676 -7.5 1.875 C-4.26372698 -0.28251534 -3.66421162 -0.3786352 0 0 Z M-3.5 3.875 C-5.95992068 6.75904494 -6.53644372 8.25545681 -6.3125 12.0625 C-5.71417687 14.98287469 -5.71417687 14.98287469 -3.5 16.875 C-1 17.29166667 -1 17.29166667 1.5 16.875 C3.96324069 13.18013897 3.88991688 11.24206908 3.5 6.875 C2.39350331 4.85021537 2.39350331 4.85021537 0.5 3.875 C-0.82 3.875 -2.14 3.875 -3.5 3.875 Z " fill="#000000" transform="translate(945.5,367.125)"/>
<path d="M0 0 C2.64365079 1.87613927 2.95241281 2.85723843 4 6 C4.41411765 14.69647059 4.41411765 14.69647059 2 18 C-1.70503565 20.47002376 -4.70486777 20.76877853 -9 20 C-12 18.1875 -12 18.1875 -14 15 C-14.63065029 11.2272602 -14.64503666 7.77143054 -14 4 C-10.15429571 -1.383986 -6.15595395 -1.43807121 0 0 Z M-8.75 4 C-10.81753371 7.30805394 -10.30558739 10.14959893 -10 14 C-8.17213728 16.20857238 -8.17213728 16.20857238 -5.5625 16.4375 C-2.82106902 16.24538665 -2.82106902 16.24538665 -1.125 13.875 C0.23624256 10.39626902 0.02781685 8.55782756 -1 5 C-1.66 4.34 -2.32 3.68 -3 3 C-6.75709864 2.66924071 -6.75709864 2.66924071 -8.75 4 Z " fill="#000000" transform="translate(191,411)"/>
<path d="M0 0 C2.69990662 1.79993774 4.5418865 3.083773 6 6 C6.16796875 8.0234375 6.16796875 8.0234375 6.1875 10.375 C6.20167969 11.14585937 6.21585938 11.91671875 6.23046875 12.7109375 C5.97460352 15.252243 5.32635735 16.83045833 4 19 C0.56199608 21.54666957 -2.85106275 21.50951861 -7 21 C-9.9375 19.125 -9.9375 19.125 -12 16 C-12.7841105 10.94412083 -12.71471085 6.43958129 -10 2 C-6.77706714 -0.3020949 -3.88003676 -0.47510654 0 0 Z M-6.75 5.0625 C-8.6969885 8.08033217 -8.37456901 10.5040226 -8 14 C-6.97578739 16.10938785 -6.97578739 16.10938785 -5 17 C-2.40882687 16.99843776 -2.40882687 16.99843776 0 16 C2.37222995 13.10420618 2.37222995 13.10420618 1.75 9.4375 C1.3141556 5.95407388 1.3141556 5.95407388 -1 4 C-4.77135706 3.65401458 -4.77135706 3.65401458 -6.75 5.0625 Z " fill="#000000" transform="translate(871,367)"/>
<path d="M0 0 C13.36642336 -0.49051095 13.36642336 -0.49051095 15.9375 1.5 C17.45256005 5.06484717 17.3183228 8.45278437 17.1875 12.25 C17.16719727 13.36761719 17.16719727 13.36761719 17.14648438 14.5078125 C17.11127204 16.33885416 17.05746851 18.16952169 17 20 C15.68 20 14.36 20 13 20 C12.67 15.38 12.34 10.76 12 6 C10.35 5.67 8.7 5.34 7 5 C5.05909174 6.94090826 5.60080565 10.47293902 5.4375 13.0625 C5.35371094 14.35285156 5.26992188 15.64320313 5.18359375 16.97265625 C5.12300781 17.97167969 5.06242188 18.97070312 5 20 C3.35 20 1.7 20 0 20 C0 13.4 0 6.8 0 0 Z " fill="#000000" transform="translate(588,549)"/>
<path d="M0 0 C3.26586652 4.07463064 3.3747923 7.79402675 3.1875 12.8125 C3.16719727 13.85180664 3.16719727 13.85180664 3.14648438 14.91210938 C3.11138845 16.60841265 3.05758943 18.30431136 3 20 C1.35 19.67 -0.3 19.34 -2 19 C-2 14.05 -2 9.1 -2 4 C-4.64 4.33 -7.28 4.66 -10 5 C-10 9.95 -10 14.9 -10 20 C-11.32 20 -12.64 20 -14 20 C-14 13.4 -14 6.8 -14 0 C-3.88387097 -1.26451613 -3.88387097 -1.26451613 0 0 Z " fill="#000000" transform="translate(213,411)"/>
<path d="M0 0 C0.33 1.65 0.66 3.3 1 5 C-1.97 4.67 -4.94 4.34 -8 4 C-8.33 4.66 -8.66 5.32 -9 6 C-8.37351563 6.18175781 -7.74703125 6.36351562 -7.1015625 6.55078125 C-6.28429687 6.80214844 -5.46703125 7.05351562 -4.625 7.3125 C-3.81289062 7.55613281 -3.00078125 7.79976563 -2.1640625 8.05078125 C0 9 0 9 2 12 C1.8125 15.0625 1.8125 15.0625 1 18 C-2.27127586 20.18085057 -3.27376723 20.24887859 -7.0625 20.1875 C-7.94035156 20.18105469 -8.81820312 20.17460937 -9.72265625 20.16796875 C-12 20 -12 20 -14 19 C-14 17.35 -14 15.7 -14 14 C-10.37 14.66 -6.74 15.32 -3 16 C-3.33 15.01 -3.66 14.02 -4 13 C-6.09719872 11.97718482 -6.09719872 11.97718482 -8.5625 11.3125 C-9.38878906 11.06113281 -10.21507812 10.80976563 -11.06640625 10.55078125 C-11.70449219 10.36902344 -12.34257812 10.18726563 -13 10 C-13.6875 6.6875 -13.6875 6.6875 -14 3 C-10.51116005 -2.23325993 -5.38424294 -0.7943965 0 0 Z " fill="#000000" transform="translate(151,411)"/>
<path d="M0 0 C0.680625 0.00644531 1.36125 0.01289062 2.0625 0.01953125 C4 0.1875 4 0.1875 7 1.1875 C7 2.8375 7 4.4875 7 6.1875 C3.7 5.8575 0.4 5.5275 -3 5.1875 C-3.33 5.8475 -3.66 6.5075 -4 7.1875 C-3.07767578 7.33445312 -3.07767578 7.33445312 -2.13671875 7.484375 C4.42692605 8.69870163 4.42692605 8.69870163 7.125 11 C8.29568509 13.92671273 8.19660088 15.27078536 7 18.1875 C4.60700428 20.43093348 2.96520929 21.20528443 -0.33203125 21.14453125 C-2.57464397 20.90084577 -4.78058736 20.5888317 -7 20.1875 C-7.33 18.5375 -7.66 16.8875 -8 15.1875 C-4.7 15.5175 -1.4 15.8475 2 16.1875 C2.33 15.1975 2.66 14.2075 3 13.1875 C2.37351562 13.06632813 1.74703125 12.94515625 1.1015625 12.8203125 C-0.12433594 12.56894531 -0.12433594 12.56894531 -1.375 12.3125 C-2.18710937 12.15007813 -2.99921875 11.98765625 -3.8359375 11.8203125 C-6 11.1875 -6 11.1875 -8 9.1875 C-7.8125 5.6875 -7.8125 5.6875 -7 2.1875 C-3.97455666 0.17053778 -3.38932618 -0.07061096 0 0 Z " fill="#000000" transform="translate(546,548.8125)"/>
<path d="M0 0 C1.32 0 2.64 0 4 0 C4.06058594 0.98742187 4.12117188 1.97484375 4.18359375 2.9921875 C4.26738281 4.27351562 4.35117187 5.55484375 4.4375 6.875 C4.51871094 8.15117188 4.59992188 9.42734375 4.68359375 10.7421875 C4.79206027 13.88300152 4.79206027 13.88300152 6 16 C9.465 15.505 9.465 15.505 13 15 C13 10.05 13 5.1 13 0 C14.32 0 15.64 0 17 0 C17 6.6 17 13.2 17 20 C4.78059377 21.46632875 4.78059377 21.46632875 1.59375 19.5625 C-0.73880638 15.81211524 -0.4362574 12.569739 -0.25 8.25 C-0.23195313 7.45722656 -0.21390625 6.66445313 -0.1953125 5.84765625 C-0.14833082 3.89791652 -0.07659044 1.94880122 0 0 Z " fill="#000000" transform="translate(441,549)"/>
<path d="M0 0 C0.33 1.65 0.66 3.3 1 5 C-2.63 4.67 -6.26 4.34 -10 4 C-6.62936995 7.37063005 -4.48565277 7.75398534 0 9 C1.41441874 11.82883747 1.31900332 13.87376745 1 17 C-0.4375 18.875 -0.4375 18.875 -3 20 C-6.77771358 20.36233843 -10.55150677 20.72424661 -14 19 C-14 17.35 -14 15.7 -14 14 C-13.01 14.33 -12.02 14.66 -11 15 C-8.66700175 15.03954234 -6.33291811 15.04401732 -4 15 C-4 14.34 -4 13.68 -4 13 C-4.63808594 12.79503906 -5.27617187 12.59007812 -5.93359375 12.37890625 C-6.75988281 12.10949219 -7.58617187 11.84007812 -8.4375 11.5625 C-9.26121094 11.29566406 -10.08492187 11.02882813 -10.93359375 10.75390625 C-13 10 -13 10 -14 9 C-14.04092937 6.66702567 -14.04241723 4.33294775 -14 2 C-8.76579213 -1.27137992 -5.83394389 -1.10643764 0 0 Z " fill="#000000" transform="translate(234,411)"/>
<path d="M0 0 C1.32 0 2.64 0 4 0 C4.33 5.28 4.66 10.56 5 16 C7.31 15.34 9.62 14.68 12 14 C12.33 9.38 12.66 4.76 13 0 C14.32 0 15.64 0 17 0 C17 6.6 17 13.2 17 20 C15.35 19.67 13.7 19.34 12 19 C11.34 19.33 10.68 19.66 10 20 C6.5625 20.3125 6.5625 20.3125 3 20 C0.13754497 17.4839151 -0.00366968 15.95126671 -0.29296875 12.109375 C-0.27314945 10.65595991 -0.23754845 9.20268833 -0.1875 7.75 C-0.17396484 7.00492187 -0.16042969 6.25984375 -0.14648438 5.4921875 C-0.11127204 3.66114584 -0.05746851 1.83047831 0 0 Z " fill="#000000" transform="translate(47,411)"/>
<path d="M0 0 C1.32 0 2.64 0 4 0 C4.06058594 0.91523438 4.12117187 1.83046875 4.18359375 2.7734375 C4.26738281 3.96195312 4.35117187 5.15046875 4.4375 6.375 C4.51871094 7.55835938 4.59992187 8.74171875 4.68359375 9.9609375 C4.81084936 12.91518901 4.81084936 12.91518901 6 15 C7.98 14.67 9.96 14.34 12 14 C12.33 9.38 12.66 4.76 13 0 C14.32 0 15.64 0 17 0 C17 6.27 17 12.54 17 19 C4.76671408 20.46799431 4.76671408 20.46799431 1.59375 18.53125 C-0.63290547 14.9947972 -0.43525187 11.78279069 -0.25 7.75 C-0.23195313 7.00492187 -0.21390625 6.25984375 -0.1953125 5.4921875 C-0.14835649 3.66090299 -0.07661652 1.83028351 0 0 Z " fill="#000000" transform="translate(786,368)"/>
<path d="M0 0 C0.66 0 1.32 0 2 0 C2 9.57 2 19.14 2 29 C-0.31 29 -2.62 29 -5 29 C-5.14636388 25.47961085 -5.23442023 21.96001305 -5.3125 18.4375 C-5.35439453 17.44685547 -5.39628906 16.45621094 -5.43945312 15.43554688 C-5.55286565 8.60811302 -4.71664064 5.0419262 0 0 Z " fill="#AC0102" transform="translate(156,285)"/>
<path d="M0 0 C0.33 1.65 0.66 3.3 1 5 C0.06027344 4.85691406 0.06027344 4.85691406 -0.8984375 4.7109375 C-1.71570313 4.60007812 -2.53296875 4.48921875 -3.375 4.375 C-4.18710937 4.25898438 -4.99921875 4.14296875 -5.8359375 4.0234375 C-6.55007813 4.01570313 -7.26421875 4.00796875 -8 4 C-10.37994368 5.94332332 -10.37994368 5.94332332 -10.25 9.5 C-10.37994368 13.05667668 -10.37994368 13.05667668 -8 15 C-5.77871445 15.02308597 -5.77871445 15.02308597 -3.375 14.625 C-2.55773437 14.51414062 -1.74046875 14.40328125 -0.8984375 14.2890625 C-0.27195312 14.19367188 0.35453125 14.09828125 1 14 C0.625 16.4375 0.625 16.4375 0 19 C-3.06429776 20.53214888 -5.6165642 20.22938548 -9 20 C-13.6 17.8 -13.6 17.8 -15 15 C-15.52778794 10.11147238 -15.73000486 6.2334565 -13.1875 1.9375 C-8.83220126 -1.92005032 -5.34829631 -0.7890929 0 0 Z " fill="#000000" transform="translate(856,368)"/>
<path d="M0 0 C1.65 0 3.3 0 5 0 C5.33 0.33 5.66 0.66 6 1 C6.804375 0.835 7.60875 0.67 8.4375 0.5 C11 0 11 0 13 1 C13 2.32 13 3.64 13 5 C10.36 5.33 7.72 5.66 5 6 C5 10.62 5 15.24 5 20 C3.35 20 1.7 20 0 20 C0 13.4 0 6.8 0 0 Z " fill="#000000" transform="translate(426,549)"/>
<path d="M0 0 C2.475 0.495 2.475 0.495 5 1 C5.33 0.67 5.66 0.34 6 0 C8.33297433 -0.04092937 10.66705225 -0.04241723 13 0 C13 1.32 13 2.64 13 4 C10.36 4.66 7.72 5.32 5 6 C4.67 10.62 4.34 15.24 4 20 C2.68 20 1.36 20 0 20 C0 13.4 0 6.8 0 0 Z " fill="#000000" transform="translate(103,411)"/>
<path d="M0 0 C2.475 0.495 2.475 0.495 5 1 C5.66 0.67 6.32 0.34 7 0 C8.99960012 -0.039992 11.00047242 -0.04346799 13 0 C13 1.32 13 2.64 13 4 C10.36 4.66 7.72 5.32 5 6 C4.67 10.62 4.34 15.24 4 20 C2.68 20 1.36 20 0 20 C0 13.4 0 6.8 0 0 Z " fill="#000000" transform="translate(32,411)"/>
<path d="M0 0 C3.96 0 7.92 0 12 0 C12 1.32 12 2.64 12 4 C9.36 4.33 6.72 4.66 4 5 C4 9.62 4 14.24 4 19 C2.68 19 1.36 19 0 19 C0 12.73 0 6.46 0 0 Z " fill="#000000" transform="translate(772,368)"/>
<path d="M0 0 C1.32 0 2.64 0 4 0 C4 6.6 4 13.2 4 20 C2.68 20 1.36 20 0 20 C0 13.4 0 6.8 0 0 Z " fill="#000000" transform="translate(557,549)"/>
<path d="M0 0 C1.65 0 3.3 0 5 0 C5 1.32 5 2.64 5 4 C3.35 4 1.7 4 0 4 C0 2.68 0 1.36 0 0 Z " fill="#000000" transform="translate(557,543)"/>
<path d="M0 0 C0.99 0.33 1.98 0.66 3 1 C2.67 1.66 2.34 2.32 2 3 C1.34 3 0.68 3 0 3 C0 2.01 0 1.02 0 0 Z " fill="#EDEDFB" transform="translate(75,150)"/>
</svg>
