<svg version="1.1" viewBox="0.0 0.0 371.95538057742783 100.0" fill="none" stroke="none" stroke-linecap="square" stroke-miterlimit="10" xmlns:xlink="http://www.w3.org/1999/xlink" xmlns="http://www.w3.org/2000/svg"><clipPath id="p.0"><path d="m0 0l371.95538 0l0 100.0l-371.95538 0l0 -100.0z" clip-rule="nonzero"/></clipPath><g clip-path="url(#p.0)"><path fill="#000000" fill-opacity="0.0" d="m0 0l371.95538 0l0 100.0l-371.95538 0z" fill-rule="evenodd"/><path fill="#000000" fill-opacity="0.0" d="m298.68747 7.9991937c31.582916 13.536993 53.98813 45.537155 69.34122 76.27822" fill-rule="evenodd"/><path stroke="#4b85e8" stroke-width="3.0" stroke-linejoin="round" stroke-linecap="butt" stroke-dasharray="12.0,9.0" d="m298.68747 7.999193c15.791443 6.7684965 29.288483 18.152786 40.756775 31.687586c5.7341614 6.767395 10.961151 14.072422 15.714142 21.60691c1.1882324 1.8836288 2.3468628 3.7815895 3.4763794 5.689083c0.28237915 0.4768753 0.56295776 0.9543457 0.8417053 1.4323273l0.010498047 0.018104553" fill-rule="evenodd"/><path fill="#4b85e8" stroke="#4b85e8" stroke-width="3.0" stroke-linecap="butt" d="m355.1252 70.784645l10.822266 9.632317l-2.098816 -14.335197z" fill-rule="evenodd"/><path fill="#000000" fill-opacity="0.0" d="m73.14679 7.9991937c-31.582905 13.536993 -53.98813 45.537155 -69.34121 76.27822" fill-rule="evenodd"/><path stroke="#4b85e8" stroke-width="3.0" stroke-linejoin="round" stroke-linecap="butt" stroke-dasharray="12.0,9.0" d="m73.14679 7.999193c-15.791454 6.7684965 -29.288486 18.152786 -40.75679 31.687586c-5.734152 6.767395 -10.961121 14.072422 -15.714121 21.60691c-1.1882496 1.8836288 -2.3468752 3.7815895 -3.4763985 5.689083c-0.28238106 0.4768753 -0.56294155 0.9543457 -0.8416929 1.4323273l-0.01047802 0.018104553" fill-rule="evenodd"/><path fill="#4b85e8" stroke="#4b85e8" stroke-width="3.0" stroke-linecap="butt" d="m7.9855776 66.081764l-2.0988026 14.335197l10.822265 -9.632317z" fill-rule="evenodd"/></g></svg>